<svg width="815" height="606" viewBox="0 0 815 606" fill="none" xmlns="http://www.w3.org/2000/svg">
<path opacity="0.3" d="M441.691 31.5118C441.691 31.5118 432.55 16.5436 418.422 17.3678C404.293 18.1919 399.318 27.3062 395.165 33.9358C391.012 40.5655 389.354 36.4204 378.555 33.0995C367.755 29.7787 362.816 35.5963 360.274 41.4139C357.731 47.2315 358.615 43.0743 348.651 41.4139C338.687 39.7534 338.421 45.7043 332.029 48.904C326.823 51.5098 325.709 51.6189 319.922 50.116C312.743 48.1768 310.394 49.7888 308.735 53.1218H477.284C477.284 53.1218 474.088 39.7898 466.606 36.481C459.125 33.1723 449.161 39.7777 441.691 31.5118Z" stroke="black" stroke-miterlimit="10"/>
<path opacity="0.3" d="M144.521 64.7933C144.521 64.7933 139.448 56.4669 131.567 56.9638C123.685 57.4607 120.937 62.5147 118.625 66.2235C116.312 69.9322 115.392 67.6051 109.375 65.7629C103.358 63.9206 100.598 67.1446 99.2054 70.3927C97.8132 73.6409 98.2853 71.3139 92.7284 70.3927C87.1714 69.4716 87.0504 72.8167 83.491 74.5499C80.5854 76.0043 79.968 76.0649 76.7718 75.1923C72.7766 74.1136 71.4691 75.0104 70.5369 76.8648H164.327C164.327 76.8648 162.548 69.4595 158.383 67.6051C154.218 65.7508 148.673 69.4231 144.521 64.7933Z" stroke="black" stroke-miterlimit="10"/>
<path opacity="0.3" d="M777.954 160.044C777.954 160.044 775.302 155.705 771.21 155.948C767.118 156.19 765.677 158.844 764.467 160.796C763.256 162.747 762.784 161.511 759.624 160.553C759.121 160.333 758.577 160.221 758.028 160.225C757.478 160.229 756.936 160.35 756.436 160.579C755.937 160.808 755.491 161.14 755.129 161.553C754.766 161.966 754.495 162.452 754.334 162.977C753.607 164.662 753.849 163.462 750.956 162.977C748.062 162.493 747.99 164.189 746.113 165.147C745.605 165.493 745.018 165.705 744.406 165.762C743.794 165.82 743.177 165.72 742.614 165.474C740.532 164.917 739.854 165.389 739.37 166.347H788.22C788.22 166.347 787.3 162.493 785.133 161.499C782.966 160.505 780.121 162.408 777.954 160.044Z" stroke="black" stroke-miterlimit="10"/>
<path opacity="0.3" d="M468.011 69.6293C468.011 69.6293 465.359 65.2903 461.267 65.5327C457.175 65.7751 455.723 68.4173 454.524 70.3807C453.325 72.3442 452.829 71.0958 449.681 70.1383C449.178 69.9154 448.632 69.8019 448.082 69.8052C447.531 69.8086 446.987 69.9287 446.486 70.1578C445.985 70.3868 445.538 70.7195 445.175 71.134C444.812 71.5484 444.54 72.0352 444.379 72.5623C443.664 74.247 443.894 73.035 441.013 72.5623C438.132 72.0897 438.047 73.7743 436.17 74.7318C435.662 75.0783 435.075 75.29 434.463 75.3473C433.851 75.4045 433.235 75.3053 432.671 75.0591C430.589 74.5015 429.911 74.9742 429.427 75.9317H478.277C478.277 75.9317 477.357 72.0775 475.19 71.0837C473.023 70.0899 470.178 72.0412 468.011 69.6293Z" stroke="black" stroke-miterlimit="10"/>
<g opacity="0.3">
<path d="M-61.5348 453.361H-23.2293V106.583H77.5224V271.633H99.1691V476.692H124.157V170.601H170.78V46.5649H245.72V274.966H274.038V184.115H337.319V204.113H391.436V474.195H413.083V425.012H472.212V473.359H500.517V229.953H596.269V458.354H623.751V139.925H657.056V81.5796H673.715V48.2375H700.362V264.131H743.655V470.026H776.961" stroke="black" stroke-miterlimit="10"/>
<path d="M77.5224 95.748H-23.2293V106.583H77.5224V95.748Z" stroke="black" stroke-miterlimit="10"/>
<path d="M170.78 170.601H123.867V176.091H170.78V170.601Z" stroke="black" stroke-miterlimit="10"/>
<path d="M245.72 46.5649H170.562V51.8977H245.72V46.5649Z" stroke="black" stroke-miterlimit="10"/>
<path d="M290.939 172.783H279.994V184.103H290.939V172.783Z" stroke="black" stroke-miterlimit="10"/>
<path d="M319.389 177.534H313.917V184.103H319.389V177.534Z" stroke="black" stroke-miterlimit="10"/>
<path d="M391.618 204.113H337.319V210.755H391.618V204.113Z" stroke="black" stroke-miterlimit="10"/>
<path d="M596.257 225.008H500.517V229.965H596.257V225.008Z" stroke="black" stroke-miterlimit="10"/>
<path d="M563.072 215.142H525.13V225.008H563.072V215.142Z" stroke="black" stroke-miterlimit="10"/>
<path d="M555.034 215.506V206.379H582.758V224.632" stroke="black" stroke-miterlimit="10"/>
<path d="M372.32 201.386V127.599H460.069V188.733H490.251V84.731H587.128V210.524H617.322" stroke="black" stroke-miterlimit="10"/>
<path d="M309.135 164.844V83.3247H249.461" stroke="black" stroke-miterlimit="10"/>
<path d="M120.997 185.23H101.336V128.302H82.3772" stroke="black" stroke-miterlimit="10"/>
<path d="M646.802 129.005V102.292H655.228" stroke="black" stroke-miterlimit="10"/>
<path d="M703.667 102.996H733.849V214.742H785.097V344.05" stroke="black" stroke-miterlimit="10"/>
<path d="M183.988 62.2363H176.458V76.9985H183.988V62.2363Z" stroke="black" stroke-miterlimit="10"/>
<path d="M197.548 62.2363H190.018V76.9985H197.548V62.2363Z" stroke="black" stroke-miterlimit="10"/>
<path d="M211.107 62.2363H203.577V76.9985H211.107V62.2363Z" stroke="black" stroke-miterlimit="10"/>
<path d="M224.667 62.2363H217.136V76.9985H224.667V62.2363Z" stroke="black" stroke-miterlimit="10"/>
<path d="M238.226 62.2363H230.696V76.9985H238.226V62.2363Z" stroke="black" stroke-miterlimit="10"/>
<path d="M183.988 87.1914H176.458V101.954H183.988V87.1914Z" stroke="black" stroke-miterlimit="10"/>
<path d="M197.548 87.1914H190.018V101.954H197.548V87.1914Z" stroke="black" stroke-miterlimit="10"/>
<path d="M211.107 87.1914H203.577V101.954H211.107V87.1914Z" stroke="black" stroke-miterlimit="10"/>
<path d="M224.667 87.1914H217.136V101.954H224.667V87.1914Z" stroke="black" stroke-miterlimit="10"/>
<path d="M238.226 87.1914H230.696V101.954H238.226V87.1914Z" stroke="black" stroke-miterlimit="10"/>
<path d="M183.988 112.134H176.458V126.896H183.988V112.134Z" stroke="black" stroke-miterlimit="10"/>
<path d="M197.548 112.134H190.018V126.896H197.548V112.134Z" stroke="black" stroke-miterlimit="10"/>
<path d="M211.107 112.134H203.577V126.896H211.107V112.134Z" stroke="black" stroke-miterlimit="10"/>
<path d="M224.667 112.134H217.136V126.896H224.667V112.134Z" stroke="black" stroke-miterlimit="10"/>
<path d="M238.226 112.134H230.696V126.896H238.226V112.134Z" stroke="black" stroke-miterlimit="10"/>
<path d="M183.988 137.089H176.458V151.852H183.988V137.089Z" stroke="black" stroke-miterlimit="10"/>
<path d="M197.548 137.089H190.018V151.852H197.548V137.089Z" stroke="black" stroke-miterlimit="10"/>
<path d="M211.107 137.089H203.577V151.852H211.107V137.089Z" stroke="black" stroke-miterlimit="10"/>
<path d="M224.667 137.089H217.136V151.852H224.667V137.089Z" stroke="black" stroke-miterlimit="10"/>
<path d="M238.226 137.089H230.696V151.852H238.226V137.089Z" stroke="black" stroke-miterlimit="10"/>
<path d="M183.988 162.032H176.458V176.794H183.988V162.032Z" stroke="black" stroke-miterlimit="10"/>
<path d="M197.548 162.032H190.018V176.794H197.548V162.032Z" stroke="black" stroke-miterlimit="10"/>
<path d="M211.107 162.032H203.577V176.794H211.107V162.032Z" stroke="black" stroke-miterlimit="10"/>
<path d="M224.667 162.032H217.136V176.794H224.667V162.032Z" stroke="black" stroke-miterlimit="10"/>
<path d="M238.226 162.032H230.696V176.794H238.226V162.032Z" stroke="black" stroke-miterlimit="10"/>
<path d="M183.988 186.987H176.458V201.749H183.988V186.987Z" stroke="black" stroke-miterlimit="10"/>
<path d="M197.548 186.987H190.018V201.749H197.548V186.987Z" stroke="black" stroke-miterlimit="10"/>
<path d="M211.107 186.987H203.577V201.749H211.107V186.987Z" stroke="black" stroke-miterlimit="10"/>
<path d="M224.667 186.987H217.136V201.749H224.667V186.987Z" stroke="black" stroke-miterlimit="10"/>
<path d="M238.226 186.987H230.696V201.749H238.226V186.987Z" stroke="black" stroke-miterlimit="10"/>
<path d="M137.753 186.987H130.223V201.749H137.753V186.987Z" stroke="black" stroke-miterlimit="10"/>
<path d="M151.313 186.987H143.782V201.749H151.313V186.987Z" stroke="black" stroke-miterlimit="10"/>
<path d="M164.872 186.987H157.342V201.749H164.872V186.987Z" stroke="black" stroke-miterlimit="10"/>
<path d="M137.753 211.227H130.223V225.989H137.753V211.227Z" stroke="black" stroke-miterlimit="10"/>
<path d="M151.313 211.227H143.782V225.989H151.313V211.227Z" stroke="black" stroke-miterlimit="10"/>
<path d="M164.872 211.227H157.342V225.989H164.872V211.227Z" stroke="black" stroke-miterlimit="10"/>
<path d="M137.753 235.479H130.223V250.242H137.753V235.479Z" stroke="black" stroke-miterlimit="10"/>
<path d="M151.313 235.479H143.782V250.242H151.313V235.479Z" stroke="black" stroke-miterlimit="10"/>
<path d="M164.872 235.479H157.342V250.242H164.872V235.479Z" stroke="black" stroke-miterlimit="10"/>
<path d="M137.753 259.719H130.223V274.481H137.753V259.719Z" stroke="black" stroke-miterlimit="10"/>
<path d="M151.313 259.719H143.782V274.481H151.313V259.719Z" stroke="black" stroke-miterlimit="10"/>
<path d="M164.872 259.719H157.342V274.481H164.872V259.719Z" stroke="black" stroke-miterlimit="10"/>
<path d="M137.753 283.972H130.223V298.734H137.753V283.972Z" stroke="black" stroke-miterlimit="10"/>
<path d="M151.313 283.972H143.782V298.734H151.313V283.972Z" stroke="black" stroke-miterlimit="10"/>
<path d="M164.872 283.972H157.342V298.734H164.872V283.972Z" stroke="black" stroke-miterlimit="10"/>
<path d="M137.753 308.211H130.223V322.974H137.753V308.211Z" stroke="black" stroke-miterlimit="10"/>
<path d="M151.313 308.211H143.782V322.974H151.313V308.211Z" stroke="black" stroke-miterlimit="10"/>
<path d="M164.872 308.211H157.342V322.974H164.872V308.211Z" stroke="black" stroke-miterlimit="10"/>
<path d="M137.753 332.464H130.223V347.226H137.753V332.464Z" stroke="black" stroke-miterlimit="10"/>
<path d="M151.313 332.464H143.782V347.226H151.313V332.464Z" stroke="black" stroke-miterlimit="10"/>
<path d="M164.872 332.464H157.342V347.226H164.872V332.464Z" stroke="black" stroke-miterlimit="10"/>
<path d="M137.753 356.704H130.223V371.466H137.753V356.704Z" stroke="black" stroke-miterlimit="10"/>
<path d="M151.313 356.704H143.782V371.466H151.313V356.704Z" stroke="black" stroke-miterlimit="10"/>
<path d="M164.872 356.704H157.342V371.466H164.872V356.704Z" stroke="black" stroke-miterlimit="10"/>
<path d="M137.753 380.956H130.223V395.718H137.753V380.956Z" stroke="black" stroke-miterlimit="10"/>
<path d="M151.313 380.956H143.782V395.718H151.313V380.956Z" stroke="black" stroke-miterlimit="10"/>
<path d="M164.872 380.956H157.342V395.718H164.872V380.956Z" stroke="black" stroke-miterlimit="10"/>
<path d="M137.753 405.196H130.223V419.958H137.753V405.196Z" stroke="black" stroke-miterlimit="10"/>
<path d="M151.313 405.196H143.782V419.958H151.313V405.196Z" stroke="black" stroke-miterlimit="10"/>
<path d="M164.872 405.196H157.342V419.958H164.872V405.196Z" stroke="black" stroke-miterlimit="10"/>
<path d="M137.753 429.448H130.223V444.21H137.753V429.448Z" stroke="black" stroke-miterlimit="10"/>
<path d="M151.313 429.448H143.782V444.21H151.313V429.448Z" stroke="black" stroke-miterlimit="10"/>
<path d="M164.872 429.448H157.342V444.21H164.872V429.448Z" stroke="black" stroke-miterlimit="10"/>
<path d="M258.662 286.771H251.132V301.533H258.662V286.771Z" stroke="black" stroke-miterlimit="10"/>
<path d="M272.222 286.771H264.691V301.533H272.222V286.771Z" stroke="black" stroke-miterlimit="10"/>
<path d="M258.662 311.023H251.132V325.786H258.662V311.023Z" stroke="black" stroke-miterlimit="10"/>
<path d="M272.222 311.023H264.691V325.786H272.222V311.023Z" stroke="black" stroke-miterlimit="10"/>
<path d="M258.662 335.275H251.132V350.038H258.662V335.275Z" stroke="black" stroke-miterlimit="10"/>
<path d="M272.222 335.275H264.691V350.038H272.222V335.275Z" stroke="black" stroke-miterlimit="10"/>
<path d="M258.662 359.516H251.132V374.278H258.662V359.516Z" stroke="black" stroke-miterlimit="10"/>
<path d="M272.222 359.516H264.691V374.278H272.222V359.516Z" stroke="black" stroke-miterlimit="10"/>
<path d="M258.662 383.768H251.132V398.53H258.662V383.768Z" stroke="black" stroke-miterlimit="10"/>
<path d="M272.222 383.768H264.691V398.53H272.222V383.768Z" stroke="black" stroke-miterlimit="10"/>
<path d="M258.662 408.008H251.132V422.77H258.662V408.008Z" stroke="black" stroke-miterlimit="10"/>
<path d="M272.222 408.008H264.691V422.77H272.222V408.008Z" stroke="black" stroke-miterlimit="10"/>
<path d="M258.662 432.26H251.132V447.022H258.662V432.26Z" stroke="black" stroke-miterlimit="10"/>
<path d="M272.222 432.26H264.691V447.022H272.222V432.26Z" stroke="black" stroke-miterlimit="10"/>
<path d="M183.988 211.93H176.458V226.692H183.988V211.93Z" stroke="black" stroke-miterlimit="10"/>
<path d="M197.548 211.93H190.018V226.692H197.548V211.93Z" stroke="black" stroke-miterlimit="10"/>
<path d="M211.107 211.93H203.577V226.692H211.107V211.93Z" stroke="black" stroke-miterlimit="10"/>
<path d="M224.667 211.93H217.136V226.692H224.667V211.93Z" stroke="black" stroke-miterlimit="10"/>
<path d="M238.226 211.93H230.696V226.692H238.226V211.93Z" stroke="black" stroke-miterlimit="10"/>
<path d="M183.988 236.885H176.458V251.647H183.988V236.885Z" stroke="black" stroke-miterlimit="10"/>
<path d="M197.548 236.885H190.018V251.647H197.548V236.885Z" stroke="black" stroke-miterlimit="10"/>
<path d="M211.107 236.885H203.577V251.647H211.107V236.885Z" stroke="black" stroke-miterlimit="10"/>
<path d="M224.667 236.885H217.136V251.647H224.667V236.885Z" stroke="black" stroke-miterlimit="10"/>
<path d="M238.226 236.885H230.696V251.647H238.226V236.885Z" stroke="black" stroke-miterlimit="10"/>
<path d="M183.988 261.828H176.458V276.59H183.988V261.828Z" stroke="black" stroke-miterlimit="10"/>
<path d="M197.548 261.828H190.018V276.59H197.548V261.828Z" stroke="black" stroke-miterlimit="10"/>
<path d="M211.107 261.828H203.577V276.59H211.107V261.828Z" stroke="black" stroke-miterlimit="10"/>
<path d="M224.667 261.828H217.136V276.59H224.667V261.828Z" stroke="black" stroke-miterlimit="10"/>
<path d="M238.226 261.828H230.696V276.59H238.226V261.828Z" stroke="black" stroke-miterlimit="10"/>
<path d="M183.988 286.771H176.458V301.533H183.988V286.771Z" stroke="black" stroke-miterlimit="10"/>
<path d="M197.548 286.771H190.018V301.533H197.548V286.771Z" stroke="black" stroke-miterlimit="10"/>
<path d="M211.107 286.771H203.577V301.533H211.107V286.771Z" stroke="black" stroke-miterlimit="10"/>
<path d="M224.667 286.771H217.136V301.533H224.667V286.771Z" stroke="black" stroke-miterlimit="10"/>
<path d="M238.226 286.771H230.696V301.533H238.226V286.771Z" stroke="black" stroke-miterlimit="10"/>
<path d="M183.988 311.727H176.458V326.489H183.988V311.727Z" stroke="black" stroke-miterlimit="10"/>
<path d="M197.548 311.727H190.018V326.489H197.548V311.727Z" stroke="black" stroke-miterlimit="10"/>
<path d="M211.107 311.727H203.577V326.489H211.107V311.727Z" stroke="black" stroke-miterlimit="10"/>
<path d="M224.667 311.727H217.136V326.489H224.667V311.727Z" stroke="black" stroke-miterlimit="10"/>
<path d="M238.226 311.727H230.696V326.489H238.226V311.727Z" stroke="black" stroke-miterlimit="10"/>
<path d="M183.988 336.669H176.458V351.432H183.988V336.669Z" stroke="black" stroke-miterlimit="10"/>
<path d="M197.548 336.669H190.018V351.432H197.548V336.669Z" stroke="black" stroke-miterlimit="10"/>
<path d="M211.107 336.669H203.577V351.432H211.107V336.669Z" stroke="black" stroke-miterlimit="10"/>
<path d="M224.667 336.669H217.136V351.432H224.667V336.669Z" stroke="black" stroke-miterlimit="10"/>
<path d="M238.226 336.669H230.696V351.432H238.226V336.669Z" stroke="black" stroke-miterlimit="10"/>
<path d="M183.988 361.625H176.458V376.387H183.988V361.625Z" stroke="black" stroke-miterlimit="10"/>
<path d="M197.548 361.625H190.018V376.387H197.548V361.625Z" stroke="black" stroke-miterlimit="10"/>
<path d="M211.107 361.625H203.577V376.387H211.107V361.625Z" stroke="black" stroke-miterlimit="10"/>
<path d="M224.667 361.625H217.136V376.387H224.667V361.625Z" stroke="black" stroke-miterlimit="10"/>
<path d="M238.226 361.625H230.696V376.387H238.226V361.625Z" stroke="black" stroke-miterlimit="10"/>
<path d="M183.988 386.567H176.458V401.33H183.988V386.567Z" stroke="black" stroke-miterlimit="10"/>
<path d="M197.548 386.567H190.018V401.33H197.548V386.567Z" stroke="black" stroke-miterlimit="10"/>
<path d="M211.107 386.567H203.577V401.33H211.107V386.567Z" stroke="black" stroke-miterlimit="10"/>
<path d="M224.667 386.567H217.136V401.33H224.667V386.567Z" stroke="black" stroke-miterlimit="10"/>
<path d="M238.226 386.567H230.696V401.33H238.226V386.567Z" stroke="black" stroke-miterlimit="10"/>
<path d="M183.988 411.522H176.458V426.285H183.988V411.522Z" stroke="black" stroke-miterlimit="10"/>
<path d="M197.548 411.522H190.018V426.285H197.548V411.522Z" stroke="black" stroke-miterlimit="10"/>
<path d="M211.107 411.522H203.577V426.285H211.107V411.522Z" stroke="black" stroke-miterlimit="10"/>
<path d="M224.667 411.522H217.136V426.285H224.667V411.522Z" stroke="black" stroke-miterlimit="10"/>
<path d="M238.226 411.522H230.696V426.285H238.226V411.522Z" stroke="black" stroke-miterlimit="10"/>
<path d="M183.988 437.168H176.458V451.931H183.988V437.168Z" stroke="black" stroke-miterlimit="10"/>
<path d="M197.548 437.168H190.018V451.931H197.548V437.168Z" stroke="black" stroke-miterlimit="10"/>
<path d="M211.107 437.168H203.577V451.931H211.107V437.168Z" stroke="black" stroke-miterlimit="10"/>
<path d="M224.667 437.168H217.136V451.931H224.667V437.168Z" stroke="black" stroke-miterlimit="10"/>
<path d="M238.226 437.168H230.696V451.931H238.226V437.168Z" stroke="black" stroke-miterlimit="10"/>
<path d="M170.78 176.091V476.885" stroke="black" stroke-miterlimit="10"/>
<path d="M285.963 190.139V472.668" stroke="black" stroke-miterlimit="10"/>
<path d="M300.709 190.139V472.668" stroke="black" stroke-miterlimit="10"/>
<path d="M315.455 190.139V472.668" stroke="black" stroke-miterlimit="10"/>
<path d="M330.189 190.139V472.668" stroke="black" stroke-miterlimit="10"/>
<path d="M344.935 218.257V472.668" stroke="black" stroke-miterlimit="10"/>
<path d="M359.68 218.257V472.668" stroke="black" stroke-miterlimit="10"/>
<path d="M374.426 218.257V472.668" stroke="black" stroke-miterlimit="10"/>
<path d="M-19.4036 122.679H72.5587" stroke="black" stroke-miterlimit="10"/>
<path d="M-19.4036 140.943H72.5587" stroke="black" stroke-miterlimit="10"/>
<path d="M-19.4036 159.22H72.5587" stroke="black" stroke-miterlimit="10"/>
<path d="M-19.4036 177.497H72.5587" stroke="black" stroke-miterlimit="10"/>
<path d="M-19.4036 195.762H72.5587" stroke="black" stroke-miterlimit="10"/>
<path d="M-19.4036 214.039H72.5587" stroke="black" stroke-miterlimit="10"/>
<path d="M-19.4036 232.316H72.5587" stroke="black" stroke-miterlimit="10"/>
<path d="M-19.4036 250.581H72.5587" stroke="black" stroke-miterlimit="10"/>
<path d="M-19.4036 268.858H72.5587" stroke="black" stroke-miterlimit="10"/>
<path d="M-19.4036 287.123H72.5587" stroke="black" stroke-miterlimit="10"/>
<path d="M-19.4036 305.399H72.5587" stroke="black" stroke-miterlimit="10"/>
<path d="M-19.4036 323.677H72.5587" stroke="black" stroke-miterlimit="10"/>
<path d="M-19.4036 341.941H72.5587" stroke="black" stroke-miterlimit="10"/>
<path d="M-19.4036 360.218H72.5587" stroke="black" stroke-miterlimit="10"/>
<path d="M-19.4036 378.496H72.5587" stroke="black" stroke-miterlimit="10"/>
<path d="M-19.4036 396.76H72.5587" stroke="black" stroke-miterlimit="10"/>
<path d="M-19.4036 415.037H72.5587" stroke="black" stroke-miterlimit="10"/>
<path d="M-19.4036 433.314H72.5587" stroke="black" stroke-miterlimit="10"/>
<path d="M-19.4036 451.579H72.5587" stroke="black" stroke-miterlimit="10"/>
<path d="M-19.4036 469.856H72.5587" stroke="black" stroke-miterlimit="10"/>
<path d="M-19.4036 488.121H72.5587" stroke="black" stroke-miterlimit="10"/>
<path d="M624.332 173.279H644.696V183.121H624.332" stroke="black" stroke-miterlimit="10"/>
<path d="M742.977 283.62H719.817V293.449H742.977" stroke="black" stroke-miterlimit="10"/>
<path d="M742.977 306.806H719.817V316.647H742.977" stroke="black" stroke-miterlimit="10"/>
<path d="M742.977 330.003H719.817V339.833H742.977" stroke="black" stroke-miterlimit="10"/>
<path d="M742.977 353.189H719.817V363.03H742.977" stroke="black" stroke-miterlimit="10"/>
<path d="M742.977 376.387H719.817V386.228H742.977" stroke="black" stroke-miterlimit="10"/>
<path d="M742.977 399.572H719.817V409.414H742.977" stroke="black" stroke-miterlimit="10"/>
<path d="M742.977 422.77H719.817V432.611H742.977" stroke="black" stroke-miterlimit="10"/>
<path d="M742.977 445.955H719.817V455.797H742.977" stroke="black" stroke-miterlimit="10"/>
<path d="M624.332 199.98H644.696V209.821H624.332" stroke="black" stroke-miterlimit="10"/>
<path d="M624.332 226.692H644.696V236.534H624.332" stroke="black" stroke-miterlimit="10"/>
<path d="M624.332 253.393H644.696V263.234H624.332" stroke="black" stroke-miterlimit="10"/>
<path d="M624.332 280.105H644.696V289.934H624.332" stroke="black" stroke-miterlimit="10"/>
<path d="M624.332 306.806H644.696V316.647H624.332" stroke="black" stroke-miterlimit="10"/>
<path d="M624.332 333.518H644.696V343.347H624.332" stroke="black" stroke-miterlimit="10"/>
<path d="M624.332 360.218H644.696V370.06H624.332" stroke="black" stroke-miterlimit="10"/>
<path d="M624.332 386.931H644.696V396.76H624.332" stroke="black" stroke-miterlimit="10"/>
<path d="M624.332 413.631H644.696V423.473H624.332" stroke="black" stroke-miterlimit="10"/>
<path d="M592.044 237.225H503.592V245.66H592.044V237.225Z" stroke="black" stroke-miterlimit="10"/>
<path d="M592.044 251.987H503.592V260.422H592.044V251.987Z" stroke="black" stroke-miterlimit="10"/>
<path d="M592.044 266.749H503.592V275.185H592.044V266.749Z" stroke="black" stroke-miterlimit="10"/>
<path d="M592.044 281.511H503.592V289.947H592.044V281.511Z" stroke="black" stroke-miterlimit="10"/>
<path d="M592.044 296.261H503.592V304.697H592.044V296.261Z" stroke="black" stroke-miterlimit="10"/>
<path d="M592.044 311.023H503.592V319.459H592.044V311.023Z" stroke="black" stroke-miterlimit="10"/>
<path d="M592.044 325.786H503.592V334.221H592.044V325.786Z" stroke="black" stroke-miterlimit="10"/>
<path d="M592.044 340.536H503.592V348.971H592.044V340.536Z" stroke="black" stroke-miterlimit="10"/>
<path d="M592.044 355.298H503.592V363.733H592.044V355.298Z" stroke="black" stroke-miterlimit="10"/>
<path d="M592.044 370.06H503.592V378.495H592.044V370.06Z" stroke="black" stroke-miterlimit="10"/>
<path d="M592.044 384.822H503.592V393.258H592.044V384.822Z" stroke="black" stroke-miterlimit="10"/>
<path d="M592.044 399.572H503.592V408.008H592.044V399.572Z" stroke="black" stroke-miterlimit="10"/>
<path d="M592.044 414.334H503.592V422.77H592.044V414.334Z" stroke="black" stroke-miterlimit="10"/>
<path d="M592.044 429.096H503.592V437.532H592.044V429.096Z" stroke="black" stroke-miterlimit="10"/>
<path d="M592.044 443.846H503.592V452.282H592.044V443.846Z" stroke="black" stroke-miterlimit="10"/>
<path d="M592.044 458.608H503.592V467.044H592.044V458.608Z" stroke="black" stroke-miterlimit="10"/>
<path d="M592.044 473.371H503.592V481.806H592.044V473.371Z" stroke="black" stroke-miterlimit="10"/>
<path d="M657.335 150.082V476.183" stroke="black" stroke-miterlimit="10"/>
<path d="M675.58 88.2456V476.183" stroke="black" stroke-miterlimit="10"/>
<path d="M465.686 401.681H421.461V424.879H465.686V401.681Z" stroke="black" stroke-miterlimit="10"/>
<path d="M455.154 360.921H431.981V401.681H455.154V360.921Z" stroke="black" stroke-miterlimit="10"/>
<path d="M245.72 274.966V476.328" stroke="black" stroke-miterlimit="10"/>
<path d="M499.754 252.896H392.356" stroke="black" stroke-miterlimit="10"/>
<path d="M499.754 264.919H392.356" stroke="black" stroke-miterlimit="10"/>
<path d="M413.531 273.924H397.151V285.935H413.531V273.924Z" stroke="black" stroke-miterlimit="10"/>
<path d="M433.737 273.924H417.357V285.935H433.737V273.924Z" stroke="black" stroke-miterlimit="10"/>
<path d="M453.943 273.924H437.563V285.935H453.943V273.924Z" stroke="black" stroke-miterlimit="10"/>
<path d="M474.149 273.924H457.769V285.935H474.149V273.924Z" stroke="black" stroke-miterlimit="10"/>
<path d="M494.355 273.924H477.975V285.935H494.355V273.924Z" stroke="black" stroke-miterlimit="10"/>
<path d="M413.531 292.541H397.151V304.551H413.531V292.541Z" stroke="black" stroke-miterlimit="10"/>
<path d="M433.737 292.541H417.357V304.551H433.737V292.541Z" stroke="black" stroke-miterlimit="10"/>
<path d="M453.943 292.541H437.563V304.551H453.943V292.541Z" stroke="black" stroke-miterlimit="10"/>
<path d="M474.149 292.541H457.769V304.551H474.149V292.541Z" stroke="black" stroke-miterlimit="10"/>
<path d="M494.355 292.541H477.975V304.551H494.355V292.541Z" stroke="black" stroke-miterlimit="10"/>
<path d="M413.531 311.157H397.151V323.168H413.531V311.157Z" stroke="black" stroke-miterlimit="10"/>
<path d="M433.737 311.157H417.357V323.168H433.737V311.157Z" stroke="black" stroke-miterlimit="10"/>
<path d="M453.943 311.157H437.563V323.168H453.943V311.157Z" stroke="black" stroke-miterlimit="10"/>
<path d="M474.149 311.157H457.769V323.168H474.149V311.157Z" stroke="black" stroke-miterlimit="10"/>
<path d="M494.355 311.157H477.975V323.168H494.355V311.157Z" stroke="black" stroke-miterlimit="10"/>
<path d="M413.531 344.802H397.151V356.813H413.531V344.802Z" stroke="black" stroke-miterlimit="10"/>
<path d="M433.737 344.802H417.357V356.813H433.737V344.802Z" stroke="black" stroke-miterlimit="10"/>
<path d="M453.943 344.802H437.563V356.813H453.943V344.802Z" stroke="black" stroke-miterlimit="10"/>
<path d="M474.149 344.802H457.769V356.813H474.149V344.802Z" stroke="black" stroke-miterlimit="10"/>
<path d="M494.355 344.802H477.975V356.813H494.355V344.802Z" stroke="black" stroke-miterlimit="10"/>
</g>
<path d="M755.677 527.511C755.677 527.511 756.234 525.499 756.246 525.366C756.464 523.839 755.98 520.76 754.418 520.009C754.158 519.89 753.875 519.828 753.589 519.826C753.303 519.823 753.019 519.881 752.757 519.996C752.495 520.11 752.259 520.278 752.066 520.489C751.872 520.7 751.725 520.949 751.634 521.221C751.497 521.827 751.493 522.456 751.62 523.065C751.747 523.673 752.004 524.247 752.372 524.748C753.331 525.827 754.445 526.759 755.677 527.511Z" fill="#263238"/>
<path d="M724.987 526.857C726.38 527.226 727.82 527.385 729.261 527.329C729.261 527.329 728.607 525.342 728.558 525.22C727.893 523.827 725.786 521.524 724.067 521.766C723.784 521.812 723.515 521.917 723.275 522.074C723.036 522.231 722.833 522.438 722.678 522.679C722.524 522.92 722.422 523.192 722.38 523.475C722.338 523.758 722.355 524.048 722.432 524.324C722.65 524.906 722.99 525.434 723.432 525.871C723.873 526.309 724.403 526.645 724.987 526.857Z" fill="#263238"/>
<path d="M726.04 535.704C727.465 535.7 728.882 535.48 730.241 535.05C730.693 536.598 731.243 538.116 731.888 539.595C732.263 540.455 732.662 541.316 733.098 542.164C732.856 541.801 732.626 541.485 732.59 541.437C731.585 540.225 728.958 538.613 727.36 539.292C727.099 539.411 726.865 539.584 726.676 539.8C726.486 540.016 726.343 540.269 726.258 540.543C726.172 540.818 726.145 541.107 726.179 541.393C726.212 541.678 726.305 541.953 726.452 542.2C726.817 542.702 727.287 543.119 727.828 543.422C728.369 543.725 728.969 543.908 729.587 543.958C730.976 543.963 732.356 543.75 733.679 543.328C733.837 543.655 733.994 543.982 734.164 544.309C734.95 545.873 735.737 547.424 736.464 548.976C736.718 549.521 736.948 550.066 737.19 550.612C736.96 550.297 736.779 550.018 736.742 549.982C735.737 548.77 733.11 547.158 731.512 547.836C731.25 547.954 731.015 548.127 730.824 548.342C730.633 548.558 730.49 548.811 730.405 549.086C730.319 549.361 730.292 549.651 730.327 549.937C730.361 550.223 730.456 550.498 730.604 550.745C730.97 551.247 731.439 551.663 731.98 551.967C732.522 552.27 733.122 552.453 733.74 552.502C735.09 552.511 736.434 552.31 737.723 551.909C737.941 552.478 738.171 553.036 738.352 553.593C738.534 554.151 738.619 554.345 738.728 554.805C738.837 555.266 738.934 555.569 739.043 555.945C739.224 556.684 739.406 557.447 739.563 558.175C739.672 558.684 739.769 559.156 739.866 559.641C739.624 559.096 739.115 558.041 739.055 557.956C738.244 556.648 735.883 554.611 734.212 555.036C733.935 555.113 733.678 555.249 733.457 555.433C733.236 555.617 733.057 555.847 732.931 556.105C732.805 556.364 732.736 556.647 732.727 556.935C732.718 557.222 732.77 557.509 732.88 557.775C733.161 558.327 733.559 558.812 734.046 559.195C734.533 559.578 735.098 559.85 735.701 559.993C737.106 560.199 738.534 560.199 739.938 559.993C740.096 560.793 740.253 561.58 740.374 562.32C740.834 564.877 741.113 567.022 741.282 568.537H742.493V568.404C742.275 566.877 741.948 564.707 741.44 562.126C741.27 561.314 741.089 560.441 740.883 559.556C741.69 559.23 742.478 558.857 743.244 558.441C744.286 559.337 745.447 560.083 746.694 560.659C746.379 561.423 746.077 562.15 745.774 562.841C744.745 565.265 743.788 567.18 743.098 568.537H744.382C745.023 567.192 745.846 565.386 746.718 563.241C747.033 562.477 747.36 561.641 747.675 560.817C749.059 561.134 750.483 561.244 751.9 561.144C752.513 561.046 753.097 560.816 753.613 560.471C754.129 560.126 754.565 559.673 754.89 559.144C755.017 558.886 755.088 558.604 755.099 558.317C755.11 558.03 755.061 557.744 754.955 557.477C754.849 557.209 754.688 556.968 754.483 556.766C754.278 556.565 754.033 556.409 753.764 556.308C752.118 555.763 749.624 557.617 748.704 558.865C748.704 558.938 748.159 559.799 747.856 560.344C747.977 560.005 748.11 559.665 748.244 559.302C748.498 558.587 748.74 557.872 749.006 557.096C749.115 556.72 749.224 556.332 749.345 555.945C749.466 555.557 749.551 555.157 749.648 554.733C749.878 553.787 750.06 552.83 750.217 551.86C751.496 552.376 752.849 552.687 754.224 552.781C754.845 552.777 755.458 552.639 756.02 552.375C756.582 552.111 757.081 551.729 757.481 551.254C757.644 551.018 757.756 550.75 757.809 550.468C757.863 550.186 757.857 549.896 757.792 549.617C757.727 549.337 757.604 549.074 757.432 548.845C757.26 548.615 757.041 548.425 756.791 548.285C755.253 547.497 752.505 548.963 751.416 550.042C751.343 550.115 750.641 550.988 750.278 551.472C750.362 550.891 750.459 550.26 750.532 549.715C750.738 547.994 750.907 546.249 751.077 544.515C751.077 543.982 751.186 543.449 751.234 542.928C752.563 543.454 753.962 543.78 755.387 543.897C756.006 543.893 756.616 543.754 757.177 543.491C757.737 543.227 758.233 542.845 758.631 542.37C758.796 542.135 758.91 541.868 758.966 541.586C759.021 541.305 759.017 541.014 758.953 540.734C758.889 540.454 758.767 540.191 758.595 539.961C758.422 539.731 758.204 539.54 757.953 539.401C756.416 538.613 753.667 540.067 752.566 541.158C752.481 541.243 751.488 542.491 751.246 542.831C751.367 541.619 751.5 540.492 751.682 539.352C751.915 537.809 752.246 536.283 752.675 534.783C754.005 535.321 755.409 535.652 756.839 535.765C757.461 535.766 758.075 535.629 758.638 535.365C759.201 535.101 759.699 534.716 760.096 534.238C760.261 534.002 760.374 533.734 760.429 533.452C760.483 533.17 760.478 532.879 760.413 532.599C760.348 532.319 760.224 532.055 760.051 531.826C759.877 531.597 759.658 531.407 759.406 531.268C757.881 530.48 755.12 531.947 754.031 533.038C753.958 533.11 753.195 534.056 752.82 534.516H752.735C753.171 532.963 753.751 531.454 754.466 530.008C754.866 529.232 755.278 528.517 755.677 527.838C756.916 528.494 758.247 528.96 759.624 529.22C760.241 529.288 760.865 529.221 761.452 529.022C762.04 528.823 762.577 528.497 763.026 528.069C763.216 527.853 763.359 527.6 763.446 527.325C763.532 527.051 763.559 526.761 763.526 526.475C763.493 526.189 763.4 525.914 763.253 525.666C763.107 525.418 762.91 525.205 762.675 525.039C761.234 524.081 758.341 525.233 757.13 526.251C757.13 526.251 756.452 526.905 756.016 527.353L756.609 526.432C757.324 525.342 758.05 524.396 758.704 523.56C759.079 523.075 759.43 522.663 759.757 522.263C761.151 522.284 762.54 522.088 763.873 521.681C764.454 521.455 764.977 521.105 765.408 520.655C765.839 520.204 766.166 519.666 766.367 519.076C766.434 518.798 766.442 518.509 766.391 518.227C766.34 517.946 766.23 517.679 766.069 517.442C765.909 517.206 765.7 517.006 765.457 516.855C765.215 516.704 764.943 516.606 764.66 516.567C762.941 516.373 760.895 518.736 760.266 520.142C760.266 520.263 759.588 522.275 759.624 522.275C759.297 522.639 758.946 523.039 758.583 523.487C757.917 524.311 757.166 525.245 756.416 526.323C755.594 527.49 754.842 528.704 754.164 529.959C753.393 531.344 752.748 532.797 752.239 534.298C752.239 533.789 752.239 532.383 752.239 532.274C752.045 530.735 750.762 527.899 749.067 527.584C748.779 527.53 748.482 527.538 748.197 527.609C747.912 527.68 747.646 527.811 747.417 527.994C747.187 528.176 746.999 528.406 746.866 528.668C746.733 528.93 746.658 529.217 746.646 529.511C746.692 530.135 746.874 530.742 747.179 531.289C747.485 531.835 747.906 532.308 748.413 532.674C749.605 533.453 750.907 534.05 752.275 534.444C751.795 535.984 751.419 537.555 751.149 539.146C750.98 540.067 750.847 541.001 750.713 541.946C750.713 541.51 750.713 541.11 750.713 541.061C750.508 539.534 749.224 536.686 747.529 536.371C747.241 536.319 746.945 536.329 746.661 536.4C746.377 536.472 746.112 536.603 745.883 536.786C745.654 536.968 745.466 537.197 745.332 537.458C745.199 537.719 745.122 538.005 745.108 538.298C745.135 538.919 745.296 539.526 745.58 540.079C745.864 540.631 746.265 541.115 746.755 541.498C747.908 542.267 749.174 542.852 750.508 543.231C750.508 543.594 750.411 543.958 750.374 544.321C750.169 546.055 749.963 547.788 749.721 549.485C749.636 550.078 749.527 550.697 749.418 551.242C749.418 550.854 749.418 550.527 749.418 550.478C749.212 548.951 747.929 546.103 746.234 545.788C745.946 545.736 745.65 545.746 745.366 545.818C745.082 545.889 744.817 546.02 744.587 546.203C744.358 546.385 744.171 546.614 744.037 546.875C743.903 547.136 743.827 547.422 743.813 547.715C743.838 548.336 743.998 548.945 744.282 549.497C744.567 550.05 744.968 550.534 745.459 550.915C746.576 551.666 747.801 552.242 749.091 552.624C748.97 553.218 748.837 553.836 748.692 554.381C748.583 554.769 748.498 555.157 748.365 555.532L748.001 556.672C747.747 557.387 747.481 558.126 747.215 558.817C747.033 559.302 746.839 559.75 746.658 560.211C746.755 559.617 746.912 558.453 746.912 558.356C746.894 556.998 746.527 555.666 745.847 554.49C745.859 554.341 745.859 554.191 745.847 554.042C745.81 553.756 745.714 553.482 745.565 553.236C745.416 552.99 745.216 552.779 744.98 552.615C744.743 552.452 744.475 552.34 744.193 552.287C743.91 552.234 743.62 552.242 743.34 552.309C741.67 552.745 740.616 555.678 740.532 557.229C740.532 557.314 740.592 558.308 740.641 558.938C740.556 558.575 740.483 558.211 740.386 557.847C740.217 557.108 740.011 556.369 739.805 555.581C739.696 555.205 739.575 554.83 739.466 554.442C739.357 554.054 739.188 553.666 739.055 553.23C738.728 552.333 738.352 551.436 737.941 550.539C739.293 550.261 740.592 549.77 741.791 549.085C742.309 548.742 742.745 548.29 743.07 547.76C743.394 547.231 743.598 546.636 743.667 546.018C743.675 545.731 743.622 545.446 743.513 545.181C743.403 544.916 743.239 544.677 743.032 544.479C742.824 544.281 742.577 544.13 742.307 544.034C742.037 543.938 741.75 543.899 741.464 543.922C739.745 544.115 738.256 546.855 737.941 548.357C737.941 548.454 737.82 549.569 737.783 550.175C737.529 549.642 737.287 549.097 737.021 548.563C736.258 547.012 735.435 545.473 734.599 543.934L733.861 542.516C735.259 542.227 736.606 541.728 737.856 541.037C738.371 540.689 738.805 540.233 739.129 539.702C739.453 539.171 739.659 538.576 739.733 537.958C739.739 537.672 739.685 537.387 739.574 537.122C739.463 536.857 739.297 536.619 739.088 536.423C738.879 536.226 738.632 536.076 738.361 535.981C738.09 535.887 737.803 535.85 737.517 535.874C735.798 536.056 734.309 538.795 734.006 540.31C734.006 540.419 733.837 542.019 733.812 542.431C733.28 541.388 732.747 540.346 732.263 539.292C731.606 537.876 731.044 536.419 730.58 534.928C731.986 534.641 733.342 534.142 734.599 533.45C735.114 533.104 735.547 532.651 735.868 532.122C736.19 531.592 736.394 530.999 736.464 530.383C736.473 530.096 736.422 529.81 736.313 529.544C736.204 529.278 736.041 529.038 735.832 528.84C735.624 528.642 735.376 528.49 735.106 528.395C734.835 528.299 734.547 528.263 734.26 528.287C732.541 528.469 731.052 531.208 730.737 532.723C730.737 532.82 730.616 534.044 730.568 534.625H730.471C730.042 533.116 729.75 531.57 729.599 530.008C729.503 529.159 729.454 528.323 729.43 527.523C730.825 527.387 732.192 527.044 733.486 526.505C734.035 526.217 734.515 525.814 734.894 525.322C735.272 524.83 735.539 524.262 735.677 523.657C735.718 523.372 735.699 523.082 735.619 522.805C735.54 522.529 735.404 522.272 735.218 522.052C735.033 521.832 734.803 521.654 734.544 521.53C734.285 521.405 734.003 521.337 733.716 521.33C731.984 521.33 730.205 523.887 729.733 525.354C729.733 525.439 729.539 526.275 729.418 526.893C729.418 526.529 729.418 526.154 729.418 525.802C729.418 524.493 729.503 523.293 729.575 522.239C729.575 521.633 729.684 521.087 729.745 520.591C730.918 519.831 731.968 518.895 732.856 517.815C733.216 517.308 733.459 516.729 733.57 516.117C733.681 515.505 733.656 514.877 733.498 514.276C733.41 513.999 733.264 513.744 733.07 513.529C732.875 513.313 732.637 513.142 732.37 513.027C732.104 512.912 731.816 512.856 731.526 512.862C731.235 512.869 730.95 512.937 730.689 513.064C729.151 513.852 728.752 516.942 729.006 518.47C729.006 518.603 729.599 520.615 729.636 520.603C729.636 521.1 729.503 521.621 729.442 522.19C729.333 523.257 729.224 524.445 729.2 525.766C729.15 527.18 729.182 528.597 729.297 530.008C729.419 531.588 729.683 533.153 730.084 534.686C729.805 534.262 729.006 533.086 728.873 533.014C727.868 531.802 725.241 530.177 723.643 530.856C723.382 530.976 723.149 531.149 722.959 531.365C722.769 531.58 722.627 531.834 722.541 532.108C722.455 532.382 722.428 532.672 722.462 532.957C722.495 533.243 722.588 533.518 722.735 533.765C723.096 534.324 723.584 534.791 724.158 535.127C724.731 535.464 725.376 535.662 726.04 535.704Z" fill="#263238"/>
<path opacity="0.3" d="M724.987 526.857C726.38 527.226 727.82 527.385 729.261 527.329C729.261 527.329 728.607 525.342 728.558 525.22C727.893 523.827 725.786 521.524 724.067 521.766C723.784 521.812 723.515 521.917 723.275 522.074C723.036 522.231 722.833 522.438 722.678 522.679C722.524 522.92 722.422 523.192 722.38 523.475C722.338 523.758 722.355 524.048 722.432 524.324C722.65 524.906 722.99 525.434 723.432 525.871C723.873 526.309 724.403 526.645 724.987 526.857Z" fill="#263238"/>
<path opacity="0.3" d="M755.677 527.511C755.677 527.511 756.234 525.499 756.246 525.366C756.464 523.839 755.98 520.76 754.418 520.009C754.158 519.89 753.875 519.828 753.589 519.826C753.303 519.823 753.019 519.881 752.757 519.996C752.495 520.11 752.259 520.278 752.066 520.489C751.872 520.7 751.725 520.949 751.634 521.221C751.497 521.827 751.493 522.456 751.62 523.065C751.747 523.673 752.004 524.247 752.372 524.748C753.331 525.827 754.445 526.759 755.677 527.511Z" fill="#263238"/>
<path opacity="0.3" d="M726.04 535.704C727.465 535.7 728.882 535.48 730.241 535.05C730.693 536.598 731.243 538.116 731.888 539.595C732.263 540.455 732.662 541.316 733.098 542.164C732.856 541.801 732.626 541.485 732.59 541.437C731.585 540.225 728.958 538.613 727.36 539.292C727.099 539.411 726.865 539.584 726.676 539.8C726.486 540.016 726.343 540.269 726.258 540.543C726.172 540.818 726.145 541.107 726.179 541.393C726.212 541.678 726.305 541.953 726.452 542.2C726.817 542.702 727.287 543.119 727.828 543.422C728.369 543.725 728.969 543.908 729.587 543.958C730.976 543.963 732.356 543.75 733.679 543.328C733.837 543.655 733.994 543.982 734.164 544.309C734.95 545.873 735.737 547.424 736.464 548.976C736.718 549.521 736.948 550.066 737.19 550.612C736.96 550.297 736.779 550.018 736.742 549.982C735.737 548.77 733.11 547.158 731.512 547.836C731.25 547.954 731.015 548.127 730.824 548.342C730.633 548.558 730.49 548.811 730.405 549.086C730.319 549.361 730.292 549.651 730.327 549.937C730.361 550.223 730.456 550.498 730.604 550.745C730.97 551.247 731.439 551.663 731.98 551.967C732.522 552.27 733.122 552.453 733.74 552.502C735.09 552.511 736.434 552.31 737.723 551.909C737.941 552.478 738.171 553.036 738.352 553.593C738.534 554.151 738.619 554.345 738.728 554.805C738.837 555.266 738.934 555.569 739.043 555.945C739.224 556.684 739.406 557.447 739.563 558.175C739.672 558.684 739.769 559.156 739.866 559.641C739.624 559.096 739.115 558.041 739.055 557.956C738.244 556.648 735.883 554.611 734.212 555.036C733.935 555.113 733.678 555.249 733.457 555.433C733.236 555.617 733.057 555.847 732.931 556.105C732.805 556.364 732.736 556.647 732.727 556.935C732.718 557.222 732.77 557.509 732.88 557.775C733.161 558.327 733.559 558.812 734.046 559.195C734.533 559.578 735.098 559.85 735.701 559.993C737.106 560.199 738.534 560.199 739.938 559.993C740.096 560.793 740.253 561.58 740.374 562.32C740.834 564.877 741.113 567.022 741.282 568.537H742.493V568.404C742.275 566.877 741.948 564.707 741.44 562.126C741.27 561.314 741.089 560.441 740.883 559.556C741.69 559.23 742.478 558.857 743.244 558.441C744.286 559.337 745.447 560.083 746.694 560.659C746.379 561.423 746.077 562.15 745.774 562.841C744.745 565.265 743.788 567.18 743.098 568.537H744.382C745.023 567.192 745.846 565.386 746.718 563.241C747.033 562.477 747.36 561.641 747.675 560.817C749.059 561.134 750.483 561.244 751.9 561.144C752.513 561.046 753.097 560.816 753.613 560.471C754.129 560.126 754.565 559.673 754.89 559.144C755.017 558.886 755.088 558.604 755.099 558.317C755.11 558.03 755.061 557.744 754.955 557.477C754.849 557.209 754.688 556.968 754.483 556.766C754.278 556.565 754.033 556.409 753.764 556.308C752.118 555.763 749.624 557.617 748.704 558.865C748.704 558.938 748.159 559.799 747.856 560.344C747.977 560.005 748.11 559.665 748.244 559.302C748.498 558.587 748.74 557.872 749.006 557.096C749.115 556.72 749.224 556.332 749.345 555.945C749.466 555.557 749.551 555.157 749.648 554.733C749.878 553.787 750.06 552.83 750.217 551.86C751.496 552.376 752.849 552.687 754.224 552.781C754.845 552.777 755.458 552.639 756.02 552.375C756.582 552.111 757.081 551.729 757.481 551.254C757.644 551.018 757.756 550.75 757.809 550.468C757.863 550.186 757.857 549.896 757.792 549.617C757.727 549.337 757.604 549.074 757.432 548.845C757.26 548.615 757.041 548.425 756.791 548.285C755.253 547.497 752.505 548.963 751.416 550.042C751.343 550.115 750.641 550.988 750.278 551.472C750.362 550.891 750.459 550.26 750.532 549.715C750.738 547.994 750.907 546.249 751.077 544.515C751.077 543.982 751.186 543.449 751.234 542.928C752.563 543.454 753.962 543.78 755.387 543.897C756.006 543.893 756.616 543.754 757.177 543.491C757.737 543.227 758.233 542.845 758.631 542.37C758.796 542.135 758.91 541.868 758.966 541.586C759.021 541.305 759.017 541.014 758.953 540.734C758.889 540.454 758.767 540.191 758.595 539.961C758.422 539.731 758.204 539.54 757.953 539.401C756.416 538.613 753.667 540.067 752.566 541.158C752.481 541.243 751.488 542.491 751.246 542.831C751.367 541.619 751.5 540.492 751.682 539.352C751.915 537.809 752.246 536.283 752.675 534.783C754.005 535.321 755.409 535.652 756.839 535.765C757.461 535.766 758.075 535.629 758.638 535.365C759.201 535.101 759.699 534.716 760.096 534.238C760.261 534.002 760.374 533.734 760.429 533.452C760.483 533.17 760.478 532.879 760.413 532.599C760.348 532.319 760.224 532.055 760.051 531.826C759.877 531.597 759.658 531.407 759.406 531.268C757.881 530.48 755.12 531.947 754.031 533.038C753.958 533.11 753.195 534.056 752.82 534.516H752.735C753.171 532.963 753.751 531.454 754.466 530.008C754.866 529.232 755.278 528.517 755.677 527.838C756.916 528.494 758.247 528.96 759.624 529.22C760.241 529.288 760.865 529.221 761.452 529.022C762.04 528.823 762.577 528.497 763.026 528.069C763.216 527.853 763.359 527.6 763.446 527.325C763.532 527.051 763.559 526.761 763.526 526.475C763.493 526.189 763.4 525.914 763.253 525.666C763.107 525.418 762.91 525.205 762.675 525.039C761.234 524.081 758.341 525.233 757.13 526.251C757.13 526.251 756.452 526.905 756.016 527.353L756.609 526.432C757.324 525.342 758.05 524.396 758.704 523.56C759.079 523.075 759.43 522.663 759.757 522.263C761.151 522.284 762.54 522.088 763.873 521.681C764.454 521.455 764.977 521.105 765.408 520.655C765.839 520.204 766.166 519.666 766.367 519.076C766.434 518.798 766.442 518.509 766.391 518.227C766.34 517.946 766.23 517.679 766.069 517.442C765.909 517.206 765.7 517.006 765.457 516.855C765.215 516.704 764.943 516.606 764.66 516.567C762.941 516.373 760.895 518.736 760.266 520.142C760.266 520.263 759.588 522.275 759.624 522.275C759.297 522.639 758.946 523.039 758.583 523.487C757.917 524.311 757.166 525.245 756.416 526.323C755.594 527.49 754.842 528.704 754.164 529.959C753.393 531.344 752.748 532.797 752.239 534.298C752.239 533.789 752.239 532.383 752.239 532.274C752.045 530.735 750.762 527.899 749.067 527.584C748.779 527.53 748.482 527.538 748.197 527.609C747.912 527.68 747.646 527.811 747.417 527.994C747.187 528.176 746.999 528.406 746.866 528.668C746.733 528.93 746.658 529.217 746.646 529.511C746.692 530.135 746.874 530.742 747.179 531.289C747.485 531.835 747.906 532.308 748.413 532.674C749.605 533.453 750.907 534.05 752.275 534.444C751.795 535.984 751.419 537.555 751.149 539.146C750.98 540.067 750.847 541.001 750.713 541.946C750.713 541.51 750.713 541.11 750.713 541.061C750.508 539.534 749.224 536.686 747.529 536.371C747.241 536.319 746.945 536.329 746.661 536.4C746.377 536.472 746.112 536.603 745.883 536.786C745.654 536.968 745.466 537.197 745.332 537.458C745.199 537.719 745.122 538.005 745.108 538.298C745.135 538.919 745.296 539.526 745.58 540.079C745.864 540.631 746.265 541.115 746.755 541.498C747.908 542.267 749.174 542.852 750.508 543.231C750.508 543.594 750.411 543.958 750.374 544.321C750.169 546.055 749.963 547.788 749.721 549.485C749.636 550.078 749.527 550.697 749.418 551.242C749.418 550.854 749.418 550.527 749.418 550.478C749.212 548.951 747.929 546.103 746.234 545.788C745.946 545.736 745.65 545.746 745.366 545.818C745.082 545.889 744.817 546.02 744.587 546.203C744.358 546.385 744.171 546.614 744.037 546.875C743.903 547.136 743.827 547.422 743.813 547.715C743.838 548.336 743.998 548.945 744.282 549.497C744.567 550.05 744.968 550.534 745.459 550.915C746.576 551.666 747.801 552.242 749.091 552.624C748.97 553.218 748.837 553.836 748.692 554.381C748.583 554.769 748.498 555.157 748.365 555.532L748.001 556.672C747.747 557.387 747.481 558.126 747.215 558.817C747.033 559.302 746.839 559.75 746.658 560.211C746.755 559.617 746.912 558.453 746.912 558.356C746.894 556.998 746.527 555.666 745.847 554.49C745.859 554.341 745.859 554.191 745.847 554.042C745.81 553.756 745.714 553.482 745.565 553.236C745.416 552.99 745.216 552.779 744.98 552.615C744.743 552.452 744.475 552.34 744.193 552.287C743.91 552.234 743.62 552.242 743.34 552.309C741.67 552.745 740.616 555.678 740.532 557.229C740.532 557.314 740.592 558.308 740.641 558.938C740.556 558.575 740.483 558.211 740.386 557.847C740.217 557.108 740.011 556.369 739.805 555.581C739.696 555.205 739.575 554.83 739.466 554.442C739.357 554.054 739.188 553.666 739.055 553.23C738.728 552.333 738.352 551.436 737.941 550.539C739.293 550.261 740.592 549.77 741.791 549.085C742.309 548.742 742.745 548.29 743.07 547.76C743.394 547.231 743.598 546.636 743.667 546.018C743.675 545.731 743.622 545.446 743.513 545.181C743.403 544.916 743.239 544.677 743.032 544.479C742.824 544.281 742.577 544.13 742.307 544.034C742.037 543.938 741.75 543.899 741.464 543.922C739.745 544.115 738.256 546.855 737.941 548.357C737.941 548.454 737.82 549.569 737.783 550.175C737.529 549.642 737.287 549.097 737.021 548.563C736.258 547.012 735.435 545.473 734.599 543.934L733.861 542.516C735.259 542.227 736.606 541.728 737.856 541.037C738.371 540.689 738.805 540.233 739.129 539.702C739.453 539.171 739.659 538.576 739.733 537.958C739.739 537.672 739.685 537.387 739.574 537.122C739.463 536.857 739.297 536.619 739.088 536.423C738.879 536.226 738.632 536.076 738.361 535.981C738.09 535.887 737.803 535.85 737.517 535.874C735.798 536.056 734.309 538.795 734.006 540.31C734.006 540.419 733.837 542.019 733.812 542.431C733.28 541.388 732.747 540.346 732.263 539.292C731.606 537.876 731.044 536.419 730.58 534.928C731.986 534.641 733.342 534.142 734.599 533.45C735.114 533.104 735.547 532.651 735.868 532.122C736.19 531.592 736.394 530.999 736.464 530.383C736.473 530.096 736.422 529.81 736.313 529.544C736.204 529.278 736.041 529.038 735.832 528.84C735.624 528.642 735.376 528.49 735.106 528.395C734.835 528.299 734.547 528.263 734.26 528.287C732.541 528.469 731.052 531.208 730.737 532.723C730.737 532.82 730.616 534.044 730.568 534.625H730.471C730.042 533.116 729.75 531.57 729.599 530.008C729.503 529.159 729.454 528.323 729.43 527.523C730.825 527.387 732.192 527.044 733.486 526.505C734.035 526.217 734.515 525.814 734.894 525.322C735.272 524.83 735.539 524.262 735.677 523.657C735.718 523.372 735.699 523.082 735.619 522.805C735.54 522.529 735.404 522.272 735.218 522.052C735.033 521.832 734.803 521.654 734.544 521.53C734.285 521.405 734.003 521.337 733.716 521.33C731.984 521.33 730.205 523.887 729.733 525.354C729.733 525.439 729.539 526.275 729.418 526.893C729.418 526.529 729.418 526.154 729.418 525.802C729.418 524.493 729.503 523.293 729.575 522.239C729.575 521.633 729.684 521.087 729.745 520.591C730.918 519.831 731.968 518.895 732.856 517.815C733.216 517.308 733.459 516.729 733.57 516.117C733.681 515.505 733.656 514.877 733.498 514.276C733.41 513.999 733.264 513.744 733.07 513.529C732.875 513.313 732.637 513.142 732.37 513.027C732.104 512.912 731.816 512.856 731.526 512.862C731.235 512.869 730.95 512.937 730.689 513.064C729.151 513.852 728.752 516.942 729.006 518.47C729.006 518.603 729.599 520.615 729.636 520.603C729.636 521.1 729.503 521.621 729.442 522.19C729.333 523.257 729.224 524.445 729.2 525.766C729.15 527.18 729.182 528.597 729.297 530.008C729.419 531.588 729.683 533.153 730.084 534.686C729.805 534.262 729.006 533.086 728.873 533.014C727.868 531.802 725.241 530.177 723.643 530.856C723.382 530.976 723.149 531.149 722.959 531.365C722.769 531.58 722.627 531.834 722.541 532.108C722.455 532.382 722.428 532.672 722.462 532.957C722.495 533.243 722.588 533.518 722.735 533.765C723.096 534.324 723.584 534.791 724.158 535.127C724.731 535.464 725.376 535.662 726.04 535.704Z" fill="#263238"/>
<path d="M703.171 208.137C703.171 274.457 646.499 328.222 576.583 328.222C506.667 328.222 449.996 274.457 449.996 208.137C449.996 141.816 506.68 45.8257 576.583 45.8257C646.487 45.8257 703.171 141.804 703.171 208.137Z" fill="#0A1929"/>
<path d="M565.82 567.434L567.83 309.363L529.5 251.514L567.794 294.201V249.769L546.91 181.812L569.537 235.831L573.46 147.513L575.627 243.673L576.499 259.356L637.419 202.719L579.102 271.549L578.23 294.201L603.472 273.294L628.715 234.958L610.906 270.919L650.47 268.943L607.831 275.451L579.973 302.467L581.717 567.374L565.82 567.434Z" fill="#787878"/>
<path d="M218.274 208.137C218.274 274.457 161.603 328.222 91.6872 328.222C21.7712 328.222 -34.888 274.457 -34.888 208.137C-34.888 141.816 21.7712 45.8257 91.6872 45.8257C161.603 45.8257 218.274 141.804 218.274 208.137Z" fill="#0A1929"/>
<path d="M80.9244 567.434L82.922 309.363L44.6044 251.514L82.8856 294.201V249.769L62.0016 181.812L84.629 235.831L88.5637 147.513L90.7187 243.673L91.5903 259.356L152.511 202.719L94.2054 271.549L93.3337 294.201L118.576 273.294L143.806 234.958L126.01 270.919L165.574 268.943L122.922 275.451L95.0771 302.467L96.8204 567.374L80.9244 567.434Z" fill="#787878"/>
<path d="M211.761 160.517V415.837H399.741V160.517H211.761ZM377.308 330.658C377.308 334.008 375.979 337.222 373.614 339.592C371.248 341.962 368.039 343.296 364.693 343.299H253.832C250.485 343.296 247.276 341.962 244.911 339.592C242.545 337.222 241.217 334.008 241.217 330.658V208.076C241.217 204.725 242.545 201.512 244.911 199.142C247.276 196.771 250.485 195.438 253.832 195.435H364.693C368.039 195.438 371.248 196.771 373.614 199.142C375.979 201.512 377.308 204.725 377.308 208.076V330.658Z" fill="#636363" stroke="#263238" stroke-miterlimit="10"/>
<path d="M260.842 235.491C260.842 235.491 261.846 243.418 261.338 245.805C260.829 248.193 260.333 251.865 260.333 251.865L277.04 262.301L278.808 252.362C278.808 252.362 270.515 246.205 266.616 242.8C264.26 240.739 262.302 238.261 260.842 235.491Z" fill="#ABABAB" stroke="#263238" stroke-miterlimit="10"/>
<path d="M293.203 226.317C293.203 226.317 296.471 227.444 294.413 228.583C292.355 229.722 285.115 229.08 285.115 229.08L285.37 227.201C285.37 227.201 291.241 225.565 293.203 226.317Z" fill="#263238" stroke="#263238" stroke-miterlimit="10"/>
<path d="M260.515 238.012C260.515 238.012 262.028 243.551 264.038 245.684C266.047 247.817 273.336 255.489 278.566 254.617C283.796 253.744 285.479 247.696 286.35 244.303C287.149 240.315 287.446 236.244 287.234 232.183C286.98 230.801 286.023 225.517 286.023 225.517L259.51 227.941C259.51 227.941 259.304 234.74 260.515 238.012Z" fill="#ABABAB" stroke="#263238" stroke-miterlimit="10"/>
<path d="M262.851 232.704C262.851 232.704 261.846 229.686 259.449 231.322C257.052 232.958 256.81 236.982 258.578 238.243C259.813 239.027 261.256 239.42 262.718 239.37" fill="#ABABAB"/>
<path d="M262.851 232.704C262.851 232.704 261.846 229.686 259.449 231.322C257.052 232.958 256.81 236.982 258.578 238.243C259.813 239.027 261.256 239.42 262.718 239.37" stroke="#263238" stroke-miterlimit="10"/>
<path d="M277.549 230.971C277.549 230.971 273.65 230.219 271.265 232.098" stroke="#263238" stroke-linecap="round" stroke-linejoin="round"/>
<path d="M286.714 230.971C286.259 230.798 285.768 230.742 285.286 230.807C284.804 230.873 284.345 231.058 283.953 231.346C283.357 232.195 282.958 233.167 282.784 234.19C282.61 235.213 282.666 236.262 282.948 237.261" stroke="#263238" stroke-linecap="round" stroke-linejoin="round"/>
<path d="M282.065 241.66C279.643 241.781 277.924 242.157 276.665 241.539C276.665 241.539 269.752 241.539 269.001 244.302C268.256 246.333 268.304 248.571 269.135 250.568C272.052 252.992 275.612 255.101 278.554 254.617C282.028 254.035 283.917 251.211 285.055 248.375C285.135 247.901 285.187 247.424 285.212 246.945C285.333 243.612 284.462 241.539 282.065 241.66ZM283.735 248.338C282.779 250.762 281.193 253.077 278.275 253.562C275.854 253.974 272.827 252.168 270.37 250.169C269.678 248.494 269.643 246.62 270.273 244.921C270.902 242.594 276.701 242.594 276.701 242.594C277.755 243.127 279.219 242.8 281.229 242.703C283.239 242.606 283.965 244.278 283.868 247.126C283.845 247.532 283.801 247.937 283.735 248.338Z" fill="#263238"/>
<path d="M272.621 244.303C272.621 244.303 277.767 246.945 282.174 244.678" stroke="#263238" stroke-linecap="round" stroke-linejoin="round"/>
<path d="M283.203 240.4C283.203 240.4 283.578 241.285 282.065 241.612C280.551 241.939 277.791 242.618 276.665 241.491C275.539 240.364 276.665 239.6 276.665 239.6" stroke="#263238" stroke-linecap="round" stroke-linejoin="round"/>
<path d="M273.65 235.867C274.205 235.867 274.655 235.248 274.655 234.485C274.655 233.722 274.205 233.104 273.65 233.104C273.095 233.104 272.646 233.722 272.646 234.485C272.646 235.248 273.095 235.867 273.65 235.867Z" fill="#263238"/>
<path d="M285.019 234.583C285.019 235.225 284.643 235.795 284.171 235.795C283.699 235.795 283.324 235.273 283.324 234.583C283.324 233.892 283.699 233.371 284.171 233.371C284.643 233.371 285.019 233.916 285.019 234.583Z" fill="#263238"/>
<path d="M269.377 236C270.643 236.088 271.878 236.431 273.009 237.006" stroke="#263238" stroke-linecap="round" stroke-linejoin="round"/>
<path d="M258.093 231.225C258.093 231.225 273.178 226.195 287.5 227.444C287.5 227.444 288.251 220.172 286.108 217.009C283.965 213.845 275.939 210.343 271.29 210.718C266.641 211.094 257.972 217.893 256.592 220.148C255.212 222.402 258.093 231.225 258.093 231.225Z" fill="white" stroke="#263238" stroke-miterlimit="10"/>
<path d="M264.147 230.086C264.147 230.086 276.834 231.601 281.362 229.335C285.89 227.068 293.469 226.814 293.3 226.317C293.13 225.82 291.665 225.105 281.617 225.808C275.597 226.258 269.694 227.704 264.147 230.086Z" fill="white" stroke="#263238" stroke-miterlimit="10"/>
<path d="M250.079 366.327L239.546 411.11H315.14L303.13 366.702L250.079 366.327Z" fill="#969696" stroke="#263238" stroke-miterlimit="10"/>
<path d="M229.933 301.024C229.933 301.024 234.001 355.782 236.41 360.594C238.82 365.406 243.977 366.145 247.306 366.145H320.685C320.685 366.145 326.593 354.498 326.411 352.268C326.23 350.037 323.82 350.425 322.343 350.425L274.292 350.05C274.292 350.05 263.796 348.086 261.459 344.171C259.122 340.257 258.396 342.281 256.737 334.136C255.079 325.991 251.193 305.836 249.159 301.206C247.125 296.576 234.001 289.922 229.933 301.024Z" fill="#263238" stroke="#263238" stroke-miterlimit="10"/>
<path d="M329.934 324.416C329.934 324.416 343.881 324.792 346.52 325.555C349.16 326.319 351.048 329.07 351.169 333.979C351.066 338.083 350.213 342.133 348.651 345.929C348.022 347.432 337.598 370.702 335.334 377.368C333.07 384.034 331.823 395.863 331.702 396.239C331.581 396.615 332.089 396.36 329.692 396.615C327.295 396.869 321.024 394.482 320.649 394.191C320.273 393.9 323.288 379.223 324.426 370.29C325.564 361.358 327.682 348.911 328.312 347.262C328.942 345.614 330.201 342.487 330.201 342.487L329.934 324.416Z" fill="#ABABAB" stroke="#263238" stroke-miterlimit="10"/>
<path d="M330.189 342.535C330.189 342.535 334.208 341.396 335.721 339.518" stroke="#263238" stroke-miterlimit="10"/>
<path d="M297.9 324.295C305.077 323.518 312.292 323.141 319.51 323.167C328.554 323.41 331.314 323.543 331.314 323.543C331.314 323.543 331.823 339.299 329.813 344.923C327.803 350.546 327.549 351.213 327.549 351.213C327.549 351.213 281.943 350.328 278.808 350.328C275.672 350.328 269.122 351.08 265.236 348.316C263.13 346.94 261.333 345.14 259.958 343.032C259.958 343.032 260.587 334.863 265.612 332.463C270.636 330.064 281.822 322.537 286.193 321.907C290.563 321.277 297.9 324.295 297.9 324.295Z" fill="white" stroke="#263238" stroke-miterlimit="10"/>
<path d="M273.021 339.639L275.031 340.269C275.031 340.269 276.544 338.887 277.452 339.384C278.128 339.887 278.686 340.532 279.086 341.275C279.3 341.164 279.536 341.107 279.776 341.107C280.017 341.107 280.253 341.164 280.466 341.275C281.074 341.545 281.707 341.756 282.355 341.905C282.355 341.905 283.989 342.16 289.522 342.535C295.055 342.911 316.024 342.281 318.409 341.905C320.794 341.529 323.566 341.154 325.201 341.651C326.487 341.921 327.82 341.879 329.087 341.529" stroke="#263238" stroke-miterlimit="10"/>
<path d="M289.098 326.307C289.098 326.307 284.462 340.523 281.314 344.668" stroke="#263238" stroke-miterlimit="10"/>
<path d="M286.084 325.555C286.084 325.555 279.558 342.911 275.539 347.565" stroke="#263238" stroke-miterlimit="10"/>
<path d="M280.684 332.718C280.684 332.718 276.29 339.517 273.42 342.28" stroke="#263238" stroke-miterlimit="10"/>
<path d="M281.689 264.301L267.161 254.108C259.631 248.824 260.89 248.327 257.742 250.848C254.594 253.369 250.829 260.907 248.699 267.949C246.568 274.991 244.8 282.032 245.43 287.692C246.059 293.352 253.469 325.555 253.844 329.07C254.039 332.784 254.982 336.42 256.616 339.76C257.67 341.749 259.382 343.308 261.459 344.172C261.459 344.172 266.302 343.032 275.285 337.748C280.739 334.537 285.246 329.937 288.348 324.416L290.866 325.931C290.866 325.931 297.016 325.798 297.646 325.798C298.275 325.798 300.406 323.919 301.278 321.531C302.149 319.144 301.907 312.344 295.37 293.983C288.832 275.621 283.263 267.949 282.936 266.943C282.567 266.041 282.15 265.159 281.689 264.301Z" fill="#0089ED" stroke="#263238" stroke-miterlimit="10"/>
<path d="M266.495 312.623C279.014 311.739 289.801 308.187 298.166 302.285C297.658 300.661 297.089 298.903 296.435 297.013C280.164 309.521 256.858 307.848 249.219 306.866C249.607 308.696 250.006 310.502 250.43 312.344C253.647 312.685 256.88 312.854 260.115 312.854C262.089 312.854 264.244 312.781 266.495 312.623Z" fill="#263238"/>
<path d="M299.413 306.49C283.529 319.822 259.982 318.513 251.483 317.519C251.907 319.507 252.294 321.349 252.633 322.973C255.055 323.216 258.154 323.41 261.713 323.41C263.723 323.41 265.878 323.41 268.13 323.192C281.157 322.258 292.343 318.453 300.818 312.114C300.467 310.49 300.007 308.635 299.413 306.49Z" fill="#263238"/>
<path d="M261.084 264.046L258.699 255.247L263.227 254.993L266.362 262.168L261.084 264.046Z" fill="#263238"/>
<path d="M333.954 392.082C333.954 392.082 332.198 391.463 331.448 392.591L329.523 395.354C329.523 395.354 319.595 390.445 318.469 391.718C317.916 392.295 317.503 392.993 317.264 393.756C317.025 394.519 316.965 395.327 317.089 396.118C317.21 398.142 316.581 408.322 317.089 409.583C317.598 410.843 319.341 410.965 320.721 410.965L347.852 411.086C349.487 411.086 353.01 411.086 353.01 408.444C353.09 407.493 352.864 406.541 352.365 405.727C351.866 404.914 351.121 404.282 350.237 403.923C349.026 403.547 342.198 399.644 338.809 397.633C335.419 395.621 334.583 392.688 333.954 392.082Z" fill="white" stroke="#263238" stroke-miterlimit="10"/>
<path d="M317.755 408.432H353.058" stroke="#263238" stroke-miterlimit="10"/>
<path d="M243.977 281.959L239.364 266.64C239.364 266.64 244.534 254.798 241.204 244.254C237.875 233.71 232.342 231.855 228.275 235.37C224.207 238.885 222.548 265.9 222.548 269.415C222.548 272.93 224.207 279.22 225.865 290.504C227.524 301.788 231.604 313.265 238.626 312.902C245.648 312.538 250.636 306.975 248.602 299.024C246.568 291.074 243.977 281.959 243.977 281.959Z" fill="#969696" stroke="#263238" stroke-miterlimit="10"/>
<path d="M258.578 353.904C257.165 350.396 255.953 346.811 254.946 343.166C252.173 334.294 247.367 331.324 242.379 333.736C237.391 336.148 236.471 344.281 240.163 354.643C240.163 354.643 242.585 366.303 249.038 368.702C255.49 371.102 317.598 368.702 317.598 368.702C317.598 368.702 319.632 368.521 321.484 364.073C323.336 359.624 322.404 361.491 322.404 361.491L264.377 359.455C264.377 359.455 260.067 359.297 258.578 353.904Z" fill="#969696" stroke="#263238" stroke-miterlimit="10"/>
<path d="M326.908 302.624L340.733 301.085L349.729 307.46L359.608 295.377L351.92 290.977L347.319 274.033L326.908 302.624Z" fill="#263238" stroke="#263238" stroke-miterlimit="10"/>
<path d="M359.608 290.759C359.608 290.759 343.579 305.921 344.462 307.012C345.346 308.102 358.99 332.064 358.99 332.064L376.545 307.46L365.528 301.788C365.528 301.788 365.746 293.886 365.746 293.001C365.553 292.4 365.225 291.852 364.788 291.398C364.351 290.943 363.816 290.594 363.224 290.378C362.632 290.162 361.999 290.084 361.372 290.15C360.745 290.216 360.142 290.424 359.608 290.759Z" fill="#263238" stroke="#263238" stroke-miterlimit="10"/>
<path d="M386.133 295.073L346.06 321.992V411.074H386.133V295.073Z" fill="#969696" stroke="#263238" stroke-miterlimit="10"/>
<path d="M318.348 315.871C317.933 315.872 317.525 315.758 317.17 315.543C316.815 315.327 316.526 315.018 316.334 314.648C316.143 314.279 316.057 313.864 316.086 313.449C316.114 313.035 316.256 312.635 316.496 312.296L351.835 262.422C352.184 261.932 352.712 261.6 353.305 261.5C353.897 261.4 354.505 261.54 354.995 261.889C355.485 262.238 355.816 262.767 355.916 263.36C356.016 263.953 355.876 264.562 355.528 265.052L320.188 314.914C319.982 315.211 319.707 315.453 319.386 315.62C319.066 315.787 318.71 315.873 318.348 315.871Z" fill="#263238" stroke="#263238" stroke-miterlimit="10"/>
<path d="M286.217 299.364L299.91 296.37C305.37 295.158 310.927 294.297 316.217 292.479C320.576 290.977 326.278 288.286 329.05 284.395C330.939 281.753 331.69 280.626 333.324 280.372C334.959 280.117 337.852 281.887 340.358 282.383C342.864 282.88 344.135 283.898 344.39 285.159C344.644 286.419 343.179 287.583 342.876 288.044C342.574 288.504 342.755 290.468 341.363 291.825C340.46 292.695 339.394 293.379 338.227 293.837C338.227 293.837 338.106 294.467 337.101 294.843C334.521 295.239 331.915 295.45 329.305 295.473C328.3 295.473 321.387 300.745 314.486 303.896C307.585 307.048 283.324 317.483 280.818 318.44C280.331 318.684 279.801 318.828 279.258 318.865C278.715 318.902 278.171 318.83 277.656 318.654C277.141 318.478 276.666 318.201 276.259 317.84C275.852 317.479 275.521 317.04 275.285 316.55C274.655 314.792 270.26 305.642 270.26 305.642L285.333 297.849L286.217 299.364Z" fill="#ABABAB" stroke="#263238" stroke-miterlimit="10"/>
<path d="M260.963 261.792C260.963 261.792 253.553 270.276 254.558 276.263C255.563 282.25 267.997 308.078 267.997 308.078L288.977 298.649C288.977 298.649 281.314 272.615 276.411 265.816C271.508 259.016 263.856 258.641 260.963 261.792Z" fill="white" stroke="#263238" stroke-miterlimit="10"/>
<path d="M582.237 422.745H411.787V503.476H582.237V422.745Z" fill="#636363" stroke="#263238" stroke-miterlimit="10"/>
<path d="M596.729 456.027C594.828 449.713 581.378 368.896 564.477 361.261C489.04 327.24 418.482 322.646 418.482 322.646L406.981 327.701V520.106L418.022 504.047V503.95C418.022 462.439 453.398 428.806 497.03 428.806C540.312 428.806 575.445 461.917 576.014 502.968H596.729C596.729 502.968 598.63 462.342 596.729 456.027Z" fill="white" stroke="#263238" stroke-miterlimit="10"/>
<path d="M597.153 458.536C579.307 423 541.184 398.457 497.03 398.457C459.948 398.457 427.115 415.776 406.981 442.368V504.895L418.022 504.046V503.949C418.022 462.438 453.398 428.805 497.03 428.805C540.312 428.805 575.445 461.917 576.014 502.968H596.729C596.729 502.968 598.291 469.371 597.153 458.536Z" fill="white" stroke="#263238" stroke-miterlimit="10"/>
<path d="M567.794 473.661C572.288 482.789 574.695 492.804 574.84 502.98H596.632C596.632 502.98 597.54 484.606 597.516 470.644H567.794V473.661Z" fill="#263238" stroke="#263238" stroke-miterlimit="10"/>
<path d="M566.983 415.194V368.242C566.989 362.506 569.271 357.008 573.325 352.955C577.38 348.903 582.876 346.628 588.605 346.632H601.802C606.756 346.632 611.507 344.661 615.011 341.154C618.514 337.647 620.482 332.89 620.482 327.93V313.75" stroke="#263238" stroke-width="4" stroke-linecap="round" stroke-linejoin="round"/>
<path d="M620.24 304.83C620.24 304.83 599.659 304.478 596.463 306.575C593.266 308.672 592.976 315.677 595.421 320.574C597.867 325.47 603.109 330.367 604.501 331.07C605.894 331.773 617.443 331.07 621.281 328.973C625.119 326.876 622.686 305.521 620.24 304.83Z" fill="#263238" stroke="#263238" stroke-miterlimit="10"/>
<path d="M604.453 331.045C608.569 330.9 614.538 330.197 617.092 328.924C620.93 327.009 618.485 307.557 616.039 306.927C616.039 306.927 602.02 306.708 595.337 307.702C593.278 310.563 593.303 316.344 595.421 320.574C597.637 324.679 600.719 328.252 604.453 331.045Z" fill="white" stroke="#263238" stroke-miterlimit="10"/>
<path d="M559.174 414.964L563.787 402.784H569.658L573.859 418.322C573.859 418.322 576.366 420.842 578.048 422.939C579.731 425.036 580.143 432.175 580.143 432.175C580.143 432.175 563.787 418.322 559.174 414.964Z" fill="#263238" stroke="#263238" stroke-miterlimit="10"/>
<path d="M579.029 431.932C576.002 431.387 568.133 430.805 572.431 440.683C577.709 452.803 579.392 460.608 588.278 459.566C591.68 459.178 594.683 458.754 597.092 458.354C592.447 448.679 586.356 439.769 579.029 431.932Z" fill="white" stroke="#263238" stroke-miterlimit="10"/>
<path d="M502.031 567.943C537.334 567.943 565.954 539.292 565.954 503.949C565.954 468.606 537.334 439.956 502.031 439.956C466.727 439.956 438.107 468.606 438.107 503.949C438.107 539.292 466.727 567.943 502.031 567.943Z" fill="#263238" stroke="#263238" stroke-miterlimit="10"/>
<path d="M511.698 544.502C534.039 539.141 547.809 516.664 542.453 494.298C537.098 471.932 514.645 458.147 492.304 463.508C469.963 468.87 456.193 491.347 461.548 513.713C466.904 536.079 489.356 549.864 511.698 544.502Z" fill="white" stroke="#263238" stroke-miterlimit="10"/>
<path d="M502.031 519.693C510.716 519.693 517.757 512.645 517.757 503.949C517.757 495.254 510.716 488.206 502.031 488.206C493.345 488.206 486.304 495.254 486.304 503.949C486.304 512.645 493.345 519.693 502.031 519.693Z" fill="#263238" stroke="#263238" stroke-miterlimit="10"/>
<path d="M502.031 484.715C503.261 484.715 504.258 483.717 504.258 482.485C504.258 481.253 503.261 480.255 502.031 480.255C500.8 480.255 499.803 481.253 499.803 482.485C499.803 483.717 500.8 484.715 502.031 484.715Z" fill="#263238" stroke="#263238" stroke-miterlimit="10"/>
<path d="M491.231 485.273C490.973 484.916 490.614 484.643 490.201 484.49C489.788 484.337 489.339 484.31 488.91 484.413C488.482 484.515 488.093 484.743 487.794 485.066C487.494 485.39 487.298 485.795 487.228 486.23C487.159 486.666 487.22 487.112 487.404 487.513C487.588 487.914 487.886 488.251 488.262 488.482C488.637 488.713 489.072 488.827 489.513 488.81C489.953 488.793 490.378 488.646 490.735 488.387C490.972 488.216 491.173 487.999 491.326 487.749C491.479 487.5 491.582 487.222 491.628 486.933C491.674 486.644 491.663 486.348 491.595 486.063C491.527 485.778 491.403 485.51 491.231 485.273Z" fill="#263238" stroke="#263238" stroke-miterlimit="10"/>
<path d="M482.321 495.199C481.902 495.064 481.452 495.058 481.029 495.179C480.606 495.3 480.228 495.545 479.943 495.881C479.659 496.217 479.48 496.63 479.429 497.068C479.379 497.506 479.459 497.949 479.66 498.341C479.861 498.733 480.174 499.057 480.558 499.271C480.943 499.485 481.382 499.581 481.821 499.546C482.26 499.51 482.678 499.346 483.024 499.073C483.369 498.799 483.626 498.43 483.762 498.011C483.852 497.731 483.886 497.437 483.863 497.144C483.839 496.851 483.758 496.566 483.625 496.305C483.491 496.044 483.307 495.812 483.083 495.622C482.859 495.432 482.6 495.288 482.321 495.199Z" fill="#263238" stroke="#263238" stroke-miterlimit="10"/>
<path d="M480.953 508.47C480.409 508.666 479.963 509.066 479.709 509.586C479.454 510.105 479.411 510.703 479.589 511.253C479.766 511.804 480.15 512.263 480.66 512.536C481.17 512.808 481.765 512.871 482.321 512.712C482.608 512.63 482.876 512.491 483.109 512.303C483.341 512.115 483.533 511.882 483.674 511.618C483.815 511.354 483.901 511.064 483.927 510.766C483.954 510.468 483.92 510.168 483.829 509.883C483.737 509.598 483.589 509.335 483.393 509.109C483.197 508.882 482.958 508.698 482.69 508.566C482.422 508.434 482.13 508.358 481.831 508.341C481.533 508.325 481.234 508.369 480.953 508.47Z" fill="#263238" stroke="#263238" stroke-miterlimit="10"/>
<path d="M487.624 520.008C487.452 520.247 487.329 520.517 487.261 520.804C487.194 521.09 487.184 521.387 487.231 521.677C487.278 521.968 487.382 522.246 487.537 522.496C487.691 522.746 487.894 522.963 488.132 523.135C488.371 523.307 488.641 523.43 488.927 523.498C489.213 523.565 489.509 523.576 489.799 523.528C490.089 523.481 490.367 523.377 490.617 523.222C490.867 523.068 491.084 522.865 491.256 522.626C491.602 522.144 491.744 521.544 491.648 520.957C491.553 520.371 491.229 519.847 490.747 519.499C490.265 519.152 489.666 519.011 489.08 519.106C488.494 519.202 487.97 519.526 487.624 520.008Z" fill="#263238" stroke="#263238" stroke-miterlimit="10"/>
<path d="M499.803 525.426C499.803 525.867 499.934 526.298 500.178 526.665C500.423 527.032 500.771 527.317 501.178 527.486C501.585 527.655 502.033 527.699 502.465 527.613C502.897 527.527 503.294 527.315 503.606 527.003C503.917 526.691 504.129 526.294 504.215 525.861C504.301 525.428 504.257 524.98 504.089 524.572C503.92 524.165 503.634 523.817 503.268 523.572C502.902 523.327 502.471 523.196 502.031 523.196C501.441 523.199 500.876 523.435 500.459 523.853C500.042 524.27 499.806 524.835 499.803 525.426Z" fill="#263238" stroke="#263238" stroke-miterlimit="10"/>
<path d="M512.842 522.626C513.1 522.984 513.46 523.257 513.873 523.411C514.287 523.564 514.738 523.591 515.167 523.488C515.596 523.385 515.985 523.156 516.284 522.832C516.583 522.507 516.78 522.1 516.848 521.664C516.916 521.227 516.853 520.78 516.667 520.379C516.481 519.979 516.18 519.642 515.803 519.413C515.425 519.184 514.989 519.072 514.548 519.092C514.107 519.111 513.682 519.262 513.326 519.524C513.091 519.695 512.891 519.912 512.739 520.161C512.587 520.41 512.486 520.686 512.441 520.974C512.396 521.263 512.408 521.557 512.477 521.84C512.546 522.124 512.67 522.391 512.842 522.626Z" fill="#263238" stroke="#263238" stroke-miterlimit="10"/>
<path d="M521.74 512.676C522.302 512.859 522.914 512.811 523.44 512.543C523.967 512.275 524.366 511.808 524.549 511.246C524.732 510.683 524.684 510.071 524.416 509.544C524.148 509.016 523.682 508.617 523.12 508.434C522.842 508.343 522.549 508.308 522.257 508.331C521.965 508.354 521.681 508.434 521.42 508.567C521.159 508.699 520.927 508.882 520.737 509.105C520.547 509.328 520.402 509.586 520.312 509.864C520.221 510.143 520.186 510.436 520.209 510.728C520.232 511.02 520.312 511.305 520.444 511.566C520.577 511.827 520.76 512.06 520.982 512.25C521.204 512.44 521.462 512.585 521.74 512.676Z" fill="#263238" stroke="#263238" stroke-miterlimit="10"/>
<path d="M523.12 499.441C523.539 499.304 523.908 499.046 524.181 498.699C524.453 498.353 524.617 497.933 524.651 497.493C524.685 497.054 524.588 496.614 524.373 496.229C524.157 495.845 523.832 495.533 523.44 495.333C523.047 495.133 522.604 495.054 522.167 495.106C521.729 495.158 521.317 495.339 520.982 495.625C520.647 495.912 520.405 496.292 520.286 496.716C520.166 497.141 520.175 497.591 520.312 498.011C520.497 498.571 520.896 499.036 521.422 499.304C521.948 499.572 522.558 499.621 523.12 499.441Z" fill="#263238" stroke="#263238" stroke-miterlimit="10"/>
<path d="M516.438 487.89C516.696 487.533 516.843 487.107 516.86 486.666C516.876 486.226 516.762 485.79 516.532 485.414C516.301 485.038 515.964 484.74 515.564 484.555C515.164 484.371 514.718 484.31 514.283 484.379C513.848 484.449 513.443 484.646 513.12 484.946C512.797 485.245 512.569 485.634 512.467 486.063C512.365 486.492 512.392 486.942 512.545 487.356C512.697 487.769 512.969 488.128 513.326 488.387C513.562 488.561 513.831 488.685 514.116 488.754C514.4 488.823 514.696 488.835 514.985 488.789C515.275 488.743 515.552 488.639 515.801 488.485C516.051 488.331 516.267 488.129 516.438 487.89Z" fill="#263238" stroke="#263238" stroke-miterlimit="10"/>
<path d="M441.437 325.507V412.189" stroke="#263238" stroke-miterlimit="10"/>
<path d="M381.075 411.214H222.793V525.612H381.075V411.214Z" fill="#969696" stroke="#263238" stroke-miterlimit="10"/>
<path d="M380.794 411.013H222.742V421.921H380.794V411.013Z" fill="white" stroke="#263238" stroke-miterlimit="10"/>
<path d="M380.794 514.018H222.742V524.926H380.794V514.018Z" fill="white" stroke="#263238" stroke-miterlimit="10"/>
<path d="M224.025 480.57H222.742V475.722H224.025C225.925 475.719 227.746 474.962 229.09 473.617C230.433 472.272 231.189 470.449 231.192 468.547V326.779C231.189 324.877 230.433 323.054 229.09 321.709C227.746 320.365 225.925 319.608 224.025 319.604V314.756C227.211 314.775 230.261 316.051 232.513 318.306C234.766 320.561 236.04 323.614 236.059 326.804V468.511C236.043 471.702 234.771 474.758 232.518 477.016C230.265 479.274 227.213 480.551 224.025 480.57Z" fill="white" stroke="#263238" stroke-miterlimit="10"/>
<path d="M380.806 481.03C377.762 481.027 374.844 479.816 372.69 477.662C370.537 475.508 369.324 472.588 369.317 469.541V354.922C369.32 352.568 370.257 350.311 371.921 348.648C373.585 346.984 375.84 346.05 378.191 346.05H385.395V350.898H378.191C377.132 350.898 376.116 351.319 375.366 352.069C374.617 352.819 374.196 353.837 374.196 354.897V469.516C374.199 471.27 374.897 472.952 376.136 474.192C377.375 475.432 379.054 476.131 380.806 476.134V481.03Z" fill="white" stroke="#263238" stroke-miterlimit="10"/>
<path d="M419.342 489.078V535.146H411.787V504.895L419.342 489.078Z" fill="#263238" stroke="#263238" stroke-miterlimit="10"/>
<path d="M-58.1207 139.246C-58.1207 139.246 409.124 137.441 418.131 139.246C427.139 141.052 427.151 147.367 427.151 154.59C427.151 161.814 421.872 168.747 421.872 168.747L430.892 314.187V369.405C430.892 369.405 416.461 392.87 416.461 401.899V520.13H387.635V180.77H221.095V525.523H195.913L183.722 503.501H-55.7236" fill="white"/>
<path d="M-58.1207 139.246C-58.1207 139.246 409.124 137.441 418.131 139.246C427.139 141.052 427.151 147.367 427.151 154.59C427.151 161.814 421.872 168.747 421.872 168.747L430.892 314.187V369.405C430.892 369.405 416.461 392.87 416.461 401.899V520.13H387.635V180.77H221.095V525.523H195.913L183.722 503.501H-55.7236" stroke="#263238" stroke-miterlimit="10"/>
<path d="M383.579 180.394C248.408 180.588 88.6 180.588 -46.801 180.394" stroke="#263238" stroke-miterlimit="10"/>
<path d="M418.131 139.246C417.562 139.125 415.25 139.028 411.436 138.943C410.422 141.496 409.904 144.219 409.911 146.967C409.911 156.808 416.255 164.783 424.076 164.783H424.306C426.028 161.656 427.002 158.171 427.151 154.602C427.151 147.367 427.151 141.052 418.131 139.246Z" fill="#263238" stroke="#263238" stroke-miterlimit="10"/>
<path d="M400.238 187.86V287.014C400.241 291.49 401.348 295.895 403.46 299.841C405.571 303.786 408.623 307.148 412.344 309.629C416.806 312.602 422.046 314.187 427.405 314.187H430.904L421.884 168.747H419.318C416.811 168.745 414.328 169.238 412.012 170.198C409.695 171.159 407.591 172.567 405.818 174.342C404.046 176.117 402.641 178.225 401.683 180.545C400.726 182.864 400.235 185.35 400.238 187.86Z" fill="#263238" stroke="#263238" stroke-miterlimit="10"/>
<path d="M389.62 171.861H381.17V525.123H389.62V171.861Z" fill="#263238" stroke="#263238" stroke-miterlimit="10"/>
<path d="M200.139 505.852V489.502H-55.7236V505.852H200.139Z" fill="#263238" stroke="#263238" stroke-miterlimit="10"/>
<path d="M200.151 414.722V398.372H-55.7115V414.722H200.151Z" fill="#263238" stroke="#263238" stroke-miterlimit="10"/>
<path d="M200.151 362.109V345.759H-55.7115V362.109H200.151Z" fill="#263238" stroke="#263238" stroke-miterlimit="10"/>
<path d="M200.139 315.132V303.097H-55.7236V315.132H200.139Z" fill="#263238" stroke="#263238" stroke-miterlimit="10"/>
<path d="M225.95 171.861H217.5V525.123H225.95V171.861Z" fill="#263238" stroke="#263238" stroke-miterlimit="10"/>
<path d="M196.858 230.68H87.0504V236.473H196.858V230.68Z" fill="white" stroke="#263238" stroke-miterlimit="10"/>
<path d="M65.9014 180.872H-68.1395C-79.7374 180.872 -89.1395 190.274 -89.1395 201.872V271.178C-89.1395 282.776 -79.7374 292.178 -68.1395 292.178H65.9014C77.4993 292.178 86.9014 282.776 86.9014 271.178V201.872C86.9014 190.274 77.4994 180.872 65.9014 180.872Z" stroke="#263238" stroke-miterlimit="10"/>
<path d="M391.267 189.072H431.751C436.906 189.072 441.928 187.438 446.098 184.406L453.628 178.927C457.632 176.013 462.455 174.444 467.406 174.443H491.619C494.801 174.443 497.852 175.708 500.102 177.961C502.352 180.213 503.617 183.268 503.617 186.454V193.653" stroke="#263238" stroke-width="4" stroke-linecap="round" stroke-linejoin="round"/>
<path d="M391.267 199.18H431.751C436.907 199.186 441.93 197.552 446.098 194.514L453.628 189.036C457.632 186.122 462.455 184.552 467.406 184.551H503.641" stroke="#263238" stroke-width="4" stroke-linecap="round" stroke-linejoin="round"/>
<path d="M503.29 194.611H501.292C500.184 194.611 499.088 194.84 498.072 195.284C497.057 195.728 496.143 196.377 495.39 197.19C494.637 198.004 494.059 198.964 493.693 200.012C493.328 201.059 493.182 202.17 493.265 203.277L497.176 254.968H510.881C510.881 254.968 515.275 237.37 514.888 206.101C514.853 203.043 513.616 200.123 511.445 197.972C509.274 195.821 506.344 194.614 503.29 194.611Z" fill="#263238" stroke="#263238" stroke-width="4" stroke-linecap="round" stroke-linejoin="round"/>
<path d="M421.872 140.495V168.746C421.872 168.746 427.151 161.802 427.151 154.59C427.151 148.554 427.127 143.161 421.872 140.495Z" fill="white" stroke="#263238" stroke-miterlimit="10"/>
<path d="M698.001 567.943H-60.7963" stroke="#263238" stroke-miterlimit="10"/>
<path d="M795.085 567.943H711.633" stroke="#263238" stroke-miterlimit="10"/>
<path fill-rule="evenodd" clip-rule="evenodd" d="M69.6286 435.58C69.2561 436.107 68.9335 436.668 68.6651 437.256C67.2676 436.212 65.7556 435.335 64.1594 434.645V428.642C66.433 429.401 68.5987 430.461 70.6009 431.793C70.5924 431.866 70.5945 431.94 70.6072 432.013C70.6464 432.222 70.772 432.378 70.9525 432.539C71.2149 432.773 71.5899 433.034 71.9314 433.241C71.0444 433.889 70.2667 434.679 69.6286 435.58ZM41.1293 451.953C40.758 453.843 40.7385 455.787 41.0716 457.684C41.4693 459.938 42.3541 462.075 43.6623 463.94L39.6899 467.741C37.0156 464.339 35.4855 460.162 35.3719 455.812C35.2413 450.813 36.9918 445.968 40.2081 442.188L45.1017 448.211L54.7167 434.761V461.894H49.1895V451.953L45.1017 457.216L41.1293 451.953ZM46.8867 475.923V481.772C35.8252 477.891 27.8771 466.947 28.2326 454.468C28.337 450.762 29.1744 447.115 30.6948 443.745C31.2783 444.112 31.8783 444.451 32.4929 444.761C33.5857 445.311 34.6565 445.68 35.545 445.898C34.505 448.118 33.8429 450.502 33.5866 452.947C32.5613 462.8 38.322 472.061 46.8867 475.923ZM72.7378 465.344C72.4422 466.129 72.0557 466.874 71.5864 467.566C71.0362 468.376 70.3773 469.104 69.6289 469.73L61.9137 461.894V474.232C60.2224 475.125 58.3499 475.605 56.4442 475.636V432.89C51.1892 432.694 46.2144 434.458 42.2465 437.531C41.8666 436.743 41.4155 435.992 40.899 435.287C40.2197 434.362 39.5177 433.618 38.9579 433.156C43.7278 429.389 49.7178 427.173 56.1563 427.276C58.1331 427.308 60.0591 427.557 61.9137 428V448.912C64.4852 446.281 67.0569 443.649 69.6289 441.018C70.8229 442.33 71.8838 443.76 72.7955 445.287L63.1228 455.52L72.7378 465.344ZM83.216 455.812C82.9173 471.456 69.6345 484.03 54.3139 483.237C52.5853 483.148 50.8692 482.889 49.1895 482.465V463.473H54.7167V477.797L54.7741 477.799C66.5402 478.286 77.0308 468.941 77.803 456.807C78.0535 452.895 77.2626 449.15 75.6891 445.831C76.7465 445.411 77.7087 445.118 78.6674 444.585C79.3292 444.217 79.9484 443.775 80.5133 443.267C82.3212 447.081 83.3013 451.35 83.216 455.812Z" fill="url(#paint0_linear_68_18139)" stroke="#009FE3" stroke-width="1.185" stroke-miterlimit="10"/>
<path d="M36.1487 432.473C36.4365 431.395 36.5067 430.27 36.3551 429.164C36.6677 428.961 37.0217 428.866 37.3658 428.931C37.5392 428.963 37.9872 429.2 38.3483 429.705C38.7959 430.332 39.0163 431.107 39.0392 431.927C37.7388 433.008 37.0609 433.142 36.1487 432.473ZM34.4889 435.107L39.5164 438.815C39.4578 438.293 34.7759 434.914 34.4889 435.107ZM33.281 436.607C33.1566 436.864 33.2831 436.963 33.4121 437.059C34.9079 438.165 36.4033 439.271 37.8982 440.377C38.0074 440.458 38.1115 440.548 38.3516 440.383C36.6347 439.104 34.9657 437.861 33.281 436.607ZM36.9833 442.635L31.9654 438.907C32.0772 439.516 36.7647 442.865 36.9833 442.635ZM40.1785 439.063C40.3831 439.572 40.4569 440.077 40.1386 440.557C39.8209 441.037 39.3977 441.283 38.8004 441.124C39.1445 442.713 38.6419 443.507 37.2742 443.597C36.8384 444.636 36.1811 445.011 35.1189 444.749C33.7744 444.417 32.4791 443.934 31.3377 443.119C30.3526 442.415 29.6191 441.483 29.987 440.202C30.7577 437.52 32.1947 435.235 34.3226 433.436C34.8515 432.989 35.4616 432.626 36.2049 432.844C38.646 433.558 40.066 435.396 41.1086 437.585C41.4489 438.3 40.9343 439.038 40.1785 439.063ZM74.3165 430.749C74.3474 431.332 74.4387 431.908 74.5889 432.473C73.677 433.142 72.9991 433.008 71.6983 431.927C71.7215 431.108 71.9414 430.333 72.3896 429.706C72.7501 429.2 73.1981 428.963 73.3715 428.931C73.7162 428.866 74.0705 428.962 74.3825 429.164C74.3108 429.689 74.2887 430.22 74.3165 430.749ZM73.7552 442.635C73.9729 442.865 78.6607 439.516 78.7731 438.907C77.1015 440.149 75.4301 441.39 73.7552 442.635ZM77.4569 436.607C75.7725 437.861 74.1038 439.104 72.3866 440.383C72.6264 440.548 72.7302 440.458 72.8396 440.377C74.3344 439.271 75.8297 438.165 77.3254 437.059C77.4542 436.963 77.5816 436.864 77.4569 436.607ZM71.2218 438.815L76.2493 435.107C75.9622 434.914 71.2801 438.293 71.2218 438.815ZM79.4007 443.119C78.2585 443.934 76.9635 444.417 75.6193 444.749C74.5568 445.011 73.8995 444.636 73.464 443.597C72.0957 443.507 71.5939 442.713 71.9378 441.124C71.3402 441.283 70.9166 441.037 70.599 440.557C70.2807 440.077 70.3548 439.572 70.5594 439.063C69.8039 439.038 69.289 438.3 69.6293 437.585C70.6725 435.396 72.0913 433.558 74.5333 432.844C75.276 432.626 75.8864 432.989 76.4147 433.436C78.5426 435.234 79.9799 437.52 80.75 440.202C81.1188 441.483 80.3859 442.415 79.4007 443.119Z" fill="url(#paint1_linear_68_18139)" stroke="#1D1D1B" stroke-width="1.146" stroke-miterlimit="10"/>
<path d="M107.9 441.468H112.2L119.391 461.269L126.563 441.468H130.881L121.107 467.773H117.656L107.9 441.468ZM105.732 441.468H109.942L110.701 459.661V467.773H105.732V441.468ZM128.821 441.468H133.049V467.773H128.08V459.661L128.821 441.468ZM143.076 441.468V467.773H138.107V441.468H143.076ZM158.866 441.468L148.315 454.295L142.281 460.745L141.395 455.921L145.587 450.483L152.777 441.468H158.866ZM153.337 467.773L145.153 455.452L148.712 452.236L159.245 467.773H153.337ZM169.416 467.773H163.744L163.78 463.871H169.416C170.946 463.871 172.229 463.533 173.265 462.859C174.3 462.172 175.083 461.191 175.613 459.914C176.143 458.625 176.408 457.084 176.408 455.289V453.934C176.408 452.549 176.258 451.326 175.956 450.267C175.655 449.207 175.21 448.315 174.62 447.593C174.041 446.87 173.325 446.322 172.47 445.949C171.614 445.575 170.633 445.389 169.525 445.389H163.635V441.468H169.525C171.283 441.468 172.885 441.763 174.33 442.354C175.788 442.944 177.046 443.793 178.106 444.901C179.178 445.997 179.997 447.31 180.563 448.839C181.142 450.369 181.431 452.079 181.431 453.97V455.289C181.431 457.168 181.142 458.878 180.563 460.42C179.997 461.95 179.178 463.262 178.106 464.358C177.046 465.454 175.782 466.298 174.312 466.888C172.843 467.478 171.211 467.773 169.416 467.773ZM166.526 441.468V467.773H161.558V441.468H166.526Z" fill="#0089ED"/>
<defs>
<linearGradient id="paint0_linear_68_18139" x1="55.7211" y1="483.273" x2="55.7211" y2="427.273" gradientUnits="userSpaceOnUse">
<stop stop-color="#575756"/>
<stop offset="0.482" stop-color="white"/>
<stop offset="0.536" stop-color="#F6F6F6"/>
<stop offset="0.634" stop-color="#DEDEDE"/>
<stop offset="0.766" stop-color="#B4B4B4"/>
<stop offset="0.925" stop-color="#747473"/>
<stop offset="0.986" stop-color="#575756"/>
</linearGradient>
<linearGradient id="paint1_linear_68_18139" x1="55.3688" y1="444.83" x2="55.3688" y2="428.911" gradientUnits="userSpaceOnUse">
<stop stop-color="#BE1622"/>
<stop offset="0.448" stop-color="#E94E1B"/>
<stop offset="0.606" stop-color="#ED6B14"/>
<stop offset="0.814" stop-color="#F18700"/>
<stop offset="0.927" stop-color="#F39200"/>
</linearGradient>
</defs>
</svg>
