<svg width="1060" height="783" viewBox="0 0 1060 783" fill="none" xmlns="http://www.w3.org/2000/svg">
<g opacity="0.8">
<path d="M990.361 553.901H944.324V554.249H990.361V553.901Z" fill="#EBEBEB"/>
<path d="M825.396 557.682H813.317V558.029H825.396V557.682Z" fill="#EBEBEB"/>
<path d="M942.934 541.002H916.26V541.349H942.934V541.002Z" fill="#EBEBEB"/>
<path d="M497.954 543.337H437.919V543.685H497.954V543.337Z" fill="#EBEBEB"/>
<path d="M519.137 543.337H510.339V543.685H519.137V543.337Z" fill="#EBEBEB"/>
<path d="M677.959 549.203H547.743V549.55H677.959V549.203Z" fill="#EBEBEB"/>
<path d="M1060 531.536H365V531.884H1060V531.536Z" fill="#EBEBEB"/>
<path d="M706.718 275.887H725.163V257.442H706.718V275.887Z" fill="#FAFAFA"/>
<path d="M685.84 275.887H704.285V257.442H685.84V275.887Z" fill="#F0F0F0"/>
<path d="M664.962 275.887H683.407V257.442H664.962V275.887Z" fill="#FAFAFA"/>
<path d="M706.718 296.501H725.163V278.056H706.718V296.501Z" fill="#FAFAFA"/>
<path d="M685.84 296.501H704.285V278.056H685.84V296.501Z" fill="#FAFAFA"/>
<path d="M664.962 296.501H683.407V278.056H664.962V296.501Z" fill="#FAFAFA"/>
<path d="M706.718 317.101H725.163V298.655H706.718V317.101Z" fill="#FAFAFA"/>
<path d="M685.84 317.101H704.285V298.655H685.84V317.101Z" fill="#F0F0F0"/>
<path d="M664.962 317.101H683.407V298.655H664.962V317.101Z" fill="#FAFAFA"/>
<path d="M706.718 337.701H725.163V319.255H706.718V337.701Z" fill="#F0F0F0"/>
<path d="M685.84 337.701H704.285V319.255H685.84V337.701Z" fill="#FAFAFA"/>
<path d="M664.962 337.701H683.407V319.255H664.962V337.701Z" fill="#FAFAFA"/>
<path d="M706.718 358.3H725.163V339.855H706.718V358.3Z" fill="#FAFAFA"/>
<path d="M685.84 358.3H704.285V339.855H685.84V358.3Z" fill="#FAFAFA"/>
<path d="M664.962 358.3H683.407V339.855H664.962V358.3Z" fill="#F0F0F0"/>
<path d="M706.718 378.9H725.163V360.455H706.718V378.9Z" fill="#FAFAFA"/>
<path d="M685.84 378.9H704.285V360.455H685.84V378.9Z" fill="#F0F0F0"/>
<path d="M664.962 378.9H683.407V360.455H664.962V378.9Z" fill="#FAFAFA"/>
<path d="M706.718 399.5H725.163V381.055H706.718V399.5Z" fill="#F0F0F0"/>
<path d="M685.84 399.5H704.285V381.055H685.84V399.5Z" fill="#F0F0F0"/>
<path d="M664.962 399.5H683.407V381.055H664.962V399.5Z" fill="#FAFAFA"/>
<path d="M706.718 420.1H725.163V401.654H706.718V420.1Z" fill="#FAFAFA"/>
<path d="M685.84 420.1H704.285V401.654H685.84V420.1Z" fill="#F0F0F0"/>
<path d="M664.962 420.1H683.407V401.654H664.962V420.1Z" fill="#FAFAFA"/>
<path d="M706.718 440.713H725.163V422.268H706.718V440.713Z" fill="#FAFAFA"/>
<path d="M685.84 440.713H704.285V422.268H685.84V440.713Z" fill="#FAFAFA"/>
<path d="M664.962 440.713H683.407V422.268H664.962V440.713Z" fill="#FAFAFA"/>
<path d="M706.718 461.313H725.163V442.868H706.718V461.313Z" fill="#F0F0F0"/>
<path d="M685.84 461.313H704.285V442.868H685.84V461.313Z" fill="#FAFAFA"/>
<path d="M664.962 461.313H683.407V442.868H664.962V461.313Z" fill="#F0F0F0"/>
<path d="M706.718 481.913H725.163V463.468H706.718V481.913Z" fill="#FAFAFA"/>
<path d="M685.84 481.913H704.285V463.468H685.84V481.913Z" fill="#F0F0F0"/>
<path d="M664.962 481.913H683.407V463.468H664.962V481.913Z" fill="#FAFAFA"/>
<path d="M706.718 502.499H725.163V484.054H706.718V502.499Z" fill="#F0F0F0"/>
<path d="M685.84 502.499H704.285V484.054H685.84V502.499Z" fill="#FAFAFA"/>
<path d="M664.962 502.499H683.407V484.054H664.962V502.499Z" fill="#FAFAFA"/>
<path d="M935.317 324.495H950.246V309.567H935.317V324.495Z" fill="#FAFAFA"/>
<path d="M918.415 324.495H933.343V309.567H918.415V324.495Z" fill="#F0F0F0"/>
<path d="M901.512 324.495H916.441V309.567H901.512V324.495Z" fill="#FAFAFA"/>
<path d="M935.317 341.176H950.246V326.247H935.317V341.176Z" fill="#FAFAFA"/>
<path d="M918.415 341.176H933.343V326.247H918.415V341.176Z" fill="#FAFAFA"/>
<path d="M901.512 341.176H916.441V326.247H901.512V341.176Z" fill="#FAFAFA"/>
<path d="M935.317 357.856H950.246V342.927H935.317V357.856Z" fill="#FAFAFA"/>
<path d="M918.415 357.856H933.343V342.927H918.415V357.856Z" fill="#F0F0F0"/>
<path d="M901.512 357.856H916.441V342.927H901.512V357.856Z" fill="#FAFAFA"/>
<path d="M935.317 374.535H950.246V359.607H935.317V374.535Z" fill="#F0F0F0"/>
<path d="M918.415 374.535H933.343V359.607H918.415V374.535Z" fill="#FAFAFA"/>
<path d="M901.512 374.535H916.441V359.607H901.512V374.535Z" fill="#FAFAFA"/>
<path d="M935.317 391.202H950.246V376.273H935.317V391.202Z" fill="#FAFAFA"/>
<path d="M918.415 391.202H933.343V376.273H918.415V391.202Z" fill="#FAFAFA"/>
<path d="M901.512 391.202H916.441V376.273H901.512V391.202Z" fill="#F0F0F0"/>
<path d="M935.317 407.868H950.246V392.939H935.317V407.868Z" fill="#FAFAFA"/>
<path d="M918.415 407.868H933.343V392.939H918.415V407.868Z" fill="#F0F0F0"/>
<path d="M901.512 407.868H916.441V392.939H901.512V407.868Z" fill="#FAFAFA"/>
<path d="M935.317 424.562H950.246V409.633H935.317V424.562Z" fill="#F0F0F0"/>
<path d="M918.415 424.562H933.343V409.633H918.415V424.562Z" fill="#F0F0F0"/>
<path d="M901.512 424.562H916.441V409.633H901.512V424.562Z" fill="#FAFAFA"/>
<path d="M935.317 441.228H950.246V426.299H935.317V441.228Z" fill="#FAFAFA"/>
<path d="M918.415 441.228H933.343V426.299H918.415V441.228Z" fill="#F0F0F0"/>
<path d="M901.512 441.228H916.441V426.299H901.512V441.228Z" fill="#FAFAFA"/>
<path d="M935.317 457.908H950.246V442.979H935.317V457.908Z" fill="#FAFAFA"/>
<path d="M918.415 457.908H933.343V442.979H918.415V457.908Z" fill="#FAFAFA"/>
<path d="M901.512 457.908H916.441V442.979H901.512V457.908Z" fill="#FAFAFA"/>
<path d="M935.317 474.574H950.246V459.645H935.317V474.574Z" fill="#F0F0F0"/>
<path d="M918.415 474.574H933.343V459.645H918.415V474.574Z" fill="#FAFAFA"/>
<path d="M901.512 474.574H916.441V459.645H901.512V474.574Z" fill="#F0F0F0"/>
<path d="M935.317 491.268H950.246V476.339H935.317V491.268Z" fill="#FAFAFA"/>
<path d="M918.415 491.268H933.343V476.339H918.415V491.268Z" fill="#F0F0F0"/>
<path d="M901.512 491.268H916.441V476.339H901.512V491.268Z" fill="#FAFAFA"/>
<path d="M935.317 507.934H950.246V493.005H935.317V507.934Z" fill="#F0F0F0"/>
<path d="M918.415 507.934H933.343V493.005H918.415V507.934Z" fill="#FAFAFA"/>
<path d="M901.512 507.934H916.441V493.005H901.512V507.934Z" fill="#FAFAFA"/>
<path d="M855.031 282.434H846.065V291.4H855.031V282.434Z" fill="#FAFAFA"/>
<path d="M842.507 295.973H833.541V304.938H842.507V295.973Z" fill="#FAFAFA"/>
<path d="M842.507 309.497H833.541V318.463H842.507V309.497Z" fill="#FAFAFA"/>
<path d="M855.031 309.497H846.065V318.463H855.031V309.497Z" fill="#FAFAFA"/>
<path d="M867.555 309.497H858.589V318.463H867.555V309.497Z" fill="#FAFAFA"/>
<path d="M842.507 336.547H833.541V345.512H842.507V336.547Z" fill="#FAFAFA"/>
<path d="M867.555 336.547H858.589V345.512H867.555V336.547Z" fill="#FAFAFA"/>
<path d="M855.031 350.085H846.065V359.051H855.031V350.085Z" fill="#FAFAFA"/>
<path d="M842.507 363.61H833.541V372.576H842.507V363.61Z" fill="#FAFAFA"/>
<path d="M867.555 363.61H858.589V372.576H867.555V363.61Z" fill="#FAFAFA"/>
<path d="M880.092 363.61H871.127V372.576H880.092V363.61Z" fill="#FAFAFA"/>
<path d="M855.031 377.135H846.065V386.1H855.031V377.135Z" fill="#FAFAFA"/>
<path d="M842.507 390.66H833.541V399.625H842.507V390.66Z" fill="#FAFAFA"/>
<path d="M855.031 390.66H846.065V399.625H855.031V390.66Z" fill="#FAFAFA"/>
<path d="M880.092 390.66H871.127V399.625H880.092V390.66Z" fill="#FAFAFA"/>
<path d="M842.585 403.971L833.62 403.843L833.492 412.807L842.457 412.936L842.585 403.971Z" fill="#FAFAFA"/>
<path d="M867.625 404.343L858.66 404.215L858.532 413.179L867.497 413.308L867.625 404.343Z" fill="#FAFAFA"/>
<path d="M880.159 404.523L871.194 404.394L871.066 413.359L880.031 413.487L880.159 404.523Z" fill="#FAFAFA"/>
<path d="M855.031 417.723H846.065V426.688H855.031V417.723Z" fill="#FAFAFA"/>
<path d="M871.127 438.99H880.092V430.024H871.127V438.99Z" fill="#FAFAFA"/>
<path d="M846.079 438.99H855.045V430.024H846.079V438.99Z" fill="#FAFAFA"/>
<path d="M833.541 438.99H842.507V430.024H833.541V438.99Z" fill="#FAFAFA"/>
<path d="M858.589 452.515H867.555V443.549H858.589V452.515Z" fill="#FAFAFA"/>
<path d="M871.127 466.039H880.092V457.074H871.127V466.039Z" fill="#FAFAFA"/>
<path d="M858.589 466.039H867.555V457.074H858.589V466.039Z" fill="#FAFAFA"/>
<path d="M833.541 466.039H842.507V457.074H833.541V466.039Z" fill="#FAFAFA"/>
<path d="M871.19 479.339L880.155 479.21L880.026 470.246L871.062 470.374L871.19 479.339Z" fill="#FAFAFA"/>
<path d="M846.163 479.703L855.127 479.575L854.999 470.61L846.034 470.738L846.163 479.703Z" fill="#FAFAFA"/>
<path d="M833.621 479.899L842.585 479.771L842.457 470.806L833.493 470.934L833.621 479.899Z" fill="#FAFAFA"/>
<path d="M858.589 493.102H867.555V484.137H858.589V493.102Z" fill="#FAFAFA"/>
<path d="M775.759 248.921H764.792V259.888H775.759V248.921Z" fill="#FAFAFA"/>
<path d="M791.077 248.921H780.11V259.888H791.077V248.921Z" fill="#FAFAFA"/>
<path d="M760.441 265.476H749.474V276.443H760.441V265.476Z" fill="#FAFAFA"/>
<path d="M775.759 265.476H764.792V276.443H775.759V265.476Z" fill="#FAFAFA"/>
<path d="M806.395 265.476H795.427V276.443H806.395V265.476Z" fill="#FAFAFA"/>
<path d="M760.441 282.017H749.474V292.984H760.441V282.017Z" fill="#FAFAFA"/>
<path d="M791.077 282.017H780.11V292.984H791.077V282.017Z" fill="#FAFAFA"/>
<path d="M806.395 282.017H795.427V292.984H806.395V282.017Z" fill="#FAFAFA"/>
<path d="M760.441 315.099H749.474V326.066H760.441V315.099Z" fill="#FAFAFA"/>
<path d="M791.077 315.099H780.11V326.066H791.077V315.099Z" fill="#FAFAFA"/>
<path d="M760.441 331.64H749.474V342.607H760.441V331.64Z" fill="#FAFAFA"/>
<path d="M775.759 331.64H764.792V342.607H775.759V331.64Z" fill="#FAFAFA"/>
<path d="M806.395 331.64H795.427V342.607H806.395V331.64Z" fill="#FAFAFA"/>
<path d="M760.441 414.248H749.474V425.215H760.441V414.248Z" fill="#FAFAFA"/>
<path d="M775.759 414.248H764.792V425.215H775.759V414.248Z" fill="#FAFAFA"/>
<path d="M806.395 414.248H795.427V425.215H806.395V414.248Z" fill="#FAFAFA"/>
<path d="M760.441 430.789H749.474V441.756H760.441V430.789Z" fill="#FAFAFA"/>
<path d="M791.077 430.789H780.11V441.756H791.077V430.789Z" fill="#FAFAFA"/>
<path d="M806.395 430.789H795.427V441.756H806.395V430.789Z" fill="#FAFAFA"/>
<path d="M760.441 463.885H749.474V474.852H760.441V463.885Z" fill="#FAFAFA"/>
<path d="M791.077 463.885H780.11V474.852H791.077V463.885Z" fill="#FAFAFA"/>
<path d="M760.441 480.426H749.474V491.393H760.441V480.426Z" fill="#FAFAFA"/>
<path d="M775.759 480.426H764.792V491.393H775.759V480.426Z" fill="#FAFAFA"/>
<path d="M806.395 480.426H795.427V491.393H806.395V480.426Z" fill="#FAFAFA"/>
<path d="M806.395 348.181H795.427V359.148H806.395V348.181Z" fill="#FAFAFA"/>
<path d="M760.441 364.736H749.474V375.703H760.441V364.736Z" fill="#FAFAFA"/>
<path d="M775.759 364.736H764.792V375.703H775.759V364.736Z" fill="#FAFAFA"/>
<path d="M791.163 381.456L780.197 381.299L780.04 392.265L791.006 392.422L791.163 381.456Z" fill="#FAFAFA"/>
<path d="M806.476 381.689L795.51 381.532L795.353 392.498L806.319 392.655L806.476 381.689Z" fill="#FAFAFA"/>
<path d="M760.441 397.818H749.474V408.785H760.441V397.818Z" fill="#FAFAFA"/>
<path d="M606.679 283.894H624.541V266.032H606.679V283.894Z" fill="#FAFAFA"/>
<path d="M586.441 283.894H604.303V266.032H586.441V283.894Z" fill="#F0F0F0"/>
<path d="M566.216 283.894H584.078V266.032H566.216V283.894Z" fill="#FAFAFA"/>
<path d="M606.679 303.854H624.541V285.993H606.679V303.854Z" fill="#FAFAFA"/>
<path d="M586.441 303.854H604.303V285.993H586.441V303.854Z" fill="#FAFAFA"/>
<path d="M566.216 303.854H584.078V285.993H566.216V303.854Z" fill="#FAFAFA"/>
<path d="M606.679 323.8H624.541V305.939H606.679V323.8Z" fill="#FAFAFA"/>
<path d="M586.441 323.8H604.303V305.939H586.441V323.8Z" fill="#F0F0F0"/>
<path d="M566.216 323.8H584.078V305.939H566.216V323.8Z" fill="#FAFAFA"/>
<path d="M606.679 343.761H624.541V325.899H606.679V343.761Z" fill="#F0F0F0"/>
<path d="M586.441 343.761H604.303V325.899H586.441V343.761Z" fill="#FAFAFA"/>
<path d="M566.216 343.761H584.078V325.899H566.216V343.761Z" fill="#FAFAFA"/>
<path d="M606.679 363.721H624.541V345.86H606.679V363.721Z" fill="#FAFAFA"/>
<path d="M586.441 363.721H604.303V345.86H586.441V363.721Z" fill="#FAFAFA"/>
<path d="M566.216 363.721H584.078V345.86H566.216V363.721Z" fill="#F0F0F0"/>
<path d="M606.679 383.668H624.541V365.806H606.679V383.668Z" fill="#FAFAFA"/>
<path d="M586.441 383.668H604.303V365.806H586.441V383.668Z" fill="#F0F0F0"/>
<path d="M566.216 383.668H584.078V365.806H566.216V383.668Z" fill="#FAFAFA"/>
<path d="M606.679 403.628H624.541V385.767H606.679V403.628Z" fill="#F0F0F0"/>
<path d="M586.441 403.628H604.303V385.767H586.441V403.628Z" fill="#F0F0F0"/>
<path d="M566.216 403.628H584.078V385.767H566.216V403.628Z" fill="#FAFAFA"/>
<path d="M606.679 423.575H624.541V405.713H606.679V423.575Z" fill="#FAFAFA"/>
<path d="M586.441 423.575H604.303V405.713H586.441V423.575Z" fill="#F0F0F0"/>
<path d="M566.216 423.575H584.078V405.713H566.216V423.575Z" fill="#FAFAFA"/>
<path d="M606.679 443.521H624.541V425.66H606.679V443.521Z" fill="#FAFAFA"/>
<path d="M586.441 443.521H604.303V425.66H586.441V443.521Z" fill="#FAFAFA"/>
<path d="M566.216 443.521H584.078V425.66H566.216V443.521Z" fill="#FAFAFA"/>
<path d="M606.679 463.495H624.541V445.634H606.679V463.495Z" fill="#F0F0F0"/>
<path d="M586.441 463.495H604.303V445.634H586.441V463.495Z" fill="#FAFAFA"/>
<path d="M566.216 463.495H584.078V445.634H566.216V463.495Z" fill="#F0F0F0"/>
<path d="M606.679 483.442H624.541V465.581H606.679V483.442Z" fill="#FAFAFA"/>
<path d="M586.441 483.442H604.303V465.581H586.441V483.442Z" fill="#F0F0F0"/>
<path d="M566.216 483.442H584.078V465.581H566.216V483.442Z" fill="#FAFAFA"/>
<path d="M606.679 503.402H624.541V485.541H606.679V503.402Z" fill="#F0F0F0"/>
<path d="M586.441 503.402H604.303V485.541H586.441V503.402Z" fill="#FAFAFA"/>
<path d="M566.216 503.402H584.078V485.541H566.216V503.402Z" fill="#FAFAFA"/>
<path d="M508.643 267.547H499.135V277.055H508.643V267.547Z" fill="#FAFAFA"/>
<path d="M495.368 281.892H485.861V291.4H495.368V281.892Z" fill="#FAFAFA"/>
<path d="M495.368 296.223H485.861V305.73H495.368V296.223Z" fill="#FAFAFA"/>
<path d="M508.643 296.223H499.135V305.73H508.643V296.223Z" fill="#FAFAFA"/>
<path d="M521.917 296.223H512.41V305.73H521.917V296.223Z" fill="#FAFAFA"/>
<path d="M495.368 324.899H485.861V334.406H495.368V324.899Z" fill="#FAFAFA"/>
<path d="M521.917 324.899H512.41V334.406H521.917V324.899Z" fill="#FAFAFA"/>
<path d="M508.643 339.243H499.135V348.751H508.643V339.243Z" fill="#FAFAFA"/>
<path d="M495.368 353.574H485.861V363.082H495.368V353.574Z" fill="#FAFAFA"/>
<path d="M521.917 353.574H512.41V363.082H521.917V353.574Z" fill="#FAFAFA"/>
<path d="M535.192 353.574H525.684V363.082H535.192V353.574Z" fill="#FAFAFA"/>
<path d="M508.643 367.919H499.135V377.427H508.643V367.919Z" fill="#FAFAFA"/>
<path d="M495.368 382.25H485.861V391.758H495.368V382.25Z" fill="#FAFAFA"/>
<path d="M508.643 382.25H499.135V391.758H508.643V382.25Z" fill="#FAFAFA"/>
<path d="M535.192 382.25H525.684V391.758H535.192V382.25Z" fill="#FAFAFA"/>
<path d="M495.452 396.363L485.945 396.227L485.809 405.733L495.316 405.869L495.452 396.363Z" fill="#FAFAFA"/>
<path d="M521.993 396.757L512.486 396.62L512.35 406.127L521.856 406.263L521.993 396.757Z" fill="#FAFAFA"/>
<path d="M535.277 396.946L525.77 396.81L525.634 406.317L535.141 406.453L535.277 396.946Z" fill="#FAFAFA"/>
<path d="M508.643 410.94H499.135V420.447H508.643V410.94Z" fill="#FAFAFA"/>
<path d="M525.698 433.471H535.206V423.964H525.698V433.471Z" fill="#FAFAFA"/>
<path d="M499.135 433.471H508.643V423.964H499.135V433.471Z" fill="#FAFAFA"/>
<path d="M485.847 433.471H495.354V423.964H485.847V433.471Z" fill="#FAFAFA"/>
<path d="M512.41 447.802H521.917V438.295H512.41V447.802Z" fill="#FAFAFA"/>
<path d="M525.698 462.147H535.206V452.64H525.698V462.147Z" fill="#FAFAFA"/>
<path d="M512.41 462.147H521.917V452.64H512.41V462.147Z" fill="#FAFAFA"/>
<path d="M485.847 462.147H495.354V452.64H485.847V462.147Z" fill="#FAFAFA"/>
<path d="M525.778 476.265L535.285 476.129L535.149 466.622L525.642 466.758L525.778 476.265Z" fill="#FAFAFA"/>
<path d="M499.221 476.649L508.728 476.513L508.591 467.007L499.085 467.143L499.221 476.649Z" fill="#FAFAFA"/>
<path d="M485.928 476.835L495.435 476.699L495.299 467.192L485.792 467.328L485.928 476.835Z" fill="#FAFAFA"/>
<path d="M512.41 490.823H521.917V481.315H512.41V490.823Z" fill="#FAFAFA"/>
<path d="M435.779 521.987H488.516C489.935 521.987 491.296 522.551 492.3 523.554C493.303 524.558 493.867 525.919 493.867 527.338V532.648H430.441V527.338C430.441 525.921 431.003 524.562 432.004 523.559C433.004 522.556 434.362 521.99 435.779 521.987Z" fill="#EBEBEB"/>
<path d="M498.371 521.987H551.107C552.527 521.987 553.888 522.551 554.891 523.554C555.895 524.558 556.459 525.919 556.459 527.338V532.648H493.019V527.338C493.019 526.635 493.158 525.94 493.426 525.29C493.695 524.641 494.09 524.051 494.587 523.554C495.083 523.057 495.673 522.663 496.323 522.394C496.972 522.125 497.668 521.987 498.371 521.987Z" fill="#F5F5F5"/>
<path d="M560.99 521.987H613.727C615.146 521.987 616.507 522.551 617.511 523.554C618.514 524.558 619.078 525.919 619.078 527.338V532.648H555.611V527.338C555.611 526.633 555.75 525.935 556.021 525.284C556.292 524.633 556.688 524.042 557.188 523.544C557.688 523.047 558.281 522.653 558.934 522.386C559.586 522.119 560.285 521.983 560.99 521.987Z" fill="#EBEBEB"/>
<path d="M623.54 521.987H676.277C677.696 521.987 679.057 522.551 680.061 523.554C681.064 524.558 681.628 525.919 681.628 527.338V532.648H618.203V527.338C618.203 525.921 618.764 524.562 619.765 523.559C620.766 522.556 622.123 521.99 623.54 521.987Z" fill="#F5F5F5"/>
<path d="M686.09 521.987H738.91C740.329 521.987 741.691 522.551 742.694 523.554C743.698 524.558 744.262 525.919 744.262 527.338V532.648H680.78V527.338C680.78 525.926 681.338 524.571 682.333 523.569C683.328 522.566 684.678 521.998 686.09 521.987Z" fill="#EBEBEB"/>
<path d="M748.724 521.987H801.46C802.163 521.987 802.859 522.125 803.508 522.394C804.157 522.663 804.747 523.057 805.244 523.554C805.741 524.051 806.135 524.641 806.404 525.29C806.673 525.94 806.812 526.635 806.812 527.338V532.648H743.372V527.338C743.372 526.635 743.51 525.94 743.779 525.29C744.048 524.641 744.443 524.051 744.939 523.554C745.436 523.057 746.026 522.663 746.676 522.394C747.325 522.125 748.021 521.987 748.724 521.987Z" fill="#F5F5F5"/>
<path d="M811.301 521.987H864.01C865.429 521.987 866.791 522.551 867.794 523.554C868.798 524.558 869.362 525.919 869.362 527.338V532.648H805.964V527.338C805.964 525.921 806.526 524.562 807.526 523.559C808.527 522.556 809.884 521.99 811.301 521.987Z" fill="#EBEBEB"/>
<path d="M873.893 521.987H926.63C928.049 521.987 929.41 522.551 930.414 523.554C931.417 524.558 931.981 525.919 931.981 527.338V532.648H868.542V527.338C868.542 525.919 869.105 524.558 870.109 523.554C871.113 522.551 872.474 521.987 873.893 521.987Z" fill="#F5F5F5"/>
<path d="M936.485 521.987H989.221C990.641 521.987 992.002 522.551 993.005 523.554C994.009 524.558 994.573 525.919 994.573 527.338V532.648H931.133V527.338C931.133 525.919 931.697 524.558 932.701 523.554C933.704 522.551 935.066 521.987 936.485 521.987Z" fill="#EBEBEB"/>
<path d="M667.381 189.485C665.634 189.459 663.933 190.044 662.571 191.139C662.857 189.637 662.857 188.095 662.571 186.594C661.84 183.008 659.923 179.774 657.129 177.411C654.335 175.049 650.827 173.695 647.17 173.569C645.122 173.546 643.106 174.074 641.332 175.098C639.984 172.635 638.021 170.563 635.633 169.084C633.246 167.605 630.516 166.77 627.71 166.661C620.51 166.661 615.742 172.485 617.035 179.671C617.147 180.259 617.296 180.839 617.48 181.409C616.336 181.107 615.16 180.948 613.977 180.936C606.777 180.936 602.009 186.774 603.302 193.961C604.033 197.54 605.946 200.769 608.735 203.129C611.523 205.489 615.024 206.842 618.675 206.971H670.564C671.657 207.009 672.744 206.794 673.741 206.343C674.738 205.892 675.617 205.218 676.311 204.372C677.005 203.526 677.494 202.532 677.741 201.467C677.989 200.401 677.987 199.293 677.736 198.228C677.239 195.821 675.948 193.651 674.071 192.065C672.193 190.48 669.837 189.571 667.381 189.485Z" fill="#F0F0F0"/>
<path d="M573.5 148.382C570.842 148.331 568.252 149.222 566.189 150.898C566.619 148.602 566.619 146.245 566.189 143.948C564.215 133.023 553.762 124.169 542.851 124.169C539.763 124.145 536.726 124.946 534.052 126.49C529.882 118.998 521.723 113.66 513.202 113.66C502.332 113.702 495.076 122.556 497.05 133.44C497.21 134.33 497.433 135.208 497.717 136.067C495.979 135.61 494.191 135.371 492.394 135.358C481.468 135.358 474.212 144.212 476.186 155.124C478.16 166.035 488.613 174.89 499.524 174.89H578.337C585.663 174.89 590.542 168.954 589.221 161.615C588.454 157.971 586.489 154.689 583.64 152.291C580.791 149.892 577.222 148.517 573.5 148.382Z" fill="#F5F5F5"/>
<path d="M894.284 167.231C891.626 167.179 889.036 168.07 886.973 169.747C887.401 167.45 887.401 165.094 886.973 162.797C884.999 151.885 874.546 143.031 863.635 143.031C860.524 142.995 857.461 143.797 854.767 145.352C850.597 137.86 842.437 132.523 833.917 132.523C823.005 132.523 815.749 141.377 817.723 152.288C817.882 153.184 818.104 154.066 818.39 154.929C816.654 154.46 814.865 154.217 813.067 154.207C802.141 154.207 794.885 163.061 796.859 173.986C798.833 184.912 809.272 193.752 820.197 193.752H899.01C906.336 193.752 911.215 187.803 909.88 180.478C909.134 176.844 907.193 173.566 904.367 171.165C901.54 168.764 897.99 167.379 894.284 167.231Z" fill="#F5F5F5"/>
<path d="M977.615 146.395C976.265 146.367 974.95 146.82 973.903 147.674C974.126 146.512 974.126 145.319 973.903 144.157C973.341 141.387 971.863 138.887 969.707 137.059C967.551 135.232 964.843 134.182 962.019 134.079C960.435 134.062 958.874 134.47 957.501 135.261C956.46 133.342 954.934 131.73 953.076 130.584C951.217 129.438 949.092 128.798 946.91 128.728C945.65 128.681 944.397 128.925 943.247 129.443C942.098 129.96 941.084 130.737 940.285 131.711C939.485 132.686 938.922 133.832 938.639 135.06C938.356 136.288 938.361 137.565 938.653 138.792C938.735 139.261 938.846 139.726 938.987 140.182C938.103 139.944 937.192 139.822 936.276 139.82C935.017 139.776 933.765 140.022 932.618 140.541C931.47 141.059 930.457 141.835 929.658 142.809C928.859 143.783 928.296 144.928 928.012 146.155C927.727 147.382 927.73 148.658 928.02 149.884C928.583 152.656 930.063 155.157 932.222 156.985C934.38 158.814 937.091 159.862 939.918 159.961H980.061C980.905 159.981 981.743 159.809 982.51 159.458C983.278 159.106 983.955 158.584 984.491 157.932C985.027 157.279 985.407 156.513 985.603 155.692C985.799 154.871 985.805 154.016 985.621 153.192C985.244 151.324 984.25 149.638 982.797 148.405C981.344 147.171 979.519 146.463 977.615 146.395Z" fill="#F0F0F0"/>
<path d="M795.177 122.32C793.385 122.289 791.638 122.889 790.243 124.016C790.542 122.478 790.542 120.897 790.243 119.359C789.495 115.697 787.538 112.393 784.688 109.975C781.837 107.558 778.257 106.168 774.522 106.029C772.424 106.002 770.358 106.545 768.545 107.6C767.156 105.068 765.133 102.94 762.674 101.424C760.216 99.9089 757.406 99.0577 754.52 98.9541C747.153 98.9541 742.274 104.917 743.594 112.27C743.705 112.874 743.858 113.468 744.053 114.05C742.879 113.735 741.669 113.572 740.453 113.563C733.1 113.563 728.207 119.54 729.542 126.893C730.29 130.555 732.246 133.86 735.097 136.277C737.947 138.694 741.527 140.084 745.262 140.223H798.402C799.522 140.264 800.636 140.046 801.658 139.586C802.68 139.125 803.581 138.434 804.292 137.568C805.002 136.701 805.503 135.682 805.754 134.589C806.006 133.497 806.001 132.362 805.741 131.272C805.236 128.813 803.921 126.594 802.005 124.971C800.09 123.348 797.686 122.415 795.177 122.32Z" fill="#F0F0F0"/>
<path d="M712.5 588.956C861.345 588.956 982.007 581.912 982.007 573.222C982.007 564.532 861.345 557.487 712.5 557.487C563.655 557.487 442.993 564.532 442.993 573.222C442.993 581.912 563.655 588.956 712.5 588.956Z" fill="#242424"/>
<path d="M963.451 535.011H527.269C524.489 535.011 493.005 534.691 490.323 534.094L443.938 526.087C440.184 525.236 436.831 523.134 434.429 520.125C432.027 517.117 430.719 513.382 430.719 509.532V363.763C430.719 359.881 431.484 356.037 432.97 352.451C434.456 348.865 436.634 345.606 439.38 342.862C442.125 340.118 445.385 337.941 448.972 336.457C452.558 334.973 456.403 334.21 460.285 334.212H952.414C958.522 334.215 964.379 336.64 968.701 340.955C973.024 345.27 975.46 351.122 975.474 357.23V522.987C975.474 526.176 974.207 529.235 971.953 531.489C969.698 533.744 966.64 535.011 963.451 535.011Z" fill="#1C51C8"/>
<g opacity="0.5">
<path d="M975.558 472.391H956.793V494.52H975.558V472.391Z" fill="white"/>
</g>
<path d="M447.83 409.689V357.299C447.827 356.176 447.379 355.1 446.584 354.306C445.79 353.512 444.714 353.064 443.591 353.06H432.749C431.412 356.47 430.724 360.1 430.719 363.763V413.942H443.591C444.716 413.938 445.795 413.489 446.589 412.691C447.384 411.894 447.83 410.814 447.83 409.689Z" fill="#1C51C8"/>
<path opacity="0.8" d="M447.83 409.689V357.299C447.827 356.176 447.379 355.1 446.584 354.306C445.79 353.512 444.714 353.064 443.591 353.06H432.749C431.412 356.47 430.724 360.1 430.719 363.763V413.942H443.591C444.716 413.938 445.795 413.489 446.589 412.691C447.384 411.894 447.83 410.814 447.83 409.689Z" fill="white"/>
<path d="M956.362 497.3H974.751C976.204 497.3 977.597 497.877 978.624 498.904C979.651 499.931 980.228 501.324 980.228 502.777V527.477C980.228 528.465 980.034 529.443 979.656 530.355C979.278 531.267 978.724 532.096 978.026 532.795C977.327 533.493 976.498 534.047 975.586 534.425C974.674 534.803 973.696 534.997 972.708 534.997H956.362C955.083 534.997 953.856 534.489 952.951 533.584C952.047 532.68 951.538 531.453 951.538 530.174V502.124C951.538 500.844 952.047 499.618 952.951 498.713C953.856 497.808 955.083 497.3 956.362 497.3Z" fill="#1C51C8"/>
<path opacity="0.3" d="M956.362 497.3H974.751C976.204 497.3 977.597 497.877 978.624 498.904C979.651 499.931 980.228 501.324 980.228 502.777V527.477C980.228 528.465 980.034 529.443 979.656 530.355C979.278 531.267 978.724 532.096 978.026 532.795C977.327 533.493 976.498 534.047 975.586 534.425C974.674 534.803 973.696 534.997 972.708 534.997H956.362C955.083 534.997 953.856 534.489 952.951 533.584C952.047 532.68 951.538 531.453 951.538 530.174V502.124C951.538 500.844 952.047 499.618 952.951 498.713C953.856 497.808 955.083 497.3 956.362 497.3Z" fill="white"/>
<path d="M617.063 532.37C617.063 519.869 612.097 507.88 603.257 499.041C594.418 490.201 582.429 485.235 569.928 485.235C557.427 485.235 545.438 490.201 536.598 499.041C527.759 507.88 522.793 519.869 522.793 532.37C522.793 533.246 522.89 534.121 522.932 534.997H616.924C616.965 534.135 617.063 533.26 617.063 532.37Z" fill="#1C51C8"/>
<path d="M868.083 532.37C868.19 526.113 867.051 519.897 864.731 514.085C862.41 508.273 858.956 502.981 854.569 498.519C850.182 494.056 844.951 490.511 839.179 488.091C833.408 485.672 827.213 484.426 820.955 484.426C814.697 484.426 808.502 485.672 802.73 488.091C796.959 490.511 791.727 494.056 787.34 498.519C782.954 502.981 779.499 508.273 777.179 514.085C774.859 519.897 773.719 526.113 773.827 532.37C773.827 533.246 773.91 534.121 773.952 534.997H867.944C867.999 534.135 868.083 533.26 868.083 532.37Z" fill="#1C51C8"/>
<g opacity="0.3">
<path d="M616.799 532.37C616.906 526.113 615.766 519.897 613.446 514.085C611.126 508.273 607.672 502.981 603.285 498.519C598.898 494.056 593.666 490.511 587.895 488.091C582.124 485.672 575.929 484.426 569.671 484.426C563.413 484.426 557.217 485.672 551.446 488.091C545.675 490.511 540.443 494.056 536.056 498.519C531.669 502.981 528.215 508.273 525.895 514.085C523.575 519.897 522.435 526.113 522.543 532.37C522.543 533.246 522.626 534.121 522.682 534.997H616.674C616.715 534.135 616.799 533.26 616.799 532.37Z" fill="black"/>
<path d="M868.083 532.37C868.083 533.246 867.999 534.121 867.944 534.997H773.952C773.952 534.121 773.827 533.246 773.827 532.37C773.719 526.113 774.859 519.897 777.179 514.085C779.499 508.273 782.954 502.981 787.34 498.519C791.727 494.056 796.959 490.511 802.73 488.091C808.502 485.672 814.697 484.426 820.955 484.426C827.213 484.426 833.408 485.672 839.179 488.091C844.951 490.511 850.182 494.056 854.569 498.519C858.956 502.981 862.41 508.273 864.731 514.085C867.051 519.897 868.19 526.113 868.083 532.37Z" fill="black"/>
</g>
<path d="M436.96 437.377H444.23C445.2 437.377 446.13 437.763 446.815 438.448C447.501 439.134 447.886 440.064 447.886 441.033V500.72C447.886 501.689 447.501 502.619 446.815 503.305C446.13 503.99 445.2 504.375 444.23 504.375H436.96C436.337 504.375 435.74 504.128 435.299 503.687C434.859 503.247 434.611 502.649 434.611 502.026V439.726C434.611 439.103 434.859 438.506 435.299 438.065C435.74 437.625 436.337 437.377 436.96 437.377Z" fill="#1C51C8"/>
<path opacity="0.7" d="M436.96 437.377H444.23C445.2 437.377 446.13 437.763 446.815 438.448C447.501 439.134 447.886 440.064 447.886 441.033V500.72C447.886 501.689 447.501 502.619 446.815 503.305C446.13 503.99 445.2 504.375 444.23 504.375H436.96C436.337 504.375 435.74 504.128 435.299 503.687C434.859 503.247 434.611 502.649 434.611 502.026V439.726C434.611 439.103 434.859 438.506 435.299 438.065C435.74 437.625 436.337 437.377 436.96 437.377Z" fill="white"/>
<path d="M447.83 460.549H434.611V481.204H447.83V460.549Z" fill="#1C51C8"/>
<path opacity="0.5" d="M447.83 460.549H434.611V481.204H447.83V460.549Z" fill="white"/>
<path d="M610.766 334.212L584.898 321.007C581.578 319.317 577.906 318.436 574.181 318.435H488.001C483.116 318.432 478.35 319.95 474.365 322.776C470.38 325.603 467.373 329.6 465.761 334.212H610.766Z" fill="#1C51C8"/>
<path opacity="0.3" d="M610.766 334.212L584.898 321.007C581.578 319.317 577.906 318.436 574.181 318.435H488.001C483.116 318.432 478.35 319.95 474.365 322.776C470.38 325.603 467.373 329.6 465.761 334.212H610.766Z" fill="white"/>
<path d="M997.019 380.304C996.455 380.304 995.914 380.08 995.515 379.681C995.117 379.282 994.892 378.741 994.892 378.177V372.2C994.892 362.623 995.365 354.853 985.774 354.853H953.929C953.366 354.849 952.827 354.624 952.429 354.226C952.031 353.828 951.806 353.289 951.802 352.726C951.806 352.163 952.031 351.625 952.429 351.227C952.827 350.829 953.366 350.603 953.929 350.6H985.774C997.7 350.6 999.146 360.33 999.146 372.2V378.177C999.146 378.741 998.922 379.282 998.523 379.681C998.124 380.08 997.583 380.304 997.019 380.304Z" fill="#263238"/>
<g opacity="0.5">
<path d="M997.019 380.304C996.455 380.304 995.914 380.08 995.515 379.681C995.117 379.282 994.892 378.741 994.892 378.177V372.2C994.892 362.623 995.365 354.853 985.774 354.853H953.929C953.366 354.849 952.827 354.624 952.429 354.226C952.031 353.828 951.806 353.289 951.802 352.726C951.806 352.163 952.031 351.625 952.429 351.227C952.827 350.829 953.366 350.603 953.929 350.6H985.774C997.7 350.6 999.146 360.33 999.146 372.2V378.177C999.146 378.741 998.922 379.282 998.523 379.681C998.124 380.08 997.583 380.304 997.019 380.304Z" fill="white"/>
</g>
<path d="M988.874 369.337H991.654C992.693 369.337 993.69 369.75 994.425 370.485C995.161 371.22 995.574 372.217 995.574 373.257V405.06C995.574 406.099 995.161 407.096 994.425 407.832C993.69 408.567 992.693 408.98 991.654 408.98H988.874C988.505 408.98 988.152 408.833 987.891 408.573C987.63 408.312 987.484 407.958 987.484 407.59V370.741C987.482 370.557 987.516 370.375 987.586 370.205C987.655 370.034 987.757 369.879 987.886 369.749C988.015 369.618 988.169 369.515 988.339 369.444C988.508 369.373 988.69 369.337 988.874 369.337Z" fill="#263238"/>
<path opacity="0.2" d="M988.874 369.337H991.654C992.693 369.337 993.69 369.75 994.425 370.485C995.161 371.22 995.574 372.217 995.574 373.257V405.06C995.574 406.099 995.161 407.096 994.425 407.832C993.69 408.567 992.693 408.98 991.654 408.98H988.874C988.505 408.98 988.152 408.833 987.891 408.573C987.63 408.312 987.484 407.958 987.484 407.59V370.741C987.482 370.557 987.516 370.375 987.586 370.205C987.655 370.034 987.757 369.879 987.886 369.749C988.015 369.618 988.169 369.515 988.339 369.444C988.508 369.373 988.69 369.337 988.874 369.337Z" fill="white"/>
<path opacity="0.5" d="M861.689 353.06H721.813C720.493 353.06 719.422 354.13 719.422 355.451V426.299C719.422 427.619 720.493 428.69 721.813 428.69H861.689C863.009 428.69 864.08 427.619 864.08 426.299V355.451C864.08 354.13 863.009 353.06 861.689 353.06Z" fill="white"/>
<path opacity="0.7" d="M859.173 357.981H724.343V423.769H859.173V357.981Z" fill="white"/>
<g opacity="0.5">
<path d="M748.39 423.769L762.373 357.981H740.926L726.942 423.769H748.39Z" fill="white"/>
<path d="M777.135 357.981H772.062L758.078 423.769H763.152L777.135 357.981Z" fill="white"/>
<path d="M842.701 357.981H821.24L807.256 423.769H828.718L842.701 357.981Z" fill="white"/>
<path d="M857.463 357.981H852.39L838.406 423.769H843.48L857.463 357.981Z" fill="white"/>
</g>
<path opacity="0.5" d="M965.967 470.07H975.697V357.23C975.686 355.831 975.552 354.435 975.293 353.06H966.008C965.449 353.051 964.893 353.154 964.375 353.364C963.856 353.573 963.385 353.885 962.99 354.281C962.594 354.676 962.282 355.147 962.072 355.666C961.863 356.185 961.759 356.74 961.769 357.299V465.831C961.76 466.386 961.861 466.938 962.069 467.454C962.276 467.97 962.584 468.439 962.975 468.834C963.366 469.229 963.832 469.542 964.346 469.754C964.86 469.967 965.411 470.074 965.967 470.07Z" fill="white"/>
<path opacity="0.5" d="M965.967 470.07H975.697V379.303L961.727 444.8V465.789C961.712 466.352 961.811 466.912 962.018 467.435C962.225 467.959 962.536 468.435 962.933 468.835C963.329 469.235 963.802 469.551 964.323 469.763C964.845 469.975 965.404 470.08 965.967 470.07Z" fill="white"/>
<path opacity="0.5" d="M447.83 375.133V357.299C447.827 356.176 447.379 355.1 446.584 354.306C445.79 353.512 444.714 353.064 443.591 353.06H442.062L430.719 406.45V413.942H439.574L447.83 375.133Z" fill="white"/>
<path d="M584.265 562.658C602.712 555.017 611.472 533.868 603.831 515.42C596.19 496.973 575.041 488.213 556.594 495.854C538.146 503.495 529.386 524.644 537.027 543.091C544.668 561.539 565.817 570.299 584.265 562.658Z" fill="#263238"/>
<path opacity="0.5" d="M570.428 552.581C583.302 552.581 593.739 542.144 593.739 529.27C593.739 516.396 583.302 505.96 570.428 505.96C557.554 505.96 547.118 516.396 547.118 529.27C547.118 542.144 557.554 552.581 570.428 552.581Z" fill="white"/>
<path opacity="0.2" d="M591.431 529.256C591.432 530.238 591.363 531.218 591.223 532.189C590.743 535.669 589.395 538.972 587.303 541.794C586.126 543.403 584.721 544.831 583.133 546.034C580.348 548.173 577.068 549.573 573.597 550.106C572.518 550.286 571.425 550.374 570.331 550.371C569.401 550.366 568.472 550.301 567.551 550.176C564.075 549.716 560.772 548.387 557.946 546.312C556.252 545.088 554.757 543.611 553.512 541.933C550.793 538.267 549.331 533.821 549.342 529.256C549.343 528.205 549.422 527.155 549.578 526.115C550.373 520.849 553.128 516.078 557.292 512.757C561.456 509.437 566.72 507.812 572.031 508.21C577.342 508.607 582.306 510.997 585.93 514.9C589.553 518.803 591.568 523.931 591.57 529.256H591.431Z" fill="black"/>
<path opacity="0.2" d="M580.563 532.038C581.903 526.36 578.387 520.67 572.708 519.33C567.03 517.99 561.34 521.507 560 527.185C558.66 532.863 562.177 538.553 567.855 539.893C573.533 541.233 579.223 537.717 580.563 532.038Z" fill="white"/>
<path d="M570.164 534.636C573.012 534.636 575.321 532.327 575.321 529.479C575.321 526.631 573.012 524.322 570.164 524.322C567.316 524.322 565.007 526.631 565.007 529.479C565.007 532.327 567.316 534.636 570.164 534.636Z" fill="#263238"/>
<path d="M572.43 510.964C572.43 511.415 572.296 511.856 572.046 512.23C571.795 512.605 571.439 512.898 571.023 513.07C570.606 513.243 570.148 513.288 569.705 513.2C569.263 513.112 568.857 512.895 568.538 512.576C568.219 512.257 568.002 511.851 567.914 511.409C567.826 510.967 567.872 510.508 568.044 510.092C568.217 509.675 568.509 509.319 568.884 509.069C569.259 508.818 569.699 508.684 570.15 508.684C570.45 508.683 570.747 508.74 571.025 508.854C571.302 508.968 571.554 509.136 571.766 509.348C571.978 509.56 572.146 509.812 572.26 510.089C572.374 510.367 572.432 510.664 572.43 510.964Z" fill="#263238"/>
<path d="M572.43 547.535C572.43 547.986 572.296 548.426 572.046 548.801C571.795 549.176 571.439 549.468 571.023 549.641C570.606 549.813 570.148 549.859 569.705 549.771C569.263 549.683 568.857 549.466 568.538 549.147C568.219 548.828 568.002 548.422 567.914 547.98C567.826 547.537 567.872 547.079 568.044 546.662C568.217 546.246 568.509 545.89 568.884 545.639C569.259 545.389 569.699 545.255 570.15 545.255C570.45 545.253 570.747 545.311 571.025 545.425C571.302 545.539 571.554 545.707 571.766 545.919C571.978 546.131 572.146 546.383 572.26 546.66C572.374 546.938 572.432 547.235 572.43 547.535Z" fill="#263238"/>
<path d="M556.89 517.914C558.179 517.914 559.225 516.868 559.225 515.579C559.225 514.289 558.179 513.244 556.89 513.244C555.6 513.244 554.554 514.289 554.554 515.579C554.554 516.868 555.6 517.914 556.89 517.914Z" fill="#263238"/>
<path d="M583.425 544.449C584.714 544.449 585.76 543.404 585.76 542.114C585.76 540.824 584.714 539.779 583.425 539.779C582.135 539.779 581.09 540.824 581.09 542.114C581.09 543.404 582.135 544.449 583.425 544.449Z" fill="#263238"/>
<path d="M551.385 526.518C551.847 526.518 552.299 526.655 552.683 526.912C553.067 527.168 553.366 527.533 553.543 527.96C553.719 528.386 553.766 528.856 553.676 529.309C553.585 529.762 553.363 530.178 553.036 530.504C552.71 530.831 552.294 531.053 551.841 531.144C551.388 531.234 550.918 531.187 550.492 531.011C550.065 530.834 549.7 530.535 549.444 530.151C549.187 529.767 549.05 529.315 549.05 528.853C549.054 528.235 549.301 527.643 549.738 527.206C550.175 526.769 550.767 526.522 551.385 526.518Z" fill="#263238"/>
<path d="M588.915 526.518C589.377 526.518 589.829 526.655 590.213 526.912C590.597 527.168 590.896 527.533 591.073 527.96C591.249 528.386 591.296 528.856 591.206 529.309C591.115 529.762 590.893 530.178 590.566 530.504C590.24 530.831 589.824 531.053 589.371 531.144C588.918 531.234 588.448 531.187 588.022 531.011C587.595 530.834 587.23 530.535 586.974 530.151C586.717 529.767 586.58 529.315 586.58 528.853C586.58 528.234 586.826 527.64 587.264 527.202C587.702 526.764 588.296 526.518 588.915 526.518Z" fill="#263238"/>
<path d="M556.89 544.449C558.179 544.449 559.225 543.404 559.225 542.114C559.225 540.824 558.179 539.779 556.89 539.779C555.6 539.779 554.554 540.824 554.554 542.114C554.554 543.404 555.6 544.449 556.89 544.449Z" fill="#263238"/>
<path d="M583.425 517.914C584.714 517.914 585.76 516.868 585.76 515.579C585.76 514.289 584.714 513.244 583.425 513.244C582.135 513.244 581.09 514.289 581.09 515.579C581.09 516.868 582.135 517.914 583.425 517.914Z" fill="#263238"/>
<path d="M846.517 554.825C860.636 540.706 860.636 517.815 846.517 503.696C832.398 489.577 809.507 489.577 795.388 503.696C781.269 517.815 781.269 540.706 795.388 554.825C809.507 568.944 832.398 568.944 846.517 554.825Z" fill="#263238"/>
<path opacity="0.5" d="M625.236 353.06H468.138C466.818 353.06 465.747 354.13 465.747 355.451V411.537C465.747 412.858 466.818 413.928 468.138 413.928H625.236C626.556 413.928 627.627 412.858 627.627 411.537V355.451C627.627 354.13 626.556 353.06 625.236 353.06Z" fill="white"/>
<path opacity="0.7" d="M622.706 357.981H470.668V409.021H622.706V357.981Z" fill="white"/>
<g opacity="0.5">
<path d="M526.893 357.981H521.834L510.978 409.021H516.051L526.893 357.981Z" fill="white"/>
<path d="M501.29 409.021L512.146 357.981H490.684L479.842 409.021H501.29Z" fill="white"/>
<path d="M588.582 357.981H583.522L572.666 409.021H577.74L588.582 357.981Z" fill="white"/>
<path d="M573.82 357.981H552.372L541.53 409.021H562.978L573.82 357.981Z" fill="white"/>
</g>
<g opacity="0.2">
<path d="M951.413 352.879H871.947V528.603H951.413V352.879Z" fill="black"/>
</g>
<path opacity="0.2" d="M917.789 512.493H951.413V528.603L917.789 522.821V512.493Z" fill="black"/>
<path opacity="0.2" d="M872.003 394.76V493.061L905.154 500.011L921.904 477.771C922.672 477.161 923.292 476.385 923.718 475.502C924.144 474.618 924.365 473.65 924.364 472.669V467.999C924.365 466.307 923.706 464.681 922.528 463.467C921.35 462.252 919.745 461.544 918.053 461.494L891.407 460.632C888.598 460.547 885.926 459.401 883.928 457.426C881.929 455.451 880.753 452.792 880.634 449.985L878.563 401.057C878.505 399.359 877.787 397.751 876.562 396.575C875.337 395.399 873.701 394.748 872.003 394.76Z" fill="black"/>
<path opacity="0.2" d="M951.01 431.053L931.55 437.405C930.591 437.721 929.756 438.332 929.164 439.151C928.573 439.97 928.255 440.954 928.256 441.964C928.256 442.842 928.498 443.703 928.953 444.453C929.409 445.203 930.062 445.813 930.841 446.218L950.955 456.559L951.01 431.053Z" fill="black"/>
<path d="M905.112 500.039H872.156V510.213H905.112V500.039Z" fill="#1C51C8"/>
<path opacity="0.7" d="M905.112 500.039H872.156V510.213H905.112V500.039Z" fill="white"/>
<path opacity="0.9" d="M917.789 510.213H872.156V522.821H917.789V510.213Z" fill="white"/>
<path opacity="0.9" d="M871.961 493.089L905.112 500.039H872.156L871.961 493.089Z" fill="white"/>
<path opacity="0.7" d="M917.789 522.821L951.413 528.603H871.947L872.156 522.821H917.789Z" fill="white"/>
<path opacity="0.4" d="M931.953 427.675L934.775 436.627L938.931 435.265L936.123 426.382L931.953 427.675Z" fill="white"/>
<path d="M949.926 423.95L919.263 433.68C918.989 433.771 918.7 433.808 918.412 433.788C918.124 433.767 917.843 433.69 917.584 433.561C917.326 433.432 917.096 433.253 916.907 433.035C916.718 432.817 916.574 432.564 916.483 432.29C916.391 432.016 916.354 431.727 916.375 431.439C916.395 431.151 916.472 430.87 916.601 430.612C916.73 430.354 916.909 430.123 917.127 429.934C917.345 429.745 917.599 429.601 917.873 429.51L948.522 419.78C948.796 419.685 949.086 419.645 949.375 419.664C949.664 419.682 949.946 419.759 950.206 419.888C950.465 420.018 950.695 420.198 950.884 420.418C951.072 420.638 951.214 420.894 951.302 421.17C951.484 421.721 951.441 422.322 951.184 422.842C950.926 423.362 950.474 423.76 949.926 423.95Z" fill="#263238"/>
<path opacity="0.7" d="M497.147 511.979H484.763C484.254 511.98 483.75 511.882 483.279 511.689C482.809 511.495 482.381 511.211 482.021 510.852C481.661 510.493 481.375 510.066 481.18 509.596C480.985 509.127 480.884 508.623 480.884 508.114C480.888 507.088 481.298 506.105 482.025 505.381C482.752 504.657 483.736 504.25 484.763 504.25H497.147C498.172 504.25 499.155 504.657 499.88 505.382C500.604 506.107 501.012 507.09 501.012 508.114C501.013 508.622 500.915 509.126 500.721 509.595C500.528 510.065 500.243 510.492 499.884 510.851C499.525 511.21 499.098 511.495 498.628 511.688C498.159 511.882 497.655 511.98 497.147 511.979Z" fill="white"/>
<path opacity="0.7" d="M859.59 463.523H847.191C846.167 463.52 845.187 463.111 844.463 462.387C843.739 461.664 843.331 460.683 843.327 459.659C843.327 458.633 843.734 457.649 844.458 456.922C845.182 456.195 846.165 455.785 847.191 455.781H859.59C860.616 455.785 861.599 456.195 862.323 456.922C863.047 457.649 863.454 458.633 863.454 459.659C863.45 460.683 863.042 461.664 862.318 462.387C861.594 463.111 860.614 463.52 859.59 463.523Z" fill="white"/>
<path opacity="0.2" d="M469.723 496.23C469.233 496.23 468.764 496.038 468.415 495.694C468.067 495.351 467.867 494.884 467.86 494.395V466.595C467.86 466.104 468.054 465.632 468.401 465.283C468.747 464.934 469.217 464.736 469.709 464.733C469.953 464.733 470.196 464.781 470.422 464.874C470.648 464.968 470.853 465.105 471.026 465.278C471.199 465.451 471.336 465.656 471.43 465.882C471.523 466.108 471.571 466.351 471.571 466.595V494.395C471.564 494.882 471.367 495.346 471.021 495.689C470.676 496.032 470.21 496.226 469.723 496.23Z" fill="black"/>
<path opacity="0.2" d="M477.145 496.23C476.654 496.23 476.182 496.036 475.833 495.689C475.484 495.343 475.286 494.873 475.283 494.381V466.581C475.283 466.087 475.479 465.613 475.828 465.264C476.178 464.915 476.651 464.719 477.145 464.719C477.391 464.722 477.634 464.774 477.859 464.872C478.085 464.97 478.289 465.112 478.459 465.289C478.63 465.466 478.764 465.675 478.853 465.904C478.942 466.133 478.986 466.377 478.98 466.623V494.423C478.966 494.902 478.767 495.358 478.425 495.695C478.084 496.031 477.625 496.223 477.145 496.23Z" fill="black"/>
<path opacity="0.2" d="M484.54 496.23C484.05 496.23 483.58 496.035 483.233 495.689C482.886 495.342 482.691 494.872 482.691 494.381V466.581C482.699 466.096 482.897 465.633 483.243 465.292C483.589 464.951 484.055 464.76 484.54 464.76C484.784 464.76 485.026 464.809 485.251 464.902C485.476 464.996 485.68 465.134 485.852 465.307C486.024 465.48 486.16 465.685 486.252 465.911C486.344 466.137 486.391 466.379 486.389 466.623V494.423C486.378 494.906 486.178 495.366 485.833 495.703C485.487 496.041 485.023 496.23 484.54 496.23Z" fill="black"/>
<path opacity="0.2" d="M491.963 496.23C491.473 496.23 491.004 496.038 490.655 495.694C490.307 495.351 490.107 494.884 490.1 494.395V466.595C490.1 466.104 490.294 465.632 490.641 465.283C490.987 464.934 491.457 464.736 491.949 464.733C492.443 464.733 492.917 464.929 493.266 465.278C493.615 465.627 493.811 466.101 493.811 466.595V494.395C493.804 494.882 493.607 495.346 493.261 495.689C492.916 496.032 492.449 496.226 491.963 496.23Z" fill="black"/>
<path opacity="0.2" d="M499.385 496.23C498.894 496.23 498.422 496.036 498.073 495.689C497.724 495.343 497.526 494.873 497.523 494.381V466.581C497.523 466.087 497.719 465.613 498.068 465.264C498.418 464.915 498.891 464.719 499.385 464.719C499.631 464.722 499.874 464.774 500.099 464.872C500.325 464.97 500.529 465.112 500.699 465.289C500.87 465.466 501.004 465.675 501.093 465.904C501.182 466.133 501.226 466.377 501.22 466.623V494.423C501.206 494.902 501.007 495.358 500.665 495.695C500.323 496.031 499.865 496.223 499.385 496.23Z" fill="black"/>
<path d="M644.738 353.672H702.77C703.515 353.672 704.252 353.818 704.94 354.103C705.628 354.388 706.254 354.806 706.78 355.333C707.307 355.859 707.725 356.484 708.01 357.172C708.295 357.861 708.441 358.598 708.441 359.343V528.826H639.066V359.343C639.066 357.839 639.664 356.396 640.727 355.333C641.791 354.269 643.234 353.672 644.738 353.672Z" fill="#1C51C8"/>
<path opacity="0.5" d="M871.961 495.869H850.805C842.367 488.973 831.8 485.214 820.903 485.232C810.005 485.25 799.451 489.043 791.035 495.966L688.439 496.147C686.196 496.149 683.974 495.708 681.901 494.849C679.828 493.99 677.945 492.731 676.36 491.143L637.273 452.167C635.679 450.57 633.786 449.303 631.701 448.44C629.616 447.576 627.381 447.133 625.125 447.135H430.719V425.006H634.34C636.581 425.005 638.799 425.445 640.869 426.301C642.94 427.157 644.821 428.413 646.406 429.996L685.437 469.028C687.032 470.624 688.926 471.889 691.01 472.753C693.095 473.616 695.329 474.06 697.585 474.059L871.878 474.935L871.961 495.869Z" fill="white"/>
<path opacity="0.1" d="M644.738 353.672H702.77C703.515 353.672 704.252 353.818 704.94 354.103C705.628 354.388 706.254 354.806 706.78 355.333C707.307 355.859 707.725 356.484 708.01 357.172C708.295 357.861 708.441 358.598 708.441 359.343V528.826H639.066V359.343C639.066 357.839 639.664 356.396 640.727 355.333C641.791 354.269 643.234 353.672 644.738 353.672Z" fill="black"/>
<path opacity="0.5" d="M699.379 357.73H648.713C645.842 357.73 643.514 360.058 643.514 362.929V413.594C643.514 416.466 645.842 418.793 648.713 418.793H699.379C702.25 418.793 704.577 416.466 704.577 413.594V362.929C704.577 360.058 702.25 357.73 699.379 357.73Z" fill="white"/>
<path opacity="0.7" d="M700.296 362.345H648.004V414.637H700.296V362.345Z" fill="white"/>
<g opacity="0.5">
<path d="M680.572 362.526L669.494 414.637H648.032L659.124 362.526H680.572Z" fill="white"/>
<path d="M695.334 362.526L684.255 414.637H679.182L690.26 362.526H695.334Z" fill="white"/>
</g>
<path opacity="0.5" d="M821.059 552.581C833.933 552.581 844.369 542.144 844.369 529.27C844.369 516.396 833.933 505.96 821.059 505.96C808.185 505.96 797.749 516.396 797.749 529.27C797.749 542.144 808.185 552.581 821.059 552.581Z" fill="white"/>
<path opacity="0.3" d="M842.062 529.256C842.063 530.238 841.993 531.218 841.853 532.189C841.373 535.669 840.025 538.972 837.934 541.794C836.757 543.402 835.352 544.831 833.764 546.034C830.979 548.173 827.699 549.573 824.228 550.106C823.137 550.311 822.03 550.423 820.92 550.44C819.99 550.436 819.061 550.371 818.14 550.245C814.664 549.785 811.361 548.456 808.535 546.381C806.841 545.158 805.346 543.681 804.101 542.003C801.358 538.345 799.871 533.898 799.862 529.326C799.863 528.274 799.942 527.224 800.098 526.184C800.892 520.918 803.648 516.147 807.811 512.827C811.975 509.506 817.24 507.882 822.551 508.279C827.862 508.677 832.826 511.066 836.45 514.969C840.073 518.872 842.088 524 842.09 529.326L842.062 529.256Z" fill="white"/>
<path opacity="0.4" d="M836.99 533.216C839.087 524.333 833.585 515.431 824.702 513.335C815.818 511.238 806.917 516.74 804.82 525.623C802.723 534.507 808.225 543.408 817.109 545.505C825.992 547.602 834.894 542.1 836.99 533.216Z" fill="white"/>
<path opacity="0.2" d="M831.182 532.027C832.522 526.349 829.005 520.659 823.327 519.319C817.649 517.979 811.959 521.495 810.619 527.174C809.279 532.852 812.795 538.542 818.474 539.882C824.152 541.222 829.842 537.705 831.182 532.027Z" fill="black"/>
<path d="M820.795 534.636C823.643 534.636 825.952 532.327 825.952 529.479C825.952 526.631 823.643 524.322 820.795 524.322C817.947 524.322 815.638 526.631 815.638 529.479C815.638 532.327 817.947 534.636 820.795 534.636Z" fill="#263238"/>
<path d="M824.201 508.392C823.941 508.975 823.518 509.469 822.982 509.815C822.447 510.16 821.822 510.342 821.184 510.338C820.535 510.339 819.9 510.149 819.357 509.794C818.814 509.438 818.386 508.932 818.126 508.337C820.14 508.042 822.187 508.042 824.201 508.337V508.392Z" fill="#263238"/>
<path d="M824.214 550.106C823.128 550.311 822.026 550.422 820.92 550.44C819.99 550.436 819.062 550.371 818.14 550.245C818.395 549.651 818.816 549.144 819.354 548.785C819.892 548.426 820.522 548.231 821.169 548.223C821.815 548.216 822.45 548.397 822.995 548.743C823.541 549.09 823.974 549.588 824.242 550.176L824.214 550.106Z" fill="#263238"/>
<path d="M807.812 515.871C807.336 516.352 806.723 516.675 806.057 516.797C805.391 516.919 804.703 516.833 804.087 516.552C805.34 514.884 806.834 513.413 808.521 512.187C808.788 512.801 808.863 513.481 808.737 514.139C808.61 514.796 808.288 515.4 807.812 515.871Z" fill="#263238"/>
<path d="M837.934 541.794C836.757 543.402 835.352 544.831 833.764 546.034C833.568 545.45 833.538 544.823 833.677 544.224C833.815 543.624 834.117 543.074 834.549 542.635C834.981 542.196 835.525 541.886 836.123 541.737C836.72 541.589 837.347 541.608 837.934 541.794Z" fill="#263238"/>
<path d="M802.28 529.242C802.28 529.928 802.067 530.597 801.671 531.157C801.275 531.717 800.716 532.14 800.07 532.37C799.914 531.339 799.835 530.299 799.834 529.256C799.835 528.205 799.914 527.155 800.07 526.115C800.716 526.344 801.275 526.768 801.671 527.328C802.067 527.888 802.28 528.557 802.28 529.242Z" fill="#263238"/>
<path d="M842.062 529.256C842.063 530.238 841.994 531.218 841.854 532.189C841.318 531.905 840.871 531.481 840.558 530.962C840.246 530.443 840.081 529.848 840.081 529.242C840.081 528.637 840.246 528.042 840.558 527.523C840.871 527.004 841.318 526.58 841.854 526.296C841.993 527.276 842.063 528.266 842.062 529.256Z" fill="#263238"/>
<path d="M808.507 546.27C806.814 545.046 805.318 543.57 804.073 541.891C804.688 541.612 805.373 541.526 806.038 541.645C806.703 541.763 807.316 542.081 807.797 542.555C808.277 543.03 808.602 543.639 808.729 544.302C808.856 544.965 808.779 545.652 808.507 546.27Z" fill="#263238"/>
<path d="M837.92 516.691C837.34 516.869 836.723 516.886 836.134 516.74C835.546 516.594 835.008 516.29 834.579 515.861C834.15 515.433 833.846 514.895 833.7 514.306C833.554 513.718 833.571 513.1 833.75 512.521C835.328 513.708 836.732 515.112 837.92 516.691Z" fill="#263238"/>
<path d="M934.678 494.757L937.152 509.074L941.558 508.809L942.448 493.631L934.678 494.757Z" fill="#B97964"/>
<path d="M941.92 506.613L936.749 506.891C936.639 506.893 936.533 506.932 936.45 507.003C936.366 507.074 936.31 507.172 936.29 507.28L935.47 512.187C935.438 512.395 935.488 512.607 935.61 512.779C935.732 512.95 935.916 513.067 936.123 513.105H936.29C938.431 512.952 940.335 512.729 943.004 512.604C946.159 512.437 945.381 512.854 949.078 512.715C951.316 512.632 951.594 510.06 950.635 509.935C947.867 509.942 945.208 508.852 943.24 506.905C942.85 506.652 942.381 506.548 941.92 506.613Z" fill="#263238"/>
<path d="M899.219 444.077C899.219 444.077 929.507 445.634 937.499 451.722C945.492 457.81 942.281 500.747 942.281 500.747H935.512C928.312 468.055 930.883 459.701 930.883 459.701C930.883 459.701 904.473 459.437 893.853 459.173C885.791 458.964 879.106 463.69 877.354 440.463L898.538 438.934L899.219 444.077Z" fill="#263238"/>
<path opacity="0.1" d="M899.219 444.077C899.219 444.077 929.507 445.634 937.499 451.722C945.492 457.81 942.281 500.747 942.281 500.747H935.512C928.312 468.055 930.883 459.701 930.883 459.701C930.883 459.701 904.473 459.437 893.853 459.173C885.791 458.964 879.106 463.69 877.354 440.463L898.538 438.934L899.219 444.077Z" fill="black"/>
<path d="M922.126 495.813L922.515 510.338L927.088 507.628L929.979 495.813H922.126Z" fill="#B97964"/>
<path d="M927.074 507.35L921.89 507.461C921.78 507.463 921.674 507.502 921.591 507.573C921.507 507.644 921.45 507.742 921.431 507.85L920.458 512.715C920.436 512.818 920.434 512.923 920.452 513.026C920.471 513.129 920.51 513.228 920.567 513.316C920.624 513.403 920.697 513.479 920.784 513.538C920.87 513.598 920.967 513.639 921.07 513.661H921.237C923.391 513.577 925.295 513.424 927.964 513.369C931.119 513.299 930.327 513.702 934.038 513.674C936.276 513.674 936.638 511.103 935.679 511.006C932.909 510.927 930.285 509.752 928.381 507.739C928.007 507.455 927.543 507.317 927.074 507.35Z" fill="#263238"/>
<path d="M928.742 501.915H921.792C920.208 469.472 922.571 462.258 922.571 462.258C922.571 462.258 893.742 461.494 884.429 459.659C882.739 459.291 881.249 458.298 880.259 456.879C879.58 455.916 879.037 454.864 878.647 453.752C876.27 447.302 877.257 438.031 877.257 438.031L887.459 437.6L891.629 437.419L899.247 437.099L900.4 442.659C900.4 442.659 928.061 444.995 933.899 453.168C939.737 461.341 928.742 501.915 928.742 501.915Z" fill="#263238"/>
<path d="M920.986 499.524L921.445 502.819H929.354L930.202 499.524H920.986Z" fill="#263238"/>
<path opacity="0.2" d="M920.986 499.524L921.445 502.819H929.354L930.202 499.524H920.986Z" fill="white"/>
<path d="M934.733 499.385L935.373 502.652L943.268 502.193L943.921 498.857L934.733 499.385Z" fill="#263238"/>
<path opacity="0.2" d="M934.733 499.385L935.373 502.652L943.268 502.193L943.921 498.857L934.733 499.385Z" fill="white"/>
<path d="M888.863 393.745C888.863 393.745 887.209 398.11 889.072 401.057L880.134 399.667C880.134 399.667 882.914 394.107 881.941 390.743C881.941 390.771 887.807 391.785 888.863 393.745Z" fill="#B97964"/>
<path opacity="0.1" d="M881.858 390.201C883.665 390.66 888.182 392.48 888.808 393.745C888.601 394.34 888.439 394.948 888.321 395.566C883.373 395.719 882.441 391.452 881.858 390.201Z" fill="black"/>
<path d="M907.35 395.566L906.155 391.577L908.045 387.754L911.687 389.756L910.923 392.883L911.367 395.038C911.423 395.316 911.421 395.603 911.361 395.88C911.301 396.158 911.185 396.42 911.02 396.65L909.95 398.165L909.644 402.419L906.155 401.71L907.35 395.566Z" fill="#B97964"/>
<path d="M902.041 418.654C898.767 416.801 895.709 414.592 892.922 412.065C890.309 409.55 887.237 406.255 887.154 402.989C887.07 399.722 890.434 398.304 892.338 400.417C895.808 404.176 899.522 407.701 903.458 410.967C904.404 406.672 905.585 400.654 906.53 396.358C907.563 397.422 908.956 398.061 910.436 398.152C910.806 403.824 910.247 409.519 908.782 415.012C908.657 415.513 908.504 415.999 908.337 416.486C908.138 417.1 907.798 417.659 907.346 418.119C906.893 418.58 906.34 418.929 905.729 419.139C905.119 419.349 904.468 419.415 903.828 419.331C903.188 419.247 902.576 419.015 902.041 418.654Z" fill="#1C51C8"/>
<path opacity="0.4" d="M902.041 418.654C898.767 416.801 895.709 414.592 892.922 412.065C890.309 409.55 887.237 406.255 887.154 402.989C887.07 399.722 890.434 398.304 892.338 400.417C895.808 404.176 899.522 407.701 903.458 410.967C904.404 406.672 905.585 400.654 906.53 396.358C907.563 397.422 908.956 398.061 910.436 398.152C910.806 403.824 910.247 409.519 908.782 415.012C908.657 415.513 908.504 415.999 908.337 416.486C908.138 417.1 907.798 417.659 907.346 418.119C906.893 418.58 906.34 418.929 905.729 419.139C905.119 419.349 904.468 419.415 903.828 419.331C903.188 419.247 902.576 419.015 902.041 418.654Z" fill="white"/>
<path d="M881.705 397.262C877.924 397.262 871.655 399.569 874.185 418.779C876.715 437.989 876.325 442.02 876.325 442.02C876.325 442.02 881.816 442.701 901.026 441.45C899.569 434.258 898.64 426.969 898.246 419.641C897.801 408.132 895.98 397.345 881.705 397.262Z" fill="#1C51C8"/>
<path opacity="0.5" d="M881.705 397.262C877.924 397.262 871.655 399.569 874.185 418.779C876.715 437.989 876.325 442.02 876.325 442.02C876.325 442.02 881.816 442.701 901.026 441.45C899.569 434.258 898.64 426.969 898.246 419.641C897.801 408.132 895.98 397.345 881.705 397.262Z" fill="white"/>
<path d="M877.91 398.318C878.279 397.296 879.032 396.458 880.009 395.983C881.163 395.552 886.375 396.206 888.905 397.081C890.045 397.484 891.824 399.861 892.644 400.862C892.644 400.862 888.961 398.513 889.711 402.405L885.778 399.833C883.873 399.013 880.885 397.318 877.91 398.318Z" fill="#1C51C8"/>
<path d="M896.967 407.27C896.939 414.871 895.921 422.436 893.937 429.774C893.246 432.366 892.402 434.914 891.407 437.405C888.594 444.395 884.798 450.947 880.134 456.865C879.455 455.902 878.912 454.85 878.522 453.738C882.077 448.724 885.018 443.301 887.279 437.586C891.79 426.168 894.051 413.986 893.937 401.71C893.937 401.71 896.967 404.142 896.967 407.27Z" fill="#263238"/>
<path d="M912.271 424.867L920.333 426.104H925.712C927.646 426.61 929.342 427.775 930.508 429.399C930.599 429.524 930.658 429.669 930.681 429.822C930.704 429.974 930.689 430.131 930.639 430.277C930.588 430.423 930.503 430.554 930.391 430.661C930.278 430.767 930.142 430.844 929.993 430.886L926.324 431.873C925.693 432.038 925.022 431.959 924.447 431.651L920.11 429.274L910.923 429.913L912.271 424.867Z" fill="#B97964"/>
<path d="M915.941 430.539C915.941 430.539 898.593 431.22 889.419 424.089C884.971 420.642 879.495 414.859 877.354 410.189C875.075 405.254 876.117 401.196 878.16 400.056C882.233 397.79 888.141 410.384 893.867 415.944C899.594 421.504 916.83 424.881 916.83 424.881L915.941 430.539Z" fill="#1C51C8"/>
<path opacity="0.4" d="M915.941 430.539C915.941 430.539 898.593 431.22 889.419 424.089C884.971 420.642 879.495 414.859 877.354 410.189C875.075 405.254 876.117 401.196 878.16 400.056C882.233 397.79 888.141 410.384 893.867 415.944C899.594 421.504 916.83 424.881 916.83 424.881L915.941 430.539Z" fill="white"/>
<path opacity="0.1" d="M889.03 397.262L889.628 402.405C889.628 402.405 889.183 400.292 890.392 400.181C891.174 400.136 891.945 400.378 892.561 400.862C892.561 400.862 890.017 397.373 889.03 397.262Z" fill="black"/>
<path d="M889.225 384.154C886.528 381.152 885.972 376.509 886.528 375.689C887.084 374.869 892.783 374.883 893.381 375.481C896.369 378.372 892.616 382.597 892.616 382.597L893.353 384.585L889.225 384.154Z" fill="#263238"/>
<path d="M879.828 382.25C880.412 387.087 880.509 389.951 883.123 392.3C884.001 393.06 885.067 393.569 886.21 393.776C887.353 393.982 888.531 393.877 889.619 393.472C890.708 393.067 891.668 392.377 892.398 391.474C893.128 390.57 893.602 389.487 893.77 388.338C894.548 383.89 893.45 376.732 888.585 375.091C887.757 374.808 886.88 374.69 886.006 374.747C885.132 374.803 884.278 375.031 883.492 375.419C882.707 375.806 882.006 376.345 881.43 377.005C880.853 377.664 880.413 378.431 880.134 379.261C879.812 380.223 879.707 381.243 879.828 382.25Z" fill="#B97964"/>
<path d="M878.967 384.307C876.576 381.068 877.994 375.314 878.661 374.577C880.44 372.673 882.066 373.562 884.137 375.508C887.195 378.288 882.511 383.112 882.511 383.112L883.039 385.183L878.967 384.307Z" fill="#263238"/>
<path d="M887.64 383.251C887.64 383.654 887.779 383.987 888.043 384.001C888.307 384.015 888.53 383.723 888.571 383.334C888.613 382.945 888.419 382.597 888.154 382.584C887.89 382.57 887.71 382.862 887.64 383.251Z" fill="#263238"/>
<path d="M892.13 383.64C892.13 384.043 892.283 384.377 892.533 384.404C892.783 384.432 893.033 384.126 893.061 383.723C893.089 383.32 892.922 382.987 892.658 382.973C892.394 382.959 892.172 383.251 892.13 383.64Z" fill="#263238"/>
<path d="M890.128 387.171L890.295 387.296C890.104 387.138 889.875 387.035 889.63 386.995C889.386 386.956 889.135 386.983 888.905 387.073C888.446 387.212 888.043 387.504 887.598 387.685C887.384 387.798 887.146 387.857 886.903 387.857C886.661 387.857 886.423 387.798 886.208 387.685C886.449 388.517 887.002 389.224 887.751 389.659C888.175 389.921 888.681 390.019 889.173 389.935C889.664 389.85 890.108 389.589 890.42 389.2C890.623 389.564 890.922 389.864 891.286 390.068C891.649 390.271 892.061 390.37 892.477 390.354C892.882 390.303 893.263 390.137 893.576 389.876C893.889 389.615 894.12 389.269 894.243 388.88C894.006 388.973 893.746 388.992 893.498 388.935C893.25 388.878 893.025 388.747 892.853 388.561C892.555 388.175 892.235 387.809 891.893 387.462C891.463 387.087 890.42 386.823 890.128 387.171Z" fill="#263238"/>
<path d="M890.42 383.64C890.792 384.883 891.329 386.071 892.019 387.171C891.732 387.339 891.412 387.443 891.081 387.476C890.75 387.51 890.415 387.472 890.1 387.365L890.42 383.64Z" fill="#A24E3F"/>
<path d="M886.25 381.263H886.139C886.095 381.219 886.07 381.159 886.07 381.096C886.07 381.034 886.095 380.974 886.139 380.929C886.378 380.65 886.681 380.432 887.022 380.294C887.363 380.156 887.732 380.102 888.099 380.137C888.129 380.14 888.159 380.15 888.186 380.165C888.213 380.181 888.236 380.202 888.254 380.226C888.273 380.251 888.285 380.28 888.292 380.31C888.299 380.34 888.299 380.371 888.293 380.401C888.29 380.432 888.28 380.462 888.265 380.488C888.25 380.515 888.229 380.538 888.204 380.557C888.179 380.575 888.151 380.588 888.121 380.595C888.091 380.601 888.06 380.602 888.029 380.596C887.74 380.575 887.45 380.622 887.182 380.733C886.914 380.844 886.676 381.016 886.486 381.235C886.453 381.26 886.413 381.276 886.372 381.281C886.33 381.286 886.288 381.28 886.25 381.263Z" fill="#263238"/>
<path d="M894.034 382C893.993 381.994 893.954 381.976 893.922 381.949C893.89 381.922 893.866 381.887 893.853 381.847C893.759 381.574 893.602 381.327 893.394 381.127C893.186 380.926 892.934 380.778 892.658 380.693C892.604 380.674 892.558 380.636 892.53 380.586C892.501 380.536 892.492 380.477 892.504 380.421C892.516 380.365 892.548 380.315 892.595 380.28C892.641 380.246 892.698 380.23 892.755 380.234C893.112 380.336 893.439 380.522 893.71 380.776C893.981 381.03 894.187 381.344 894.312 381.694C894.323 381.721 894.329 381.751 894.329 381.78C894.329 381.81 894.323 381.839 894.311 381.866C894.299 381.893 894.282 381.918 894.261 381.938C894.24 381.959 894.215 381.975 894.187 381.986C894.165 382 894.139 382.009 894.112 382.011C894.086 382.014 894.059 382.01 894.034 382Z" fill="#263238"/>
<path d="M877.59 382.347C877.59 382.347 876.2 377.163 876.951 374.688C877.702 372.214 880.662 370.115 884.082 369.295C887.501 368.475 892.269 369.031 894.729 377.149L886.014 376.551L881.677 378.594L877.59 382.347Z" fill="#1C51C8"/>
<path opacity="0.7" d="M877.59 382.347C877.59 382.347 876.2 377.163 876.951 374.688C877.702 372.214 880.662 370.115 884.082 369.295C887.501 368.475 892.269 369.031 894.729 377.149L886.014 376.551L881.677 378.594L877.59 382.347Z" fill="white"/>
<path opacity="0.4" d="M894.701 377.051C892.227 369.031 887.487 368.489 884.082 369.295C879.731 371.769 882.4 378.247 882.4 378.247L886.069 376.523L891.713 376.898L894.701 377.051Z" fill="white"/>
<path d="M877.799 383.098C877.799 383.098 884.944 374.202 894.66 378.011C894.66 378.011 900.984 376.412 895.966 374.619C888.627 372.006 882.581 377.635 882.581 377.635C882.581 377.635 876.103 381.346 877.799 383.098Z" fill="#1C51C8"/>
<path opacity="0.7" d="M877.799 383.098C877.799 383.098 884.944 374.202 894.66 378.011C894.66 378.011 900.984 376.412 895.966 374.619C888.627 372.006 882.581 377.635 882.581 377.635C882.581 377.635 876.103 381.346 877.799 383.098Z" fill="white"/>
<path d="M877.451 385.489C877.723 386.034 878.099 386.52 878.56 386.918C879.02 387.317 879.556 387.62 880.134 387.81C881.691 388.296 882.525 386.92 882.136 385.433C881.746 383.946 880.551 382.222 878.98 382.389C878.639 382.428 878.313 382.553 878.032 382.751C877.751 382.949 877.524 383.214 877.372 383.522C877.22 383.831 877.147 384.172 877.161 384.516C877.175 384.859 877.275 385.194 877.451 385.489Z" fill="#B97964"/>
</g>
<path d="M14.7212 776.19H9.15527e-05V126.695C-0.00378418 113.079 2.67468 99.5958 7.88266 87.0151C13.0906 74.4344 20.7261 63.0029 30.3527 53.3735C39.9794 43.7441 51.4087 36.1055 63.988 30.8939C76.5672 25.6824 90.0499 23 103.666 23H466.827C468.78 23 470.652 23.7755 472.032 25.1558C473.412 26.5362 474.188 28.4084 474.188 30.3605C474.188 32.3127 473.412 34.1849 472.032 35.5652C470.652 36.9456 468.78 37.7211 466.827 37.7211H103.666C80.0737 37.7289 57.4503 47.1064 40.7707 63.7914C24.0912 80.4765 14.7212 103.103 14.7212 126.695V776.19Z" fill="#1C51C8"/>
<path fill-rule="evenodd" clip-rule="evenodd" d="M481.981 569.385C483.456 572.658 447.425 581.836 444.152 583.311L13.6516 777.311C15.4517 776.5 14.5 773.5 14.5 770C14.5 766 14.5 766.5 14.5 763L438.811 571.459C442.084 569.984 480.506 566.112 481.981 569.385Z" fill="#171E27"/>
<path d="M458.555 265L98.7555 265C80.8329 265 66.3037 250.471 66.3037 232.548L66.3037 80.4776C66.3037 62.555 80.8329 48.0259 98.7555 48.0259L458.555 48.0259C476.478 48.0259 491.007 62.555 491.007 80.4776V232.548C491.007 250.471 476.478 265 458.555 265Z" fill="#B3C4FF"/>
<path d="M472.14 232.548V80.4776C472.14 76.8829 470.715 73.4348 468.178 70.8886C465.64 68.3423 462.197 66.9056 458.603 66.8931H98.7086C95.114 66.9056 91.6708 68.3423 89.1334 70.8886C86.596 73.4348 85.1713 76.8829 85.1713 80.4776V232.548C85.1713 236.143 86.596 239.591 89.1334 242.137C91.6708 244.683 95.114 246.12 98.7086 246.133H458.603C462.197 246.12 465.64 244.683 468.178 242.137C470.715 239.591 472.14 236.143 472.14 232.548ZM458.603 76.3268C459.146 76.3267 459.683 76.4344 460.184 76.6436C460.685 76.8528 461.14 77.1593 461.521 77.5454C461.903 77.9314 462.204 78.3894 462.407 78.8928C462.611 79.3961 462.713 79.9348 462.706 80.4776V232.548C462.713 233.091 462.611 233.63 462.407 234.133C462.204 234.636 461.903 235.094 461.521 235.48C461.14 235.867 460.685 236.173 460.184 236.382C459.683 236.591 459.146 236.699 458.603 236.699H98.7086C98.1657 236.699 97.6282 236.591 97.1272 236.382C96.6262 236.173 96.1718 235.867 95.7901 235.48C95.4084 235.094 95.1071 234.636 94.9037 234.133C94.7002 233.63 94.5987 233.091 94.605 232.548V80.4776C94.5987 79.9348 94.7002 79.3961 94.9037 78.8928C95.1071 78.3894 95.4084 77.9314 95.7901 77.5454C96.1718 77.1593 96.6262 76.8528 97.1272 76.6436C97.6282 76.4344 98.1657 76.3267 98.7086 76.3268H458.603Z" fill="#003BBE"/>
<path d="M165.876 134.894L172.223 109.137H175.658L175.877 114.564L169.093 141H165.46L165.876 134.894ZM161.872 109.137L167.08 134.807V141H163.119L155.897 109.137H161.872ZM182.464 134.697L187.585 109.137H193.581L186.36 141H182.399L182.464 134.697ZM177.3 109.137L183.646 134.982L184.018 141H180.385L173.623 114.542L173.886 109.137H177.3ZM206.887 141.438C205.092 141.438 203.48 141.146 202.05 140.562C200.621 139.979 199.402 139.169 198.396 138.133C197.404 137.083 196.638 135.865 196.098 134.479C195.573 133.078 195.31 131.575 195.31 129.971V129.095C195.31 127.272 195.573 125.616 196.098 124.128C196.623 122.625 197.367 121.334 198.33 120.254C199.293 119.174 200.446 118.343 201.788 117.759C203.13 117.176 204.611 116.884 206.23 116.884C207.908 116.884 209.389 117.168 210.673 117.737C211.956 118.292 213.029 119.08 213.89 120.101C214.75 121.122 215.4 122.348 215.837 123.777C216.275 125.193 216.494 126.761 216.494 128.482V130.912H197.936V126.929H210.804V126.491C210.775 125.572 210.6 124.733 210.279 123.974C209.958 123.201 209.462 122.588 208.791 122.136C208.119 121.669 207.251 121.436 206.186 121.436C205.326 121.436 204.574 121.625 203.932 122.005C203.305 122.37 202.78 122.895 202.357 123.58C201.948 124.252 201.642 125.054 201.438 125.988C201.233 126.921 201.131 127.957 201.131 129.095V129.971C201.131 130.963 201.263 131.882 201.525 132.728C201.802 133.574 202.204 134.311 202.729 134.938C203.269 135.551 203.91 136.032 204.655 136.383C205.413 136.718 206.274 136.886 207.237 136.886C208.448 136.886 209.542 136.652 210.519 136.186C211.511 135.704 212.372 134.997 213.102 134.063L216.012 137.083C215.516 137.812 214.845 138.513 213.999 139.184C213.167 139.855 212.161 140.402 210.979 140.825C209.797 141.233 208.433 141.438 206.887 141.438ZM226.495 107.386V141H220.695V107.386H226.495ZM241.726 136.886C242.543 136.886 243.272 136.725 243.914 136.404C244.556 136.083 245.067 135.631 245.446 135.048C245.84 134.464 246.052 133.786 246.081 133.012H251.53C251.501 134.617 251.048 136.054 250.173 137.324C249.298 138.593 248.13 139.599 246.672 140.343C245.227 141.073 243.608 141.438 241.813 141.438C239.99 141.438 238.399 141.131 237.043 140.519C235.686 139.906 234.555 139.052 233.651 137.958C232.761 136.864 232.09 135.595 231.637 134.15C231.2 132.706 230.981 131.16 230.981 129.511V128.811C230.981 127.162 231.2 125.616 231.637 124.171C232.09 122.727 232.761 121.458 233.651 120.364C234.555 119.269 235.686 118.416 237.043 117.803C238.399 117.19 239.982 116.884 241.791 116.884C243.703 116.884 245.38 117.256 246.825 118C248.284 118.744 249.422 119.795 250.239 121.151C251.07 122.508 251.501 124.106 251.53 125.944H246.081C246.052 125.098 245.862 124.339 245.512 123.668C245.162 122.997 244.666 122.457 244.024 122.049C243.382 121.64 242.601 121.436 241.682 121.436C240.705 121.436 239.888 121.64 239.231 122.049C238.589 122.457 238.086 123.019 237.721 123.734C237.371 124.434 237.123 125.222 236.977 126.097C236.846 126.958 236.78 127.862 236.78 128.811V129.511C236.78 130.474 236.846 131.393 236.977 132.268C237.123 133.144 237.371 133.932 237.721 134.632C238.086 135.317 238.589 135.865 239.231 136.273C239.888 136.682 240.719 136.886 241.726 136.886ZM254.353 129.402V128.942C254.353 127.206 254.601 125.608 255.097 124.149C255.593 122.676 256.315 121.399 257.263 120.32C258.212 119.24 259.372 118.401 260.743 117.803C262.114 117.19 263.675 116.884 265.426 116.884C267.206 116.884 268.782 117.19 270.153 117.803C271.539 118.401 272.706 119.24 273.654 120.32C274.603 121.399 275.325 122.676 275.821 124.149C276.317 125.608 276.565 127.206 276.565 128.942V129.402C276.565 131.123 276.317 132.721 275.821 134.194C275.325 135.653 274.603 136.93 273.654 138.024C272.706 139.103 271.546 139.942 270.175 140.54C268.803 141.139 267.235 141.438 265.47 141.438C263.719 141.438 262.151 141.139 260.765 140.54C259.379 139.942 258.212 139.103 257.263 138.024C256.315 136.93 255.593 135.653 255.097 134.194C254.601 132.721 254.353 131.123 254.353 129.402ZM260.13 128.942V129.402C260.13 130.437 260.232 131.408 260.437 132.312C260.641 133.217 260.954 134.012 261.378 134.697C261.801 135.383 262.348 135.923 263.019 136.317C263.705 136.696 264.522 136.886 265.47 136.886C266.404 136.886 267.206 136.696 267.877 136.317C268.548 135.923 269.095 135.383 269.518 134.697C269.956 134.012 270.277 133.217 270.481 132.312C270.685 131.408 270.788 130.437 270.788 129.402V128.942C270.788 127.921 270.685 126.965 270.481 126.075C270.277 125.171 269.956 124.376 269.518 123.69C269.095 122.99 268.541 122.442 267.855 122.049C267.184 121.64 266.374 121.436 265.426 121.436C264.492 121.436 263.69 121.64 263.019 122.049C262.348 122.442 261.801 122.99 261.378 123.69C260.954 124.376 260.641 125.171 260.437 126.075C260.232 126.965 260.13 127.921 260.13 128.942ZM286.522 122.18V141H280.745V117.322H286.194L286.522 122.18ZM285.669 128.307H283.896C283.896 126.659 284.093 125.141 284.487 123.756C284.895 122.37 285.494 121.166 286.281 120.145C287.069 119.109 288.039 118.306 289.192 117.737C290.359 117.168 291.709 116.884 293.24 116.884C294.305 116.884 295.283 117.044 296.173 117.365C297.063 117.672 297.829 118.161 298.471 118.832C299.127 119.488 299.631 120.349 299.981 121.414C300.331 122.464 300.506 123.726 300.506 125.2V141H294.729V125.791C294.729 124.682 294.568 123.814 294.247 123.187C293.941 122.559 293.496 122.122 292.912 121.873C292.329 121.611 291.628 121.48 290.811 121.48C289.907 121.48 289.126 121.662 288.47 122.027C287.828 122.377 287.295 122.866 286.872 123.493C286.464 124.12 286.157 124.842 285.953 125.659C285.763 126.476 285.669 127.359 285.669 128.307ZM300.068 127.235L297.683 127.673C297.697 126.185 297.902 124.791 298.296 123.493C298.69 122.18 299.266 121.035 300.024 120.057C300.798 119.065 301.753 118.292 302.891 117.737C304.044 117.168 305.371 116.884 306.874 116.884C308.041 116.884 309.092 117.052 310.025 117.387C310.974 117.708 311.783 118.226 312.455 118.941C313.126 119.641 313.636 120.553 313.986 121.677C314.351 122.8 314.533 124.171 314.533 125.791V141H308.712V125.769C308.712 124.616 308.552 123.734 308.231 123.121C307.925 122.508 307.48 122.085 306.896 121.852C306.312 121.604 305.627 121.48 304.839 121.48C304.037 121.48 303.336 121.633 302.738 121.939C302.154 122.231 301.658 122.639 301.25 123.165C300.856 123.69 300.557 124.303 300.353 125.003C300.163 125.689 300.068 126.433 300.068 127.235ZM330.356 141.438C328.561 141.438 326.949 141.146 325.519 140.562C324.089 139.979 322.871 139.169 321.865 138.133C320.873 137.083 320.107 135.865 319.567 134.479C319.042 133.078 318.779 131.575 318.779 129.971V129.095C318.779 127.272 319.042 125.616 319.567 124.128C320.092 122.625 320.836 121.334 321.799 120.254C322.762 119.174 323.914 118.343 325.257 117.759C326.599 117.176 328.08 116.884 329.699 116.884C331.377 116.884 332.858 117.168 334.141 117.737C335.425 118.292 336.498 119.08 337.358 120.101C338.219 121.122 338.868 122.348 339.306 123.777C339.744 125.193 339.963 126.761 339.963 128.482V130.912H321.405V126.929H334.273V126.491C334.244 125.572 334.068 124.733 333.748 123.974C333.427 123.201 332.931 122.588 332.259 122.136C331.588 121.669 330.72 121.436 329.655 121.436C328.794 121.436 328.043 121.625 327.401 122.005C326.774 122.37 326.249 122.895 325.826 123.58C325.417 124.252 325.111 125.054 324.906 125.988C324.702 126.921 324.6 127.957 324.6 129.095V129.971C324.6 130.963 324.731 131.882 324.994 132.728C325.271 133.574 325.672 134.311 326.198 134.938C326.737 135.551 327.379 136.032 328.123 136.383C328.882 136.718 329.743 136.886 330.706 136.886C331.917 136.886 333.011 136.652 333.988 136.186C334.98 135.704 335.841 134.997 336.571 134.063L339.481 137.083C338.985 137.812 338.314 138.513 337.468 139.184C336.636 139.855 335.63 140.402 334.448 140.825C333.266 141.233 331.902 141.438 330.356 141.438ZM377.362 117.322V121.48H363.794V117.322H377.362ZM367.427 111.501H373.226V134.172C373.226 134.873 373.321 135.412 373.511 135.792C373.7 136.171 373.985 136.426 374.364 136.558C374.743 136.689 375.196 136.755 375.721 136.755C376.1 136.755 376.45 136.733 376.771 136.689C377.092 136.645 377.362 136.601 377.581 136.558L377.603 140.891C377.121 141.051 376.574 141.182 375.962 141.284C375.363 141.387 374.685 141.438 373.926 141.438C372.628 141.438 371.49 141.219 370.512 140.781C369.535 140.329 368.776 139.607 368.237 138.615C367.697 137.608 367.427 136.28 367.427 134.632V111.501ZM379.616 129.402V128.942C379.616 127.206 379.864 125.608 380.36 124.149C380.856 122.676 381.578 121.399 382.527 120.32C383.475 119.24 384.635 118.401 386.006 117.803C387.378 117.19 388.939 116.884 390.689 116.884C392.469 116.884 394.045 117.19 395.416 117.803C396.802 118.401 397.969 119.24 398.918 120.32C399.866 121.399 400.588 122.676 401.084 124.149C401.58 125.608 401.828 127.206 401.828 128.942V129.402C401.828 131.123 401.58 132.721 401.084 134.194C400.588 135.653 399.866 136.93 398.918 138.024C397.969 139.103 396.81 139.942 395.438 140.54C394.067 141.139 392.498 141.438 390.733 141.438C388.982 141.438 387.414 141.139 386.028 140.54C384.642 139.942 383.475 139.103 382.527 138.024C381.578 136.93 380.856 135.653 380.36 134.194C379.864 132.721 379.616 131.123 379.616 129.402ZM385.393 128.942V129.402C385.393 130.437 385.496 131.408 385.7 132.312C385.904 133.217 386.218 134.012 386.641 134.697C387.064 135.383 387.611 135.923 388.282 136.317C388.968 136.696 389.785 136.886 390.733 136.886C391.667 136.886 392.469 136.696 393.14 136.317C393.811 135.923 394.359 135.383 394.782 134.697C395.219 134.012 395.54 133.217 395.745 132.312C395.949 131.408 396.051 130.437 396.051 129.402V128.942C396.051 127.921 395.949 126.965 395.745 126.075C395.54 125.171 395.219 124.376 394.782 123.69C394.359 122.99 393.804 122.442 393.118 122.049C392.447 121.64 391.638 121.436 390.689 121.436C389.756 121.436 388.953 121.64 388.282 122.049C387.611 122.442 387.064 122.99 386.641 123.69C386.218 124.376 385.904 125.171 385.7 126.075C385.496 126.965 385.393 127.921 385.393 128.942Z" fill="#062368"/>
<path d="M223.22 169.747H231.061L241.225 199.979L251.36 169.747H259.201L244.39 212.03H238.03L223.22 169.747ZM218.689 169.747H226.676L228.157 201.082V212.03H218.689V169.747ZM255.745 169.747H263.76V212.03H254.264V201.082L255.745 169.747ZM280.255 169.747V212.03H270.788V169.747H280.255ZM305.52 169.747L288.967 190.889L279.326 201.343L277.612 192.544L283.972 183.426L293.904 169.747H305.52ZM294.543 212.03L282.869 192.718L290.071 187.114L305.753 212.03H294.543ZM322.102 212.03H312.809L312.867 204.712H322.102C324.213 204.712 325.994 204.228 327.446 203.26C328.898 202.273 330.001 200.821 330.756 198.904C331.511 196.968 331.889 194.616 331.889 191.847V189.902C331.889 187.811 331.676 185.971 331.25 184.384C330.824 182.777 330.195 181.431 329.362 180.347C328.53 179.263 327.494 178.45 326.255 177.908C325.035 177.366 323.632 177.095 322.044 177.095H312.635V169.747H322.044C324.91 169.747 327.523 170.231 329.885 171.199C332.266 172.168 334.319 173.552 336.042 175.352C337.784 177.153 339.13 179.282 340.078 181.741C341.027 184.2 341.501 186.939 341.501 189.96V191.847C341.501 194.848 341.027 197.588 340.078 200.066C339.13 202.524 337.784 204.654 336.042 206.455C334.319 208.236 332.276 209.61 329.914 210.578C327.552 211.546 324.948 212.03 322.102 212.03ZM318.182 169.747V212.03H308.715V169.747H318.182Z" fill="#062368"/>
</svg>
