<svg width="47" height="47" viewBox="0 0 47 47" fill="none" xmlns="http://www.w3.org/2000/svg">
<rect width="47" height="47" rx="23.5" fill="#E89271"/>
<path d="M23.4191 22.2295C26.3173 22.2295 28.6751 19.8717 28.6751 16.9738C28.6751 14.0756 26.3171 11.7178 23.4191 11.7178C20.5209 11.7178 18.1628 14.0756 18.1628 16.9738C18.1628 19.8717 20.5209 22.2295 23.4191 22.2295Z" fill="white"/>
<path d="M14.4599 26.4147C14.4466 25.9535 14.0296 25.583 13.5144 25.583C12.9911 25.583 12.5667 25.9654 12.5667 26.4371V28.2772H13.1542C13.5265 27.6207 13.9629 26.9972 14.4599 26.4147Z" fill="white"/>
<path d="M34.4335 28.5553V26.7152C34.4335 26.2435 34.0091 25.8608 33.4855 25.8608C33.0566 25.8608 32.6987 26.1194 32.5815 26.4713C33.127 27.1184 33.594 27.8183 33.9864 28.5553H34.4335Z" fill="white"/>
<path d="M29.8168 33.6123C29.8168 33.375 29.8753 33.1516 29.9744 32.9523H27.4651C27.3846 32.7208 27.2877 32.4971 27.1706 32.2859L29.8287 29.927C29.8894 29.1612 30.5242 28.5551 31.3047 28.5551H32.5379H33.0415C32.8842 28.2868 32.7162 28.0252 32.5379 27.7718C32.2898 27.4197 32.0237 27.0811 31.7372 26.7607C31.7239 26.7438 31.7142 26.7253 31.6995 26.709C31.6868 26.6943 31.6713 26.684 31.6583 26.6705C29.6355 24.4556 26.7259 23.0635 23.4968 23.0635C20.2691 23.0635 17.3607 24.4544 15.3382 26.6683C15.3241 26.6829 15.3077 26.6937 15.2942 26.709C15.2806 26.7242 15.2714 26.7419 15.2587 26.7582C14.9738 27.0766 14.7091 27.4136 14.4622 27.7635C14.344 27.931 14.2318 28.1035 14.1227 28.2774H14.4622H15.6953C16.5157 28.2774 17.1832 28.9449 17.1832 29.7655C17.1832 29.8218 17.1757 29.876 17.1696 29.9306L19.7221 32.1961C19.5822 32.4345 19.4651 32.6873 19.3729 32.9523H17.1284C17.1613 33.0749 17.1832 33.202 17.1832 33.3349C17.1832 34.1552 16.5157 34.8228 15.6953 34.8228H12.6877C12.9007 35.1002 13.2321 35.2818 13.6086 35.2818H33.3856C33.387 35.2821 33.3878 35.2821 33.3889 35.2821C33.3901 35.2821 33.3909 35.2821 33.3914 35.2818C33.6196 35.2818 33.8308 35.2137 34.0105 35.1005H31.3047C30.4844 35.1005 29.8168 34.4329 29.8168 33.6123ZM23.419 30.072C22.6909 30.072 22.0056 30.2548 21.4051 30.5751L17.8817 27.4482C19.4003 26.1674 21.3594 25.393 23.4968 25.393C25.6342 25.393 27.5933 26.1674 29.1119 27.4482L25.5279 30.6294C24.905 30.2761 24.1862 30.072 23.419 30.072Z" fill="white"/>
<path d="M16.4912 33.3346C16.4912 33.195 16.4521 33.066 16.389 32.9519C16.2534 32.7066 15.9956 32.5389 15.6955 32.5389H14.9191H13.3097V32.3334H14.9593H15.6952C15.9031 32.3334 16.0908 32.252 16.2323 32.1213C16.3901 31.976 16.4909 31.7695 16.4909 31.5377C16.4909 31.3195 16.4029 31.1221 16.2606 30.9782C16.1163 30.8325 15.9164 30.7417 15.6952 30.7417H15.4579H14.1854H13.3097V30.5609H14.3336H15.5346H15.6952C16.1349 30.5609 16.4909 30.2046 16.4909 29.7652C16.4909 29.5576 16.4095 29.3701 16.2791 29.2284C16.1337 29.0703 15.9269 28.9692 15.6952 28.9692H14.462H13.7236H12.792H12.5666H12.2474C12.2197 28.9692 12.1942 28.9748 12.1674 28.9775C12.125 28.9726 12.0832 28.9692 12.0428 28.9692C10.7883 28.9692 10.8406 31.5374 10.8406 31.5374C10.8406 31.5374 10.8379 34.13 12.0428 34.13C12.0832 34.13 12.125 34.1267 12.1674 34.122C12.1942 34.1253 12.2197 34.13 12.2474 34.13H12.4451H15.6952C16.1349 34.1303 16.4912 33.7742 16.4912 33.3346Z" fill="white"/>
<path d="M34.9574 29.2476C34.9169 29.2476 34.8749 29.2509 34.833 29.2556C34.8062 29.2528 34.7804 29.2476 34.7528 29.2476H34.4338H34.3242H33.4138H32.5381H31.305C31.1267 29.2476 30.9639 29.3085 30.8312 29.4073C30.6369 29.5524 30.5095 29.7822 30.5095 30.0435C30.5095 30.4827 30.8653 30.839 31.305 30.839H31.5779H32.6666H33.6904V31.0198H32.8147H31.6505H31.305C31.1225 31.0198 30.9561 31.0835 30.8221 31.187C30.633 31.3324 30.5095 31.5586 30.5095 31.8155C30.5095 31.9243 30.5317 32.0276 30.571 32.1217C30.6909 32.4091 30.9741 32.6115 31.305 32.6115H32.0877H33.6904V32.8166H32.1214H31.305C31.1402 32.8166 30.9874 32.8667 30.8606 32.9523C30.6488 33.0954 30.5095 33.3377 30.5095 33.6123C30.5095 34.052 30.8653 34.4083 31.305 34.4083H34.5155H34.7528C34.7804 34.4083 34.8062 34.4031 34.833 34.4C34.8749 34.405 34.9172 34.4083 34.9574 34.4083C36.162 34.4083 36.1592 31.8155 36.1592 31.8155C36.1592 31.8155 36.2118 29.2476 34.9574 29.2476Z" fill="white"/>
<rect x="18.4286" y="30.4286" width="11.1429" height="11.1429" rx="5.57143" fill="white"/>
<rect x="18.4286" y="30.4286" width="11.1429" height="11.1429" rx="5.57143" stroke="#E89271" stroke-width="0.857143"/>
<path d="M23.3029 38L22 36.2556L22.3657 35.8045L23.3029 37.0376L25.6571 34L26 34.4812L23.3029 38Z" fill="#E89271" stroke="#E89271"/>
</svg>
