<svg width="48" height="49" viewBox="0 0 48 49" fill="none" xmlns="http://www.w3.org/2000/svg">
<rect width="48" height="48.4266" rx="24" fill="#F0C274"/>
<g clip-path="url(#clip0_46_8390)">
<path d="M23.1955 23.3259L20.5287 15.3253C21.3588 15.8023 22.5038 16.1983 24.0018 16.1983C25.4998 16.1983 26.6448 15.8023 27.475 15.3253L24.1211 25.3869C24.0448 25.6207 24.0018 25.864 24.0018 26.1121V34.1366C24.0018 35.4009 25.0275 36.4266 26.2918 36.4266H32.3984C33.6627 36.4266 34.6884 35.4009 34.6884 34.1366V24.9051C34.6884 24.4518 34.5549 24.0129 34.302 23.636L32.0168 20.2106C31.7639 19.8337 31.6303 19.3948 31.6303 18.9415V18.1066V14.5906V14.29C31.6303 13.0257 30.6046 12 29.3404 12H29.1257C29.1161 12 29.1066 12 29.097 12C29.078 12 29.0589 12 29.0398 12C28.1524 12 27.4225 12.4628 26.9454 12.8969C26.5017 13.2977 25.5857 13.9083 24.0018 13.9083C22.4179 13.9083 21.5019 13.2977 21.0582 12.8969C20.5811 12.4628 19.8512 12 18.9591 12C18.94 12 18.9209 12 18.9018 12C18.8923 12 18.8827 12 18.8732 12H18.6585C17.3942 12 16.3685 13.0257 16.3685 14.29V14.5906V18.1066V18.9415C16.3685 19.3948 16.2349 19.8337 15.9821 20.2106L13.7016 23.636C13.4488 24.0129 13.3152 24.4566 13.3152 24.9051V34.1366C13.3152 35.4009 14.3409 36.4266 15.6052 36.4266H21.7118C22.1841 36.4266 22.6183 36.2834 22.9856 36.0401C22.6612 35.482 22.4752 34.8284 22.4752 34.1366V26.1121C22.4752 25.7018 22.5419 25.2963 22.6708 24.9051L23.1955 23.3259ZM29.8842 29.0175L32.1742 31.3075C32.47 31.6033 32.47 32.0899 32.1742 32.3857C31.8784 32.6815 31.3918 32.6815 31.096 32.3857L28.806 30.0957C28.5102 29.7999 28.5102 29.3133 28.806 29.0175C29.1018 28.7217 29.5884 28.7217 29.8842 29.0175ZM15.8294 31.3075L18.1194 29.0175C18.4152 28.7217 18.9018 28.7217 19.1976 29.0175C19.4934 29.3133 19.4934 29.7999 19.1976 30.0957L16.9076 32.3857C16.6118 32.6815 16.1252 32.6815 15.8294 32.3857C15.5336 32.0899 15.5336 31.6033 15.8294 31.3075Z" fill="white"/>
</g>
<defs>
<clipPath id="clip0_46_8390">
<rect width="21.3733" height="24.4266" fill="white" transform="translate(13.3135 12)"/>
</clipPath>
</defs>
</svg>
