<svg width="48" height="49" viewBox="0 0 48 49" fill="none" xmlns="http://www.w3.org/2000/svg">
<rect width="48" height="48.4266" rx="24" fill="#70A1E6"/>
<g clip-path="url(#clip0_46_8379)">
<path d="M24.7659 15.8167H29.6655C29.2886 14.8863 28.6923 14.0753 27.9385 13.436L24.7659 15.8167ZM26.5645 12.563C25.7821 12.2004 24.9185 12 24.0025 12C21.4406 12 19.246 13.5791 18.3396 15.8167H22.223L26.5645 12.563ZM24.0025 24.2133C27.3755 24.2133 30.1092 21.4796 30.1092 18.1066C30.1092 17.849 30.0949 17.5914 30.0615 17.3433H17.9436C17.9102 17.5914 17.8959 17.849 17.8959 18.1066C17.8959 21.4796 20.6296 24.2133 24.0025 24.2133ZM19.2317 26.904C18.769 27.0519 18.3205 27.238 17.8959 27.4622V36.4266H24.9424L21.9749 31.4745L19.2317 26.904ZM20.8061 26.5605L23.0627 30.3199H26.2925C28.4012 30.3199 30.1092 32.0279 30.1092 34.1366C30.1092 34.9953 29.8229 35.7873 29.3459 36.4266H33.2722C34.0547 36.4266 34.6892 35.7921 34.6892 35.0096C34.6892 30.3104 30.8821 26.5033 26.1828 26.5033H21.8223C21.4788 26.5033 21.1401 26.5224 20.8061 26.5653V26.5605ZM13.3159 35.0096C13.3159 35.7921 13.9504 36.4266 14.7329 36.4266H16.3692V28.4784C14.5039 30.0385 13.3159 32.3857 13.3159 35.0096ZM28.5825 34.1366C28.5825 32.8723 27.5568 31.8466 26.2925 31.8466H23.9787L26.7028 36.3884C27.7715 36.1976 28.5825 35.2625 28.5825 34.1366Z" fill="white"/>
</g>
<defs>
<clipPath id="clip0_46_8379">
<rect width="21.3733" height="24.4266" fill="white" transform="translate(13.3135 12)"/>
</clipPath>
</defs>
</svg>
