<svg width="695" height="461" viewBox="0 0 695 461" fill="none" xmlns="http://www.w3.org/2000/svg">
<path d="M625.361 455.901H579.324V456.249H625.361V455.901Z" fill="#EBEBEB"/>
<path d="M460.396 459.682H448.317V460.029H460.396V459.682Z" fill="#EBEBEB"/>
<path d="M577.934 443.002H551.26V443.349H577.934V443.002Z" fill="#EBEBEB"/>
<path d="M132.954 445.337H72.9195V445.685H132.954V445.337Z" fill="#EBEBEB"/>
<path d="M154.137 445.337H145.339V445.685H154.137V445.337Z" fill="#EBEBEB"/>
<path d="M312.959 451.203H182.743V451.55H312.959V451.203Z" fill="#EBEBEB"/>
<path d="M695 433.536H0.00012207V433.884H695V433.536Z" fill="#EBEBEB"/>
<path d="M341.718 177.887H360.163V159.442H341.718V177.887Z" fill="#FAFAFA"/>
<path d="M320.84 177.887H339.285V159.442H320.84V177.887Z" fill="#F0F0F0"/>
<path d="M299.962 177.887H318.407V159.442H299.962V177.887Z" fill="#FAFAFA"/>
<path d="M341.718 198.501H360.163V180.056H341.718V198.501Z" fill="#FAFAFA"/>
<path d="M320.84 198.501H339.285V180.056H320.84V198.501Z" fill="#FAFAFA"/>
<path d="M299.962 198.501H318.407V180.056H299.962V198.501Z" fill="#FAFAFA"/>
<path d="M341.718 219.101H360.163V200.655H341.718V219.101Z" fill="#FAFAFA"/>
<path d="M320.84 219.101H339.285V200.655H320.84V219.101Z" fill="#F0F0F0"/>
<path d="M299.962 219.101H318.407V200.655H299.962V219.101Z" fill="#FAFAFA"/>
<path d="M341.718 239.701H360.163V221.255H341.718V239.701Z" fill="#F0F0F0"/>
<path d="M320.84 239.701H339.285V221.255H320.84V239.701Z" fill="#FAFAFA"/>
<path d="M299.962 239.701H318.407V221.255H299.962V239.701Z" fill="#FAFAFA"/>
<path d="M341.718 260.3H360.163V241.855H341.718V260.3Z" fill="#FAFAFA"/>
<path d="M320.84 260.3H339.285V241.855H320.84V260.3Z" fill="#FAFAFA"/>
<path d="M299.962 260.3H318.407V241.855H299.962V260.3Z" fill="#F0F0F0"/>
<path d="M341.718 280.9H360.163V262.455H341.718V280.9Z" fill="#FAFAFA"/>
<path d="M320.84 280.9H339.285V262.455H320.84V280.9Z" fill="#F0F0F0"/>
<path d="M299.962 280.9H318.407V262.455H299.962V280.9Z" fill="#FAFAFA"/>
<path d="M341.718 301.5H360.163V283.055H341.718V301.5Z" fill="#F0F0F0"/>
<path d="M320.84 301.5H339.285V283.055H320.84V301.5Z" fill="#F0F0F0"/>
<path d="M299.962 301.5H318.407V283.055H299.962V301.5Z" fill="#FAFAFA"/>
<path d="M341.718 322.1H360.163V303.654H341.718V322.1Z" fill="#FAFAFA"/>
<path d="M320.84 322.1H339.285V303.654H320.84V322.1Z" fill="#F0F0F0"/>
<path d="M299.962 322.1H318.407V303.654H299.962V322.1Z" fill="#FAFAFA"/>
<path d="M341.718 342.713H360.163V324.268H341.718V342.713Z" fill="#FAFAFA"/>
<path d="M320.84 342.713H339.285V324.268H320.84V342.713Z" fill="#FAFAFA"/>
<path d="M299.962 342.713H318.407V324.268H299.962V342.713Z" fill="#FAFAFA"/>
<path d="M341.718 363.313H360.163V344.868H341.718V363.313Z" fill="#F0F0F0"/>
<path d="M320.84 363.313H339.285V344.868H320.84V363.313Z" fill="#FAFAFA"/>
<path d="M299.962 363.313H318.407V344.868H299.962V363.313Z" fill="#F0F0F0"/>
<path d="M341.718 383.913H360.163V365.468H341.718V383.913Z" fill="#FAFAFA"/>
<path d="M320.84 383.913H339.285V365.468H320.84V383.913Z" fill="#F0F0F0"/>
<path d="M299.962 383.913H318.407V365.468H299.962V383.913Z" fill="#FAFAFA"/>
<path d="M341.718 404.499H360.163V386.054H341.718V404.499Z" fill="#F0F0F0"/>
<path d="M320.84 404.499H339.285V386.054H320.84V404.499Z" fill="#FAFAFA"/>
<path d="M299.962 404.499H318.407V386.054H299.962V404.499Z" fill="#FAFAFA"/>
<path d="M570.317 226.495H585.246V211.567H570.317V226.495Z" fill="#FAFAFA"/>
<path d="M553.415 226.495H568.343V211.567H553.415V226.495Z" fill="#F0F0F0"/>
<path d="M536.512 226.495H551.441V211.567H536.512V226.495Z" fill="#FAFAFA"/>
<path d="M570.317 243.176H585.246V228.247H570.317V243.176Z" fill="#FAFAFA"/>
<path d="M553.415 243.176H568.343V228.247H553.415V243.176Z" fill="#FAFAFA"/>
<path d="M536.512 243.176H551.441V228.247H536.512V243.176Z" fill="#FAFAFA"/>
<path d="M570.317 259.856H585.246V244.927H570.317V259.856Z" fill="#FAFAFA"/>
<path d="M553.415 259.856H568.343V244.927H553.415V259.856Z" fill="#F0F0F0"/>
<path d="M536.512 259.856H551.441V244.927H536.512V259.856Z" fill="#FAFAFA"/>
<path d="M570.317 276.535H585.246V261.607H570.317V276.535Z" fill="#F0F0F0"/>
<path d="M553.415 276.535H568.343V261.607H553.415V276.535Z" fill="#FAFAFA"/>
<path d="M536.512 276.535H551.441V261.607H536.512V276.535Z" fill="#FAFAFA"/>
<path d="M570.317 293.202H585.246V278.273H570.317V293.202Z" fill="#FAFAFA"/>
<path d="M553.415 293.202H568.343V278.273H553.415V293.202Z" fill="#FAFAFA"/>
<path d="M536.512 293.202H551.441V278.273H536.512V293.202Z" fill="#F0F0F0"/>
<path d="M570.317 309.868H585.246V294.939H570.317V309.868Z" fill="#FAFAFA"/>
<path d="M553.415 309.868H568.343V294.939H553.415V309.868Z" fill="#F0F0F0"/>
<path d="M536.512 309.868H551.441V294.939H536.512V309.868Z" fill="#FAFAFA"/>
<path d="M570.317 326.562H585.246V311.633H570.317V326.562Z" fill="#F0F0F0"/>
<path d="M553.415 326.562H568.343V311.633H553.415V326.562Z" fill="#F0F0F0"/>
<path d="M536.512 326.562H551.441V311.633H536.512V326.562Z" fill="#FAFAFA"/>
<path d="M570.317 343.228H585.246V328.299H570.317V343.228Z" fill="#FAFAFA"/>
<path d="M553.415 343.228H568.343V328.299H553.415V343.228Z" fill="#F0F0F0"/>
<path d="M536.512 343.228H551.441V328.299H536.512V343.228Z" fill="#FAFAFA"/>
<path d="M570.317 359.908H585.246V344.979H570.317V359.908Z" fill="#FAFAFA"/>
<path d="M553.415 359.908H568.343V344.979H553.415V359.908Z" fill="#FAFAFA"/>
<path d="M536.512 359.908H551.441V344.979H536.512V359.908Z" fill="#FAFAFA"/>
<path d="M570.317 376.574H585.246V361.645H570.317V376.574Z" fill="#F0F0F0"/>
<path d="M553.415 376.574H568.343V361.645H553.415V376.574Z" fill="#FAFAFA"/>
<path d="M536.512 376.574H551.441V361.645H536.512V376.574Z" fill="#F0F0F0"/>
<path d="M570.317 393.268H585.246V378.339H570.317V393.268Z" fill="#FAFAFA"/>
<path d="M553.415 393.268H568.343V378.339H553.415V393.268Z" fill="#F0F0F0"/>
<path d="M536.512 393.268H551.441V378.339H536.512V393.268Z" fill="#FAFAFA"/>
<path d="M570.317 409.934H585.246V395.005H570.317V409.934Z" fill="#F0F0F0"/>
<path d="M553.415 409.934H568.343V395.005H553.415V409.934Z" fill="#FAFAFA"/>
<path d="M536.512 409.934H551.441V395.005H536.512V409.934Z" fill="#FAFAFA"/>
<path d="M490.031 184.434H481.065V193.4H490.031V184.434Z" fill="#FAFAFA"/>
<path d="M477.507 197.973H468.541V206.938H477.507V197.973Z" fill="#FAFAFA"/>
<path d="M477.507 211.497H468.541V220.463H477.507V211.497Z" fill="#FAFAFA"/>
<path d="M490.031 211.497H481.065V220.463H490.031V211.497Z" fill="#FAFAFA"/>
<path d="M502.555 211.497H493.589V220.463H502.555V211.497Z" fill="#FAFAFA"/>
<path d="M477.507 238.547H468.541V247.512H477.507V238.547Z" fill="#FAFAFA"/>
<path d="M502.555 238.547H493.589V247.512H502.555V238.547Z" fill="#FAFAFA"/>
<path d="M490.031 252.085H481.065V261.051H490.031V252.085Z" fill="#FAFAFA"/>
<path d="M477.507 265.61H468.541V274.576H477.507V265.61Z" fill="#FAFAFA"/>
<path d="M502.555 265.61H493.589V274.576H502.555V265.61Z" fill="#FAFAFA"/>
<path d="M515.092 265.61H506.127V274.576H515.092V265.61Z" fill="#FAFAFA"/>
<path d="M490.031 279.135H481.065V288.1H490.031V279.135Z" fill="#FAFAFA"/>
<path d="M477.507 292.66H468.541V301.625H477.507V292.66Z" fill="#FAFAFA"/>
<path d="M490.031 292.66H481.065V301.625H490.031V292.66Z" fill="#FAFAFA"/>
<path d="M515.092 292.66H506.127V301.625H515.092V292.66Z" fill="#FAFAFA"/>
<path d="M477.585 305.971L468.62 305.843L468.492 314.807L477.457 314.936L477.585 305.971Z" fill="#FAFAFA"/>
<path d="M502.625 306.343L493.66 306.215L493.532 315.179L502.497 315.308L502.625 306.343Z" fill="#FAFAFA"/>
<path d="M515.159 306.523L506.194 306.394L506.066 315.359L515.031 315.487L515.159 306.523Z" fill="#FAFAFA"/>
<path d="M490.031 319.723H481.065V328.688H490.031V319.723Z" fill="#FAFAFA"/>
<path d="M506.127 340.99H515.092V332.024H506.127V340.99Z" fill="#FAFAFA"/>
<path d="M481.079 340.99H490.045V332.024H481.079V340.99Z" fill="#FAFAFA"/>
<path d="M468.541 340.99H477.507V332.024H468.541V340.99Z" fill="#FAFAFA"/>
<path d="M493.589 354.515H502.555V345.549H493.589V354.515Z" fill="#FAFAFA"/>
<path d="M506.127 368.039H515.092V359.074H506.127V368.039Z" fill="#FAFAFA"/>
<path d="M493.589 368.039H502.555V359.074H493.589V368.039Z" fill="#FAFAFA"/>
<path d="M468.541 368.039H477.507V359.074H468.541V368.039Z" fill="#FAFAFA"/>
<path d="M506.19 381.339L515.155 381.21L515.026 372.246L506.062 372.374L506.19 381.339Z" fill="#FAFAFA"/>
<path d="M481.163 381.703L490.127 381.575L489.999 372.61L481.034 372.738L481.163 381.703Z" fill="#FAFAFA"/>
<path d="M468.621 381.899L477.585 381.771L477.457 372.806L468.493 372.934L468.621 381.899Z" fill="#FAFAFA"/>
<path d="M493.589 395.102H502.555V386.137H493.589V395.102Z" fill="#FAFAFA"/>
<path d="M410.759 150.921H399.792V161.888H410.759V150.921Z" fill="#FAFAFA"/>
<path d="M426.077 150.921H415.11V161.888H426.077V150.921Z" fill="#FAFAFA"/>
<path d="M395.441 167.476H384.474V178.443H395.441V167.476Z" fill="#FAFAFA"/>
<path d="M410.759 167.476H399.792V178.443H410.759V167.476Z" fill="#FAFAFA"/>
<path d="M441.395 167.476H430.427V178.443H441.395V167.476Z" fill="#FAFAFA"/>
<path d="M395.441 184.017H384.474V194.984H395.441V184.017Z" fill="#FAFAFA"/>
<path d="M426.077 184.017H415.11V194.984H426.077V184.017Z" fill="#FAFAFA"/>
<path d="M441.395 184.017H430.427V194.984H441.395V184.017Z" fill="#FAFAFA"/>
<path d="M395.441 217.099H384.474V228.066H395.441V217.099Z" fill="#FAFAFA"/>
<path d="M426.077 217.099H415.11V228.066H426.077V217.099Z" fill="#FAFAFA"/>
<path d="M395.441 233.64H384.474V244.607H395.441V233.64Z" fill="#FAFAFA"/>
<path d="M410.759 233.64H399.792V244.607H410.759V233.64Z" fill="#FAFAFA"/>
<path d="M441.395 233.64H430.427V244.607H441.395V233.64Z" fill="#FAFAFA"/>
<path d="M395.441 316.248H384.474V327.215H395.441V316.248Z" fill="#FAFAFA"/>
<path d="M410.759 316.248H399.792V327.215H410.759V316.248Z" fill="#FAFAFA"/>
<path d="M441.395 316.248H430.427V327.215H441.395V316.248Z" fill="#FAFAFA"/>
<path d="M395.441 332.789H384.474V343.756H395.441V332.789Z" fill="#FAFAFA"/>
<path d="M426.077 332.789H415.11V343.756H426.077V332.789Z" fill="#FAFAFA"/>
<path d="M441.395 332.789H430.427V343.756H441.395V332.789Z" fill="#FAFAFA"/>
<path d="M395.441 365.885H384.474V376.852H395.441V365.885Z" fill="#FAFAFA"/>
<path d="M426.077 365.885H415.11V376.852H426.077V365.885Z" fill="#FAFAFA"/>
<path d="M395.441 382.426H384.474V393.393H395.441V382.426Z" fill="#FAFAFA"/>
<path d="M410.759 382.426H399.792V393.393H410.759V382.426Z" fill="#FAFAFA"/>
<path d="M441.395 382.426H430.427V393.393H441.395V382.426Z" fill="#FAFAFA"/>
<path d="M441.395 250.181H430.427V261.148H441.395V250.181Z" fill="#FAFAFA"/>
<path d="M395.441 266.736H384.474V277.703H395.441V266.736Z" fill="#FAFAFA"/>
<path d="M410.759 266.736H399.792V277.703H410.759V266.736Z" fill="#FAFAFA"/>
<path d="M426.163 283.456L415.197 283.299L415.04 294.265L426.006 294.422L426.163 283.456Z" fill="#FAFAFA"/>
<path d="M441.476 283.689L430.51 283.532L430.353 294.498L441.319 294.655L441.476 283.689Z" fill="#FAFAFA"/>
<path d="M395.441 299.818H384.474V310.785H395.441V299.818Z" fill="#FAFAFA"/>
<path d="M241.679 185.894H259.541V168.032H241.679V185.894Z" fill="#FAFAFA"/>
<path d="M221.441 185.894H239.303V168.032H221.441V185.894Z" fill="#F0F0F0"/>
<path d="M201.216 185.894H219.078V168.032H201.216V185.894Z" fill="#FAFAFA"/>
<path d="M241.679 205.854H259.541V187.993H241.679V205.854Z" fill="#FAFAFA"/>
<path d="M221.441 205.854H239.303V187.993H221.441V205.854Z" fill="#FAFAFA"/>
<path d="M201.216 205.854H219.078V187.993H201.216V205.854Z" fill="#FAFAFA"/>
<path d="M241.679 225.8H259.541V207.939H241.679V225.8Z" fill="#FAFAFA"/>
<path d="M221.441 225.8H239.303V207.939H221.441V225.8Z" fill="#F0F0F0"/>
<path d="M201.216 225.8H219.078V207.939H201.216V225.8Z" fill="#FAFAFA"/>
<path d="M241.679 245.761H259.541V227.899H241.679V245.761Z" fill="#F0F0F0"/>
<path d="M221.441 245.761H239.303V227.899H221.441V245.761Z" fill="#FAFAFA"/>
<path d="M201.216 245.761H219.078V227.899H201.216V245.761Z" fill="#FAFAFA"/>
<path d="M241.679 265.721H259.541V247.86H241.679V265.721Z" fill="#FAFAFA"/>
<path d="M221.441 265.721H239.303V247.86H221.441V265.721Z" fill="#FAFAFA"/>
<path d="M201.216 265.721H219.078V247.86H201.216V265.721Z" fill="#F0F0F0"/>
<path d="M241.679 285.668H259.541V267.806H241.679V285.668Z" fill="#FAFAFA"/>
<path d="M221.441 285.668H239.303V267.806H221.441V285.668Z" fill="#F0F0F0"/>
<path d="M201.216 285.668H219.078V267.806H201.216V285.668Z" fill="#FAFAFA"/>
<path d="M241.679 305.628H259.541V287.767H241.679V305.628Z" fill="#F0F0F0"/>
<path d="M221.441 305.628H239.303V287.767H221.441V305.628Z" fill="#F0F0F0"/>
<path d="M201.216 305.628H219.078V287.767H201.216V305.628Z" fill="#FAFAFA"/>
<path d="M241.679 325.575H259.541V307.713H241.679V325.575Z" fill="#FAFAFA"/>
<path d="M221.441 325.575H239.303V307.713H221.441V325.575Z" fill="#F0F0F0"/>
<path d="M201.216 325.575H219.078V307.713H201.216V325.575Z" fill="#FAFAFA"/>
<path d="M241.679 345.521H259.541V327.66H241.679V345.521Z" fill="#FAFAFA"/>
<path d="M221.441 345.521H239.303V327.66H221.441V345.521Z" fill="#FAFAFA"/>
<path d="M201.216 345.521H219.078V327.66H201.216V345.521Z" fill="#FAFAFA"/>
<path d="M241.679 365.495H259.541V347.634H241.679V365.495Z" fill="#F0F0F0"/>
<path d="M221.441 365.495H239.303V347.634H221.441V365.495Z" fill="#FAFAFA"/>
<path d="M201.216 365.495H219.078V347.634H201.216V365.495Z" fill="#F0F0F0"/>
<path d="M241.679 385.442H259.541V367.581H241.679V385.442Z" fill="#FAFAFA"/>
<path d="M221.441 385.442H239.303V367.581H221.441V385.442Z" fill="#F0F0F0"/>
<path d="M201.216 385.442H219.078V367.581H201.216V385.442Z" fill="#FAFAFA"/>
<path d="M241.679 405.402H259.541V387.541H241.679V405.402Z" fill="#F0F0F0"/>
<path d="M221.441 405.402H239.303V387.541H221.441V405.402Z" fill="#FAFAFA"/>
<path d="M201.216 405.402H219.078V387.541H201.216V405.402Z" fill="#FAFAFA"/>
<path d="M143.643 169.547H134.135V179.055H143.643V169.547Z" fill="#FAFAFA"/>
<path d="M130.368 183.892H120.861V193.4H130.368V183.892Z" fill="#FAFAFA"/>
<path d="M130.368 198.223H120.861V207.73H130.368V198.223Z" fill="#FAFAFA"/>
<path d="M143.643 198.223H134.135V207.73H143.643V198.223Z" fill="#FAFAFA"/>
<path d="M156.917 198.223H147.41V207.73H156.917V198.223Z" fill="#FAFAFA"/>
<path d="M130.368 226.899H120.861V236.406H130.368V226.899Z" fill="#FAFAFA"/>
<path d="M156.917 226.899H147.41V236.406H156.917V226.899Z" fill="#FAFAFA"/>
<path d="M143.643 241.243H134.135V250.751H143.643V241.243Z" fill="#FAFAFA"/>
<path d="M130.368 255.574H120.861V265.082H130.368V255.574Z" fill="#FAFAFA"/>
<path d="M156.917 255.574H147.41V265.082H156.917V255.574Z" fill="#FAFAFA"/>
<path d="M170.192 255.574H160.684V265.082H170.192V255.574Z" fill="#FAFAFA"/>
<path d="M143.643 269.919H134.135V279.427H143.643V269.919Z" fill="#FAFAFA"/>
<path d="M130.368 284.25H120.861V293.758H130.368V284.25Z" fill="#FAFAFA"/>
<path d="M143.643 284.25H134.135V293.758H143.643V284.25Z" fill="#FAFAFA"/>
<path d="M170.192 284.25H160.684V293.758H170.192V284.25Z" fill="#FAFAFA"/>
<path d="M130.452 298.363L120.945 298.227L120.809 307.733L130.316 307.869L130.452 298.363Z" fill="#FAFAFA"/>
<path d="M156.993 298.757L147.486 298.62L147.35 308.127L156.856 308.263L156.993 298.757Z" fill="#FAFAFA"/>
<path d="M170.277 298.946L160.77 298.81L160.634 308.317L170.141 308.453L170.277 298.946Z" fill="#FAFAFA"/>
<path d="M143.643 312.94H134.135V322.447H143.643V312.94Z" fill="#FAFAFA"/>
<path d="M160.698 335.471H170.206V325.964H160.698V335.471Z" fill="#FAFAFA"/>
<path d="M134.135 335.471H143.643V325.964H134.135V335.471Z" fill="#FAFAFA"/>
<path d="M120.847 335.471H130.354V325.964H120.847V335.471Z" fill="#FAFAFA"/>
<path d="M147.41 349.802H156.917V340.295H147.41V349.802Z" fill="#FAFAFA"/>
<path d="M160.698 364.147H170.206V354.64H160.698V364.147Z" fill="#FAFAFA"/>
<path d="M147.41 364.147H156.917V354.64H147.41V364.147Z" fill="#FAFAFA"/>
<path d="M120.847 364.147H130.354V354.64H120.847V364.147Z" fill="#FAFAFA"/>
<path d="M160.778 378.265L170.285 378.129L170.149 368.622L160.642 368.758L160.778 378.265Z" fill="#FAFAFA"/>
<path d="M134.221 378.649L143.728 378.513L143.591 369.007L134.085 369.143L134.221 378.649Z" fill="#FAFAFA"/>
<path d="M120.928 378.835L130.435 378.699L130.299 369.192L120.792 369.328L120.928 378.835Z" fill="#FAFAFA"/>
<path d="M147.41 392.823H156.917V383.315H147.41V392.823Z" fill="#FAFAFA"/>
<path d="M70.7789 423.987H123.516C124.935 423.987 126.296 424.551 127.3 425.554C128.303 426.558 128.867 427.919 128.867 429.338V434.648H65.4413V429.338C65.4413 427.921 66.0032 426.562 67.0038 425.559C68.0044 424.556 69.362 423.99 70.7789 423.987Z" fill="#EBEBEB"/>
<path d="M133.371 423.987H186.107C187.527 423.987 188.888 424.551 189.891 425.554C190.895 426.558 191.459 427.919 191.459 429.338V434.648H128.019V429.338C128.019 428.635 128.158 427.94 128.426 427.29C128.695 426.641 129.09 426.051 129.587 425.554C130.083 425.057 130.673 424.663 131.323 424.394C131.972 424.125 132.668 423.987 133.371 423.987Z" fill="#F5F5F5"/>
<path d="M195.99 423.987H248.727C250.146 423.987 251.507 424.551 252.511 425.554C253.514 426.558 254.078 427.919 254.078 429.338V434.648H190.611V429.338C190.611 428.633 190.75 427.935 191.021 427.284C191.292 426.633 191.688 426.042 192.188 425.544C192.688 425.047 193.281 424.653 193.934 424.386C194.586 424.119 195.285 423.983 195.99 423.987Z" fill="#EBEBEB"/>
<path d="M258.54 423.987H311.277C312.696 423.987 314.057 424.551 315.061 425.554C316.064 426.558 316.628 427.919 316.628 429.338V434.648H253.203V429.338C253.203 427.921 253.764 426.562 254.765 425.559C255.766 424.556 257.123 423.99 258.54 423.987Z" fill="#F5F5F5"/>
<path d="M321.09 423.987H373.91C375.329 423.987 376.691 424.551 377.694 425.554C378.698 426.558 379.262 427.919 379.262 429.338V434.648H315.78V429.338C315.78 427.926 316.338 426.571 317.333 425.569C318.328 424.566 319.678 423.998 321.09 423.987Z" fill="#EBEBEB"/>
<path d="M383.724 423.987H436.46C437.163 423.987 437.859 424.125 438.508 424.394C439.157 424.663 439.747 425.057 440.244 425.554C440.741 426.051 441.135 426.641 441.404 427.29C441.673 427.94 441.812 428.635 441.812 429.338V434.648H378.372V429.338C378.372 428.635 378.51 427.94 378.779 427.29C379.048 426.641 379.443 426.051 379.939 425.554C380.436 425.057 381.026 424.663 381.676 424.394C382.325 424.125 383.021 423.987 383.724 423.987Z" fill="#F5F5F5"/>
<path d="M446.301 423.987H499.01C500.429 423.987 501.791 424.551 502.794 425.554C503.798 426.558 504.362 427.919 504.362 429.338V434.648H440.964V429.338C440.964 427.921 441.526 426.562 442.526 425.559C443.527 424.556 444.884 423.99 446.301 423.987Z" fill="#EBEBEB"/>
<path d="M508.893 423.987H561.63C563.049 423.987 564.41 424.551 565.414 425.554C566.417 426.558 566.981 427.919 566.981 429.338V434.648H503.542V429.338C503.542 427.919 504.105 426.558 505.109 425.554C506.113 424.551 507.474 423.987 508.893 423.987Z" fill="#F5F5F5"/>
<path d="M571.485 423.987H624.221C625.641 423.987 627.002 424.551 628.005 425.554C629.009 426.558 629.573 427.919 629.573 429.338V434.648H566.133V429.338C566.133 427.919 566.697 426.558 567.701 425.554C568.704 424.551 570.066 423.987 571.485 423.987Z" fill="#EBEBEB"/>
<path d="M302.381 91.4848C300.634 91.4585 298.933 92.0436 297.571 93.1389C297.857 91.6373 297.857 90.0953 297.571 88.5936C296.84 85.0085 294.923 81.774 292.129 79.4113C289.335 77.0486 285.827 75.6953 282.17 75.5693C280.122 75.5459 278.106 76.074 276.332 77.0983C274.984 74.6347 273.021 72.5625 270.633 71.0838C268.246 69.6051 265.516 68.7704 262.71 68.661C255.51 68.661 250.742 74.4851 252.035 81.6714C252.147 82.2592 252.296 82.8395 252.48 83.4089C251.336 83.1067 250.16 82.948 248.977 82.9363C241.777 82.9363 237.009 88.7743 238.302 95.9606C239.033 99.5398 240.946 102.769 243.735 105.129C246.523 107.489 250.024 108.842 253.675 108.971H305.564C306.657 109.009 307.744 108.794 308.741 108.343C309.738 107.892 310.617 107.218 311.311 106.372C312.005 105.526 312.494 104.532 312.741 103.467C312.989 102.401 312.987 101.293 312.736 100.228C312.239 97.821 310.948 95.6508 309.071 94.0653C307.193 92.4799 304.837 91.5711 302.381 91.4848Z" fill="#F0F0F0"/>
<path d="M208.5 50.3825C205.842 50.3305 203.252 51.2219 201.189 52.8984C201.619 50.6017 201.619 48.2451 201.189 45.9484C199.215 35.023 188.762 26.1687 177.851 26.1687C174.763 26.145 171.726 26.9464 169.052 28.49C164.882 20.9979 156.723 15.6603 148.202 15.6603C137.332 15.702 130.076 24.5563 132.05 35.44C132.21 36.3304 132.433 37.2083 132.717 38.0671C130.979 37.6095 129.191 37.3714 127.394 37.3582C116.468 37.3582 109.212 46.2125 111.186 57.124C113.16 68.0355 123.613 76.8898 134.524 76.8898H213.337C220.663 76.8898 225.542 70.9545 224.221 63.6153C223.454 59.9712 221.489 56.6887 218.64 54.2906C215.791 51.8925 212.222 50.5167 208.5 50.3825Z" fill="#F5F5F5"/>
<path d="M529.284 69.2309C526.626 69.1789 524.036 70.0703 521.973 71.7468C522.401 69.4499 522.401 67.0937 521.973 64.7968C519.999 53.8853 509.546 45.031 498.635 45.031C495.524 44.9949 492.461 45.7967 489.767 47.3523C485.597 39.8602 477.437 34.5226 468.917 34.5226C458.005 34.5226 450.749 43.3769 452.723 54.2884C452.882 55.1837 453.104 56.0663 453.39 56.9294C451.654 56.4599 449.865 56.2169 448.067 56.2066C437.141 56.2066 429.885 65.0609 431.859 75.9863C433.833 86.9117 444.272 95.7521 455.197 95.7521H534.01C541.336 95.7521 546.215 89.8029 544.88 82.4776C544.134 78.8445 542.193 75.5658 539.367 73.1648C536.54 70.7638 532.99 69.3788 529.284 69.2309Z" fill="#F5F5F5"/>
<path d="M612.615 48.3948C611.265 48.3669 609.95 48.8202 608.903 49.6736C609.126 48.5119 609.126 47.3186 608.903 46.1569C608.341 43.3872 606.863 40.8873 604.707 39.0594C602.551 37.2315 599.843 36.1819 597.019 36.0794C595.435 36.0619 593.874 36.47 592.501 37.2609C591.46 35.3424 589.934 33.73 588.076 32.5839C586.217 31.4379 584.092 30.798 581.91 30.7279C580.65 30.6807 579.397 30.9254 578.247 31.4429C577.098 31.9604 576.084 32.7368 575.285 33.7112C574.485 34.6857 573.922 35.8319 573.639 37.0601C573.356 38.2884 573.361 39.5655 573.653 40.7915C573.735 41.2615 573.846 41.7257 573.987 42.1815C573.103 41.9437 572.192 41.8222 571.276 41.8201C570.017 41.7757 568.765 42.0223 567.618 42.5407C566.47 43.0592 565.457 43.8355 564.658 44.8092C563.859 45.7829 563.296 46.9278 563.012 48.1548C562.727 49.3819 562.73 50.6579 563.02 51.8837C563.583 54.6557 565.063 57.1573 567.222 58.9854C569.38 60.8135 572.091 61.8618 574.918 61.9612H615.061C615.905 61.9815 616.743 61.8093 617.51 61.4576C618.278 61.106 618.955 60.5842 619.491 59.9318C620.027 59.2794 620.407 58.5135 620.603 57.6922C620.799 56.871 620.805 56.0159 620.621 55.1919C620.244 53.3241 619.25 51.6377 617.797 50.4045C616.344 49.1714 614.519 48.4634 612.615 48.3948Z" fill="#F0F0F0"/>
<path d="M430.177 24.32C428.385 24.2891 426.638 24.8893 425.243 26.0158C425.542 24.4781 425.542 22.897 425.243 21.3593C424.495 17.6973 422.538 14.3926 419.688 11.9754C416.837 9.5582 413.257 8.16849 409.522 8.0292C407.424 8.00228 405.358 8.54515 403.545 9.5999C402.156 7.06791 400.133 4.94 397.674 3.42447C395.216 1.90894 392.406 1.05771 389.52 0.954102C382.153 0.954102 377.274 6.91719 378.594 14.2703C378.705 14.8735 378.858 15.4681 379.053 16.0495C377.879 15.7351 376.669 15.5716 375.453 15.563C368.1 15.563 363.207 21.54 364.542 28.8931C365.29 32.5551 367.246 35.8597 370.097 38.277C372.947 40.6942 376.527 42.0839 380.262 42.2232H433.402C434.522 42.2645 435.636 42.0463 436.658 41.5856C437.68 41.1249 438.581 40.4343 439.292 39.5676C440.002 38.7009 440.503 37.6816 440.754 36.5895C441.006 35.4973 441.001 34.3618 440.741 33.2716C440.236 30.8126 438.921 28.5942 437.005 26.9713C435.09 25.3484 432.686 24.4148 430.177 24.32Z" fill="#F0F0F0"/>
</svg>
