<svg width="91" height="91" viewBox="0 0 91 91" fill="none" xmlns="http://www.w3.org/2000/svg">
<path fill-rule="evenodd" clip-rule="evenodd" d="M68.0048 14.2356C67.402 15.0746 66.88 15.9687 66.4458 16.906C64.1844 15.242 61.7377 13.8457 59.1547 12.745V3.18061C62.8339 4.39112 66.3383 6.07909 69.5783 8.2013C69.5645 8.31813 69.5679 8.43634 69.5884 8.55218C69.6519 8.88574 69.855 9.13362 70.1472 9.39065C70.5717 9.76367 71.1787 10.1781 71.7312 10.5088C70.2959 11.5416 69.0374 12.8002 68.0048 14.2356ZM21.8878 40.3219C21.2871 43.3328 21.2554 46.4296 21.7944 49.4522C22.4381 53.044 23.8698 56.4486 25.9867 59.4208L19.5586 65.4769C15.2311 60.0557 12.7551 53.4005 12.5713 46.4708C12.36 38.5054 15.1926 30.7855 20.3971 24.7632L28.3158 34.3593L43.8746 12.9308V56.1599H34.9307V40.3215L28.3158 48.7066L21.8878 40.3219ZM31.2043 78.5125V87.8314C13.3048 81.6469 0.443368 64.2105 1.01855 44.328C1.1876 38.4237 2.54261 32.6138 5.00294 27.2439C5.94705 27.8285 6.91797 28.3687 7.91254 28.8626C9.68093 29.7396 11.4137 30.3277 12.8514 30.6738C11.1686 34.2121 10.0971 38.0099 9.68237 41.906C8.02325 57.6034 17.345 72.3583 31.2043 78.5125ZM73.0361 61.6571C72.5578 62.9069 71.9324 64.0954 71.1729 65.1972C70.2826 66.4881 69.2165 67.6484 68.0053 68.6444L55.5207 56.1599V75.8181C52.784 77.24 49.7539 78.0056 46.6702 78.0543V9.94946C38.1666 9.63757 30.1165 12.4475 23.6956 17.3445C23.0809 16.0879 22.351 14.891 21.5152 13.7692C20.4159 12.2954 19.28 11.109 18.3741 10.374C26.0926 4.37189 35.7855 0.8409 46.2042 1.00551C49.4031 1.05557 52.5197 1.45314 55.5207 2.15876V35.4769C59.6819 31.2843 63.8435 27.092 68.0053 22.9C69.9375 24.9891 71.6542 27.2676 73.1295 29.7011L57.4773 46.0049L73.0361 61.6571ZM89.9917 46.4708C89.5084 71.3957 68.0144 91.4289 43.2229 90.1659C40.4257 90.0233 37.6488 89.6113 34.9307 88.9356V58.6753H43.8746V81.4972L43.9675 81.5006C63.0072 82.277 79.983 67.3872 81.2325 48.0549C81.6378 41.8227 80.358 35.8553 77.8118 30.5674C79.5229 29.8979 81.08 29.432 82.6313 28.5829C83.7022 27.9963 84.7042 27.2915 85.6184 26.482C88.5438 32.5601 90.1298 39.3617 89.9917 46.4708Z" fill="url(#paint0_linear_17_853)" stroke="#009FE3" stroke-width="1.185" stroke-miterlimit="10"/>
<path d="M13.8282 9.28502C14.294 7.56822 14.4076 5.77494 14.1623 4.01308C14.6682 3.69012 15.2409 3.53802 15.7978 3.6415C16.0784 3.693 16.8033 4.07036 17.3876 4.87562C18.112 5.87436 18.4687 7.10944 18.5057 8.41479C16.4014 10.1379 15.3045 10.3512 13.8282 9.28502ZM11.1425 13.4822L19.2778 19.389C19.183 18.5577 11.6069 13.1746 11.1425 13.4822ZM9.18781 15.8714C8.98662 16.2815 9.19118 16.4384 9.40007 16.591C11.8205 18.3536 14.2403 20.1162 16.6594 21.8788C16.836 22.0078 17.0045 22.1508 17.3929 21.887C14.6147 19.8505 11.914 17.8694 9.18781 15.8714ZM15.1788 25.4753L7.05891 19.5367C7.23989 20.5071 14.8251 25.8425 15.1788 25.4753ZM20.3492 19.7851C20.6804 20.5961 20.7997 21.3994 20.2847 22.1648C19.7707 22.9296 19.0857 23.3219 18.1192 23.0677C18.6761 25.5995 17.8627 26.8644 15.6496 27.0083C14.9444 28.6645 13.8807 29.2619 12.1619 28.8446C9.98633 28.3151 7.89016 27.5459 6.04332 26.2464C4.44918 25.1249 3.26223 23.641 3.85763 21.5992C5.10474 17.327 7.43002 13.6853 10.8734 10.82C11.7292 10.1071 12.7164 9.52905 13.9192 9.87609C17.8694 11.0139 20.1673 13.9428 21.8543 17.43C22.405 18.5683 21.5723 19.7451 20.3492 19.7851ZM75.5907 6.53763C75.6408 7.46754 75.7885 8.38494 76.0316 9.28502C74.5559 10.3512 73.4589 10.1379 71.3541 8.41527C71.3916 7.10992 71.7473 5.87484 72.4727 4.8761C73.0561 4.07036 73.7809 3.69349 74.0615 3.64198C74.6194 3.5385 75.1926 3.6906 75.6976 4.01357C75.5816 4.84959 75.5458 5.69479 75.5907 6.53763ZM74.6825 25.4753C75.0348 25.8425 82.6204 20.5071 82.8024 19.5367C80.0973 21.5145 77.3928 23.4922 74.6825 25.4753ZM80.6725 15.8714C77.9468 17.8694 75.2466 19.8505 72.4679 21.887C72.8558 22.1508 73.0238 22.0078 73.2009 21.8788C75.6198 20.1162 78.0394 18.3536 80.4598 16.591C80.6682 16.4384 80.8742 16.2815 80.6725 15.8714ZM70.583 19.389L78.7183 13.4822C78.2539 13.1746 70.6774 18.5577 70.583 19.389ZM83.818 26.2464C81.9697 27.5459 79.874 28.3156 77.6989 28.8446C75.9796 29.2614 74.9159 28.6641 74.2112 27.0083C71.9972 26.8644 71.1852 25.5995 71.7416 23.0677C70.7746 23.3219 70.0892 22.9296 69.5751 22.1648C69.0601 21.3999 69.18 20.5961 69.5111 19.7851C68.2886 19.7451 67.4554 18.5683 68.006 17.43C69.694 13.9428 71.9899 11.0139 75.9416 9.87609C77.1435 9.52953 78.1311 10.1071 78.986 10.82C82.4294 13.6848 84.7551 17.3265 86.0013 21.5992C86.5981 23.641 85.4121 25.1249 83.818 26.2464Z" fill="url(#paint1_linear_17_853)" stroke="#1D1D1B" stroke-width="1.146" stroke-miterlimit="10"/>
<defs>
<linearGradient id="paint0_linear_17_853" x1="45.5001" y1="90.2222" x2="45.5001" y2="1.0007" gradientUnits="userSpaceOnUse">
<stop stop-color="#575756"/>
<stop offset="0.482" stop-color="white"/>
<stop offset="0.536" stop-color="#F6F6F6"/>
<stop offset="0.634" stop-color="#DEDEDE"/>
<stop offset="0.766" stop-color="#B4B4B4"/>
<stop offset="0.925" stop-color="#747473"/>
<stop offset="0.986" stop-color="#575756"/>
</linearGradient>
<linearGradient id="paint1_linear_17_853" x1="44.9299" y1="28.9726" x2="44.9299" y2="3.60925" gradientUnits="userSpaceOnUse">
<stop stop-color="#BE1622"/>
<stop offset="0.448" stop-color="#E94E1B"/>
<stop offset="0.606" stop-color="#ED6B14"/>
<stop offset="0.814" stop-color="#F18700"/>
<stop offset="0.927" stop-color="#F39200"/>
</linearGradient>
</defs>
</svg>
