<svg width="173" height="74" viewBox="0 0 173 74" fill="none" xmlns="http://www.w3.org/2000/svg">
<path fill-rule="evenodd" clip-rule="evenodd" d="M55.2061 11.6808C54.7185 12.3578 54.2962 13.0793 53.9449 13.8357C52.1154 12.4929 50.1361 11.3661 48.0465 10.4779V2.75969C51.0229 3.73654 53.8579 5.09868 56.479 6.81124C56.4679 6.90552 56.4706 7.00092 56.4872 7.0944C56.5386 7.36357 56.7029 7.5636 56.9393 7.77101C57.2827 8.07203 57.7737 8.40646 58.2208 8.6733C57.0596 9.50675 56.0415 10.5224 55.2061 11.6808ZM17.898 32.7317C17.412 35.1614 17.3864 37.6604 17.8224 40.0995C18.3432 42.998 19.5014 45.7454 21.214 48.144L16.0137 53.031C12.5128 48.6563 10.5098 43.2857 10.361 37.6937C10.1901 31.2658 12.4816 25.036 16.692 20.1762L23.0982 27.92L35.6851 10.6278V45.5125H28.4495V32.7313L23.0982 39.4979L17.898 32.7317ZM25.4349 63.5504V71.0705C10.9545 66.0798 0.549691 52.0091 1.01501 35.9645C1.15177 31.1999 2.24796 26.5114 4.23834 22.1781C5.00211 22.6499 5.78758 23.0857 6.59217 23.4843C8.02277 24.192 9.42456 24.6666 10.5877 24.9459C9.22625 27.8012 8.35943 30.8659 8.02394 34.01C6.68173 46.6773 14.223 58.5841 25.4349 63.5504ZM59.2764 49.9485C58.8895 50.9571 58.3835 51.9162 57.7691 52.8053C57.0489 53.847 56.1863 54.7834 55.2065 55.5871L45.1067 45.5125V61.3761C42.8926 62.5235 40.4413 63.1413 37.9466 63.1806V8.22196C31.0674 7.97027 24.5549 10.2378 19.3605 14.1896C18.8632 13.1755 18.2727 12.2097 17.5966 11.3044C16.7072 10.1151 15.7883 9.15765 15.0555 8.56454C21.2996 3.72102 29.1411 0.871611 37.5697 1.00445C40.1576 1.04484 42.6788 1.36567 45.1067 1.93509V28.8219C48.473 25.4386 51.8396 22.0555 55.2065 18.6726C56.7696 20.3585 58.1585 22.1972 59.3519 24.1609L46.6895 37.3177L59.2764 49.9485ZM72.9933 37.6937C72.6023 57.8073 55.2139 73.9735 35.1579 72.9543C32.895 72.8393 30.6484 72.5068 28.4495 71.9615V47.5423H35.6851V65.959L35.7602 65.9617C51.1632 66.5882 64.8964 54.5726 65.9072 38.9719C66.2351 33.9428 65.1997 29.1272 63.1399 24.8601C64.5241 24.3198 65.7838 23.9438 67.0388 23.2586C67.9052 22.7852 68.7157 22.2165 69.4553 21.5632C71.822 26.4681 73.105 31.9568 72.9933 37.6937Z" fill="url(#paint0_linear_140_1033)" stroke="#009FE3" stroke-width="1.185" stroke-miterlimit="10"/>
<path d="M11.3781 7.68577C11.7549 6.30037 11.8468 4.85324 11.6483 3.43147C12.0576 3.17085 12.521 3.04811 12.9715 3.13162C13.1985 3.17318 13.7849 3.47769 14.2576 4.12751C14.8436 4.93347 15.1322 5.93014 15.1621 6.98352C13.4598 8.37404 12.5723 8.54611 11.3781 7.68577ZM9.20534 11.0727L15.7867 15.8394C15.71 15.1686 9.58109 10.8246 9.20534 11.0727ZM7.62404 13.0008C7.46128 13.3318 7.62676 13.4584 7.79576 13.5815C9.75385 15.0039 11.7114 16.4263 13.6685 17.8486C13.8114 17.9527 13.9477 18.0681 14.2619 17.8552C12.0144 16.2119 9.82952 14.6131 7.62404 13.0008ZM12.4707 20.7509L5.90179 15.9586C6.0482 16.7417 12.1845 21.0472 12.4707 20.7509ZM16.6535 16.159C16.9214 16.8135 17.018 17.4618 16.6013 18.0794C16.1855 18.6965 15.6314 19.0131 14.8495 18.808C15.3 20.8511 14.6419 21.8718 12.8515 21.988C12.2811 23.3245 11.4205 23.8065 10.0301 23.4698C8.27003 23.0425 6.57426 22.4218 5.08018 21.3731C3.79054 20.4681 2.83032 19.2706 3.31199 17.623C4.32088 14.1754 6.20201 11.2367 8.98767 8.92443C9.67999 8.34919 10.4786 7.8827 11.4517 8.16275C14.6474 9.08096 16.5063 11.4445 17.8711 14.2585C18.3166 15.1771 17.6429 16.1268 16.6535 16.159ZM61.3432 5.46871C61.3837 6.21912 61.5033 6.95944 61.6999 7.68577C60.5061 8.54611 59.6187 8.37404 57.9159 6.98391C57.9462 5.93053 58.234 4.93386 58.8208 4.1279C59.2927 3.47769 59.8792 3.17357 60.1062 3.13201C60.5575 3.0485 61.0212 3.17123 61.4297 3.43186C61.3358 4.10651 61.3069 4.78856 61.3432 5.46871ZM60.6085 20.7509C60.8935 21.0472 67.0302 16.7417 67.1774 15.9586C64.9891 17.5546 62.8011 19.1506 60.6085 20.7509ZM65.4544 13.0008C63.2493 14.6131 61.0648 16.2119 58.8169 17.8552C59.1308 18.0681 59.2667 17.9527 59.41 17.8486C61.3667 16.4263 63.3242 15.0039 65.2823 13.5815C65.4509 13.4584 65.6175 13.3318 65.4544 13.0008ZM57.2921 15.8394L63.8735 11.0727C63.4977 10.8246 57.3684 15.1686 57.2921 15.8394ZM67.999 21.3731C66.5038 22.4218 64.8084 23.0429 63.0488 23.4698C61.6579 23.8061 60.7973 23.3241 60.2273 21.988C58.4361 21.8718 57.7792 20.8511 58.2293 18.808C57.4471 19.0131 56.8926 18.6965 56.4767 18.0794C56.0601 17.4622 56.157 16.8135 56.4249 16.159C55.4359 16.1268 54.7619 15.1771 55.2073 14.2585C56.5729 11.4445 58.4303 9.08096 61.6271 8.16275C62.5994 7.88309 63.3984 8.34919 64.09 8.92443C66.8756 11.2363 68.7571 14.175 69.7653 17.623C70.2481 19.2706 69.2887 20.4681 67.999 21.3731Z" fill="url(#paint1_linear_140_1033)" stroke="#1D1D1B" stroke-width="1.146" stroke-miterlimit="10"/>
<path d="M97.6792 23.1953H101.979L109.169 42.9961L116.342 23.1953H120.66L110.886 49.5H107.435L97.6792 23.1953ZM95.5112 23.1953H99.7207L100.479 41.3882V49.5H95.5112V23.1953ZM118.6 23.1953H122.828V49.5H117.859V41.3882L118.6 23.1953ZM132.854 23.1953V49.5H127.886V23.1953H132.854ZM148.645 23.1953L138.094 36.0225L132.06 42.4722L131.174 37.6484L135.366 32.2104L142.556 23.1953H148.645ZM143.116 49.5L134.932 37.1787L138.491 33.9629L149.024 49.5H143.116ZM159.195 49.5H153.522L153.559 45.5977H159.195C160.725 45.5977 162.008 45.2604 163.043 44.5859C164.079 43.8994 164.862 42.9178 165.392 41.6411C165.922 40.3524 166.187 38.8107 166.187 37.0161V35.6611C166.187 34.276 166.036 33.0535 165.735 31.9937C165.434 30.9338 164.989 30.0425 164.398 29.3198C163.82 28.5972 163.104 28.0492 162.249 27.6758C161.393 27.3024 160.412 27.1157 159.304 27.1157H153.414V23.1953H159.304C161.062 23.1953 162.664 23.4904 164.109 24.0806C165.567 24.6707 166.825 25.5199 167.885 26.6279C168.957 27.724 169.776 29.0368 170.342 30.5664C170.92 32.096 171.209 33.8063 171.209 35.6973V37.0161C171.209 38.895 170.92 40.6053 170.342 42.147C169.776 43.6766 168.957 44.9894 167.885 46.0854C166.825 47.1815 165.561 48.0246 164.091 48.6147C162.622 49.2049 160.99 49.5 159.195 49.5ZM156.305 23.1953V49.5H151.336V23.1953H156.305Z" fill="white"/>
<defs>
<linearGradient id="paint0_linear_140_1033" x1="37" y1="72.9998" x2="37" y2="1.00057" gradientUnits="userSpaceOnUse">
<stop stop-color="#575756"/>
<stop offset="0.482" stop-color="white"/>
<stop offset="0.536" stop-color="#F6F6F6"/>
<stop offset="0.634" stop-color="#DEDEDE"/>
<stop offset="0.766" stop-color="#B4B4B4"/>
<stop offset="0.925" stop-color="#747473"/>
<stop offset="0.986" stop-color="#575756"/>
</linearGradient>
<linearGradient id="paint1_linear_140_1033" x1="36.539" y1="23.5731" x2="36.539" y2="3.10559" gradientUnits="userSpaceOnUse">
<stop stop-color="#BE1622"/>
<stop offset="0.448" stop-color="#E94E1B"/>
<stop offset="0.606" stop-color="#ED6B14"/>
<stop offset="0.814" stop-color="#F18700"/>
<stop offset="0.927" stop-color="#F39200"/>
</linearGradient>
</defs>
</svg>
