<svg width="157" height="59" viewBox="0 0 157 59" fill="none" xmlns="http://www.w3.org/2000/svg">
<path fill-rule="evenodd" clip-rule="evenodd" d="M42.9075 9.80728C42.535 10.3338 42.2124 10.895 41.944 11.4833C40.5465 10.4389 39.0345 9.56252 37.4383 8.87168V2.86865C39.7119 3.62842 41.8776 4.68786 43.8798 6.01986C43.8713 6.09318 43.8734 6.16738 43.8861 6.24009C43.9253 6.44944 44.0509 6.60502 44.2314 6.76634C44.4938 7.00047 44.8688 7.26058 45.2103 7.46812C44.3233 8.11636 43.5456 8.90632 42.9075 9.80728ZM14.4082 26.1802C14.0369 28.07 14.0174 30.0136 14.3505 31.9107C14.7482 34.1651 15.633 36.302 16.9412 38.1675L12.9688 41.9685C10.2945 38.566 8.76441 34.3889 8.65079 30.0395C8.52021 25.0401 10.2707 20.1947 13.487 16.4148L18.3806 22.4378L27.9956 8.98829V36.1208H22.4684V26.1799L18.3806 31.4428L14.4082 26.1802ZM20.1656 50.1503V55.9993C9.1041 52.1176 1.15601 41.1737 1.51146 28.6946C1.61594 24.9888 2.4533 21.3422 3.97373 17.9718C4.55717 18.3388 5.15718 18.6778 5.7718 18.9878C6.86462 19.5382 7.93543 19.9074 8.8239 20.1246C7.78394 22.3454 7.12179 24.729 6.86551 27.1744C5.84021 37.0268 11.6009 46.2877 20.1656 50.1503ZM46.0167 39.5711C45.7211 40.3556 45.3346 41.1015 44.8653 41.793C44.3151 42.6033 43.6562 43.3315 42.9078 43.9567L35.1926 36.1208V48.4592C33.5013 49.3516 31.6288 49.8321 29.7231 49.8627V7.11708C24.4681 6.92132 19.4933 8.68498 15.5254 11.7585C15.1455 10.9698 14.6944 10.2186 14.1779 9.51455C13.4986 8.58952 12.7966 7.84484 12.2368 7.38353C17.0067 3.61635 22.9967 1.40014 29.4352 1.50346C31.412 1.53488 33.338 1.78441 35.1926 2.22729V23.1393C37.7641 20.5078 40.3358 17.8765 42.9078 15.2454C44.1018 16.5566 45.1627 17.9867 46.0744 19.5141L36.4017 29.7471L46.0167 39.5711ZM56.4949 30.0395C56.1962 45.6835 42.9134 58.2572 27.5928 57.4645C25.8642 57.375 24.1481 57.1164 22.4684 56.6923V37.6996H27.9956V52.0236L28.053 52.0258C39.8191 52.513 50.3097 43.1676 51.0819 31.0337C51.3324 27.1221 50.5415 23.3767 48.968 20.0578C50.0254 19.6376 50.9876 19.3452 51.9463 18.8123C52.6081 18.444 53.2273 18.0017 53.7922 17.4936C55.6001 21.3085 56.5802 25.5775 56.4949 30.0395Z" fill="url(#paint0_linear_46_6169)" stroke="#009FE3" stroke-width="1.185" stroke-miterlimit="10"/>
<path d="M9.42751 6.70001C9.71533 5.62247 9.78555 4.49692 9.63394 3.39111C9.94656 3.1884 10.3005 3.09293 10.6447 3.15788C10.8181 3.19021 11.266 3.42706 11.6271 3.93247C12.0748 4.55933 12.2952 5.33452 12.3181 6.15381C11.0177 7.23533 10.3398 7.36916 9.42751 6.70001ZM7.76776 9.33432L12.7952 13.0417C12.7366 12.52 8.0548 9.14128 7.76776 9.33432ZM6.55983 10.8339C6.43549 11.0913 6.56191 11.1898 6.691 11.2856C8.18676 12.3919 9.68213 13.4982 11.1771 14.6045C11.2863 14.6854 11.3904 14.7751 11.6304 14.6096C9.91354 13.3314 8.24457 12.088 6.55983 10.8339ZM10.2621 16.8617L5.24422 13.1344C5.35606 13.7435 10.0435 17.0922 10.2621 16.8617ZM13.4573 13.2903C13.662 13.7994 13.7357 14.3036 13.4175 14.7839C13.0998 15.2639 12.6765 15.5101 12.0793 15.3506C12.4234 16.9397 11.9207 17.7336 10.5531 17.8239C10.1173 18.8635 9.45994 19.2384 8.39775 18.9764C7.05329 18.6441 5.75791 18.1614 4.6166 17.3457C3.63146 16.6418 2.89795 15.7104 3.2659 14.4289C4.03658 11.7475 5.47355 9.46181 7.60149 7.6634C8.13035 7.21599 8.74041 6.85317 9.48373 7.07099C11.9249 7.78515 13.3449 9.62343 14.3874 11.8121C14.7277 12.5266 14.2131 13.2652 13.4573 13.2903ZM47.5953 4.97562C47.6263 5.55928 47.7176 6.13508 47.8678 6.70001C46.9558 7.36916 46.2779 7.23533 44.9772 6.15411C45.0004 5.33482 45.2202 4.55963 45.6685 3.93277C46.029 3.42706 46.4769 3.19051 46.6503 3.15819C46.9951 3.09323 47.3493 3.1887 47.6614 3.39141C47.5897 3.91613 47.5676 4.44662 47.5953 4.97562ZM47.034 16.8617C47.2518 17.0922 51.9395 13.7435 52.052 13.1344C50.3803 14.3758 48.709 15.6171 47.034 16.8617ZM50.7358 10.8339C49.0513 12.088 47.3827 13.3314 45.6655 14.6096C45.9052 14.7751 46.009 14.6854 46.1185 14.6045C47.6133 13.4982 49.1085 12.3919 50.6043 11.2856C50.7331 11.1898 50.8604 11.0913 50.7358 10.8339ZM44.5007 13.0417L49.5281 9.33432C49.2411 9.14128 44.559 12.52 44.5007 13.0417ZM52.6796 17.3457C51.5374 18.1614 50.2423 18.6444 48.8981 18.9764C47.8357 19.2381 47.1783 18.8632 46.7428 17.8239C45.3746 17.7336 44.8728 16.9397 45.2166 15.3506C44.6191 15.5101 44.1955 15.2639 43.8778 14.7839C43.5596 14.3039 43.6336 13.7994 43.8383 13.2903C43.0828 13.2652 42.5679 12.5266 42.9082 11.8121C43.9513 9.62343 45.3701 7.78515 47.8122 7.07099C48.5549 6.85347 49.1652 7.21599 49.6935 7.6634C51.8215 9.4615 53.2587 11.7472 54.0288 14.4289C54.3976 15.7104 53.6647 16.6418 52.6796 17.3457Z" fill="url(#paint1_linear_46_6169)" stroke="#1D1D1B" stroke-width="1.146" stroke-miterlimit="10"/>
<path d="M81.1792 15.6953H85.479L92.6694 35.4961L99.8418 15.6953H104.16L94.3857 42H90.9351L81.1792 15.6953ZM79.0112 15.6953H83.2207L83.9795 33.8882V42H79.0112V15.6953ZM102.1 15.6953H106.328V42H101.359V33.8882L102.1 15.6953ZM116.354 15.6953V42H111.386V15.6953H116.354ZM132.145 15.6953L121.594 28.5225L115.56 34.9722L114.674 30.1484L118.866 24.7104L126.056 15.6953H132.145ZM126.616 42L118.432 29.6787L121.991 26.4629L132.524 42H126.616ZM142.695 42H137.022L137.059 38.0977H142.695C144.225 38.0977 145.508 37.7604 146.543 37.0859C147.579 36.3994 148.362 35.4178 148.892 34.1411C149.422 32.8524 149.687 31.3107 149.687 29.5161V28.1611C149.687 26.776 149.536 25.5535 149.235 24.4937C148.934 23.4338 148.489 22.5425 147.898 21.8198C147.32 21.0972 146.604 20.5492 145.749 20.1758C144.893 19.8024 143.912 19.6157 142.804 19.6157H136.914V15.6953H142.804C144.562 15.6953 146.164 15.9904 147.609 16.5806C149.067 17.1707 150.325 18.0199 151.385 19.1279C152.457 20.224 153.276 21.5368 153.842 23.0664C154.42 24.596 154.709 26.3063 154.709 28.1973V29.5161C154.709 31.395 154.42 33.1053 153.842 34.647C153.276 36.1766 152.457 37.4894 151.385 38.5854C150.325 39.6815 149.061 40.5246 147.591 41.1147C146.122 41.7049 144.49 42 142.695 42ZM139.805 15.6953V42H134.836V15.6953H139.805Z" fill="#AA3309"/>
<defs>
<linearGradient id="paint0_linear_46_6169" x1="29" y1="57.4998" x2="29" y2="1.50044" gradientUnits="userSpaceOnUse">
<stop stop-color="#575756"/>
<stop offset="0.482" stop-color="white"/>
<stop offset="0.536" stop-color="#F6F6F6"/>
<stop offset="0.634" stop-color="#DEDEDE"/>
<stop offset="0.766" stop-color="#B4B4B4"/>
<stop offset="0.925" stop-color="#747473"/>
<stop offset="0.986" stop-color="#575756"/>
</linearGradient>
<linearGradient id="paint1_linear_46_6169" x1="28.6477" y1="19.0568" x2="28.6477" y2="3.13764" gradientUnits="userSpaceOnUse">
<stop stop-color="#BE1622"/>
<stop offset="0.448" stop-color="#E94E1B"/>
<stop offset="0.606" stop-color="#ED6B14"/>
<stop offset="0.814" stop-color="#F18700"/>
<stop offset="0.927" stop-color="#F39200"/>
</linearGradient>
</defs>
</svg>
